<?xml version="1.0" encoding="utf-8"?>
<!-- Generator: Adobe Illustrator 23.0.3, SVG Export Plug-In . SVG Version: 6.00 Build 0)  -->
<svg version="1.1"
	 id="svg815" inkscape:version="0.92.4 (5da689c313, 2019-01-14)" sodipodi:docname="A.svg" xmlns:cc="http://creativecommons.org/ns#" xmlns:dc="http://purl.org/dc/elements/1.1/" xmlns:inkscape="http://www.inkscape.org/namespaces/inkscape" xmlns:rdf="http://www.w3.org/1999/02/22-rdf-syntax-ns#" xmlns:sodipodi="http://sodipodi.sourceforge.net/DTD/sodipodi-0.dtd" xmlns:svg="http://www.w3.org/2000/svg"
	 xmlns="http://www.w3.org/2000/svg" xmlns:xlink="http://www.w3.org/1999/xlink" x="0px" y="0px" viewBox="0 0 228.1 292.4"
	 style="enable-background:new 0 0 228.1 292.4;" xml:space="preserve">
<style type="text/css">
	.st0{fill:#FFFFFF;}
	.st1{clip-path:url(#SVGID_2_);}
	.st2{fill:none;stroke:#231815;stroke-width:0.99;stroke-miterlimit:10;}
	.st3{fill:none;stroke:#231815;stroke-width:0.99;stroke-miterlimit:10;stroke-dasharray:4.15;}
	.st4{fill:none;stroke:#231815;stroke-miterlimit:10;}
	.st5{clip-path:url(#SVGID_4_);}
	.st6{fill:#231815;}
	.st7{font-family:'KozGoPr6N-Regular-90ms-RKSJ-H';}
	.st8{font-size:21.3333px;}
	.st9{clip-path:url(#SVGID_6_);}
	.st10{clip-path:url(#SVGID_8_);}
	.st11{fill:none;stroke:#231815;stroke-width:0.71;stroke-miterlimit:10;}
	.st12{clip-path:url(#SVGID_10_);}
	.st13{clip-path:url(#SVGID_12_);}
	.st14{fill:none;stroke:#231815;stroke-width:0.61;stroke-miterlimit:10;}
	.st15{clip-path:url(#SVGID_14_);}
	.st16{font-size:18.6667px;}
	.st17{clip-path:url(#SVGID_16_);}
	.st18{fill:none;stroke:#231815;stroke-width:1.03;stroke-miterlimit:10;}
</style>
<sodipodi:namedview  bordercolor="#666666" borderopacity="1" gridtolerance="10" guidetolerance="10" id="namedview817" inkscape:current-layer="g823" inkscape:cx="114.06667" inkscape:cy="118.30074" inkscape:pageopacity="0" inkscape:pageshadow="2" inkscape:window-height="998" inkscape:window-maximized="0" inkscape:window-width="1205" inkscape:window-x="1377" inkscape:window-y="90" inkscape:zoom="3.1735827" objecttolerance="10" pagecolor="#ffffff" showgrid="false">
	</sodipodi:namedview>
<path id="path827" inkscape:connector-curvature="0" class="st0" d="M114,0.7H0.7v32.8v258.3h226.8V0.7H114z"/>
<g>
	<defs>
		<rect id="SVGID_1_" y="0" width="228.1" height="292.4"/>
	</defs>
	<clipPath id="SVGID_2_">
		<use xlink:href="#SVGID_1_"  style="overflow:visible;"/>
	</clipPath>
	<g id="g831" class="st1">
		<g id="g837" transform="translate(170.5996,0.4995)">
			<path id="path839" inkscape:connector-curvature="0" class="st2" d="M56.9,291.2h-226.8V33V0.2h113.3H56.9V291.2z"/>
		</g>
		<g id="g841" transform="translate(85.5,0.4995)">
			<path id="path843" inkscape:connector-curvature="0" class="st3" d="M28.5,291.2V0.2"/>
		</g>
		<g id="g845" transform="translate(170.5996,192.6001)">
			<path id="path847" inkscape:connector-curvature="0" class="st2" d="M56.9-157h-226.8"/>
		</g>
		<g id="g849" transform="translate(23.7998,179.5)">
			<path id="path851" inkscape:connector-curvature="0" class="st0" d="M7.9-126.4h53.2c8.8,0,16,7.2,16,16v0.8c0,8.8-7.2,16-16,16
				H7.9c-8.8,0-16-7.2-16-16v-0.8C-8.1-119.2-0.9-126.4,7.9-126.4"/>
		</g>
		<g id="g853" transform="translate(23.7998,179.5)">
			<path id="path855" inkscape:connector-curvature="0" class="st4" d="M7.9-126.4h53.2c8.8,0,16,7.2,16,16v0.8c0,8.8-7.2,16-16,16
				H7.9c-8.8,0-16-7.2-16-16v-0.8C-8.1-119.2-0.9-126.4,7.9-126.4z"/>
		</g>
		<g id="g857">
			<g id="g859">
			</g>
			<g id="g871">
				<g>
					<defs>
						<rect id="SVGID_3_" x="48.7" y="5.9" width="21.3" height="26"/>
					</defs>
					<clipPath id="SVGID_4_">
						<use xlink:href="#SVGID_3_"  style="overflow:visible;"/>
					</clipPath>
					<g id="g869" class="st5">
						<text transform="matrix(1 0 0 1 48.7197 24.7067)" class="st6 st7 st8">夫</text>
					</g>
				</g>
			</g>
		</g>
		<g id="g873">
			<g id="g875">
			</g>
			<g id="g887">
				<g>
					<defs>
						<rect id="SVGID_5_" x="159.9" y="5.9" width="21.3" height="26"/>
					</defs>
					<clipPath id="SVGID_6_">
						<use xlink:href="#SVGID_5_"  style="overflow:visible;"/>
					</clipPath>
					<g id="g885" class="st9">
						<text transform="matrix(1 0 0 1 159.9063 24.7067)" class="st6 st7 st8">妻</text>
					</g>
				</g>
			</g>
		</g>
		<g id="g889">
			<g id="g891">
			</g>
			<g id="g903">
				<g>
					<defs>
						<rect id="SVGID_7_" x="37.1" y="57.8" width="42.7" height="26"/>
					</defs>
					<clipPath id="SVGID_8_">
						<use xlink:href="#SVGID_7_"  style="overflow:visible;"/>
					</clipPath>
					<g id="g901" class="st10">
						<text transform="matrix(1 0 0 1 37.0659 76.5466)" class="st6 st7 st8">収</text>
						<text transform="matrix(1 0 0 1 58.3994 76.5466)" class="st6 st7 st8">入</text>
					</g>
				</g>
			</g>
		</g>
		<g id="g905" transform="translate(128.0996,143.7002)">
			<path id="path907" inkscape:connector-curvature="0" class="st0" d="M42.7-42.9c29.2,0,52.9,18.6,52.9,41.6S71.9,40.3,42.7,40.3
				S-10.2,21.7-10.2-1.3S13.5-42.9,42.7-42.9"/>
		</g>
		<g id="g909" transform="translate(128.0996,143.7002)">
			<path id="path911" inkscape:connector-curvature="0" class="st11" d="M42.7-42.9c29.2,0,52.9,18.6,52.9,41.6S71.9,40.3,42.7,40.3
				S-10.2,21.7-10.2-1.3S13.5-42.9,42.7-42.9z"/>
		</g>
		<g id="g913">
			<g id="g915">
			</g>
			<g id="g927">
				<g>
					<defs>
						<rect id="SVGID_9_" x="139.7" y="119.6" width="64" height="26"/>
					</defs>
					<clipPath id="SVGID_10_">
						<use xlink:href="#SVGID_9_"  style="overflow:visible;"/>
					</clipPath>
					<g id="g925" class="st12">
						<text transform="matrix(1 0 0 1 139.707 138.4138)" class="st6 st7 st8">共</text>
						<text transform="matrix(1 0 0 1 161.04 138.4138)" class="st6 st7 st8">通</text>
						<text transform="matrix(1 0 0 1 182.373 138.4138)" class="st6 st7 st8">の</text>
					</g>
				</g>
			</g>
		</g>
		<g id="g929">
			<g id="g931">
			</g>
			<g id="g943">
				<g>
					<defs>
						<rect id="SVGID_11_" x="150.4" y="146.3" width="42.7" height="26"/>
					</defs>
					<clipPath id="SVGID_12_">
						<use xlink:href="#SVGID_11_"  style="overflow:visible;"/>
					</clipPath>
					<g id="g941" class="st13">
						<text transform="matrix(1 0 0 1 150.373 165.0808)" class="st6 st7 st8">財</text>
						<text transform="matrix(1 0 0 1 171.707 165.0808)" class="st6 st7 st8">布</text>
					</g>
				</g>
			</g>
		</g>
		<g id="g945" transform="translate(43,56.1997)">
			<path id="path947" inkscape:connector-curvature="0" class="st0" d="M14.3,161.3c18.3,0,33.2,14.9,33.2,33.2
				s-14.9,33.2-33.2,33.2s-33.2-14.9-33.2-33.2S-4,161.3,14.3,161.3"/>
		</g>
		<g id="g949" transform="translate(43,56.1997)">
			<path id="path951" inkscape:connector-curvature="0" class="st14" d="M14.3,161.3c18.3,0,33.2,14.9,33.2,33.2
				s-14.9,33.2-33.2,33.2s-33.2-14.9-33.2-33.2S-4,161.3,14.3,161.3z"/>
		</g>
		<g id="g953">
			<g id="g955">
			</g>
			<g id="g967">
				<g>
					<defs>
						<rect id="SVGID_13_" x="39.4" y="230.3" width="37.3" height="22.8"/>
					</defs>
					<clipPath id="SVGID_14_">
						<use xlink:href="#SVGID_13_"  style="overflow:visible;"/>
					</clipPath>
					<g id="g965" class="st15">
						<text transform="matrix(1 0 0 1 39.3862 246.694)" class="st6 st7 st16">夫</text>
						<text transform="matrix(1 0 0 1 58.0527 246.694)" class="st6 st7 st16">の</text>
					</g>
				</g>
			</g>
		</g>
		<g id="g969">
			<g id="g971">
			</g>
			<g id="g983">
				<g>
					<defs>
						<rect id="SVGID_15_" x="39.4" y="251.6" width="37.3" height="22.8"/>
					</defs>
					<clipPath id="SVGID_16_">
						<use xlink:href="#SVGID_15_"  style="overflow:visible;"/>
					</clipPath>
					<g id="g981" class="st17">
						<text transform="matrix(1 0 0 1 39.3862 268.0271)" class="st6 st7 st16">財</text>
						<text transform="matrix(1 0 0 1 58.0527 268.0271)" class="st6 st7 st16">布</text>
					</g>
				</g>
			</g>
		</g>
		<g id="g985" transform="translate(128,56.1997)">
			<path id="path987" inkscape:connector-curvature="0" class="st0" d="M42.7,161.3c18.3,0,33.2,14.9,33.2,33.2S61,227.7,42.7,227.7
				S9.5,212.8,9.5,194.5S24.3,161.3,42.7,161.3"/>
		</g>
		<g id="g993">
			<g id="g995">
			</g>
			<g id="g1007">
				<g>
					<defs>
						<rect id="SVGID_17_" x="152.7" y="230.3" width="37.3" height="22.8"/>
					</defs>
					<clipPath id="SVGID_18_">
						<use xlink:href="#SVGID_17_"  style="overflow:visible;"/>
					</clipPath>
				</g>
			</g>
		</g>
		<g id="g1009">
			<g id="g1011">
			</g>
			<g id="g1023">
				<g>
					<defs>
						<rect id="SVGID_19_" x="152.7" y="251.6" width="37.3" height="22.8"/>
					</defs>
					<clipPath id="SVGID_20_">
						<use xlink:href="#SVGID_19_"  style="overflow:visible;"/>
					</clipPath>
				</g>
			</g>
		</g>
		<g id="g1025" transform="translate(72.1001,159.2998)">
			<path id="path1027" inkscape:connector-curvature="0" class="st4" d="M24-79.3l41.3,24.7"/>
		</g>
		<g id="g1029" transform="translate(93.7998,140.2002)">
			<path id="path1031" inkscape:connector-curvature="0" class="st6" d="M31.3-34.7c0-0.4,0.3-0.7,0.7-0.7l10.3-0.3l-4.5-9.1
				c-0.1-0.3,0-0.8,0.3-0.9c0.3-0.1,0.8,0,0.9,0.3l5.1,10c0.1,0.3,0.1,0.4,0,0.7c-0.1,0.1-0.3,0.3-0.5,0.3l-11.2,0.4
				c-0.1,0-0.3,0-0.4-0.1C31.4-34.3,31.3-34.5,31.3-34.7"/>
		</g>
		<g id="g1033" transform="translate(41.7998,154.8999)">
			<path id="path1035" inkscape:connector-curvature="0" class="st18" d="M13.9-69V57.9"/>
		</g>
		<g id="g1037" transform="translate(36.7998,66.8003)">
			<path id="path1039" inkscape:connector-curvature="0" class="st6" d="M12.3,136.5c0.3-0.1,0.8-0.1,0.9,0.3l5.6,8.8l5.6-8.9
				c0.3-0.3,0.7-0.4,0.9-0.3c0.3,0.3,0.4,0.7,0.3,0.9l-6.3,9.7c-0.3,0.3-0.7,0.4-0.9,0.3c-0.1,0-0.1-0.1-0.3-0.3l-6.3-9.7
				c-0.1-0.1-0.1-0.3-0.1-0.4C12,136.9,12.1,136.7,12.3,136.5"/>
		</g>
	</g>
</g>
</svg>
