<?xml version="1.0" encoding="utf-8"?>
<!-- Generator: Adobe Illustrator 22.1.0, SVG Export Plug-In . SVG Version: 6.00 Build 0)  -->
<svg version="1.1" id="レイヤー_1" xmlns="http://www.w3.org/2000/svg" xmlns:xlink="http://www.w3.org/1999/xlink" x="0px"
	 y="0px" viewBox="0 0 171.1 219.3" style="enable-background:new 0 0 171.1 219.3;" xml:space="preserve">
<style type="text/css">
	.st0{fill:#FFFFFF;stroke:#231815;stroke-width:0.99;stroke-miterlimit:10;}
	.st1{fill:none;stroke:#231815;stroke-width:0.99;stroke-miterlimit:10;stroke-dasharray:4.15;}
	.st2{fill:none;stroke:#231815;stroke-width:0.99;stroke-miterlimit:10;}
	.st3{fill:#FFFFFF;stroke:#231815;stroke-miterlimit:10;}
	.st4{fill:#231815;}
	.st5{font-family:'KozGoPr6N-Regular-83pv-RKSJ-H';}
	.st6{font-size:16px;}
	.st7{fill:#FFFFFF;stroke:#231815;stroke-width:0.71;stroke-miterlimit:10;}
	.st8{fill:#FFFFFF;stroke:#231815;stroke-width:0.61;stroke-miterlimit:10;}
	.st9{font-size:14px;}
	.st10{fill:#FFFFFF;stroke:#231815;stroke-width:0.61;stroke-miterlimit:10;stroke-dasharray:5;}
	.st11{fill:none;stroke:#231815;stroke-width:1.06;stroke-miterlimit:10;}
	.st12{fill:none;stroke:#231815;stroke-width:1.04;stroke-miterlimit:10;}
	.st13{fill:none;stroke:#231815;stroke-width:0.97;stroke-miterlimit:10;}
	.st14{fill:none;stroke:#231815;stroke-miterlimit:10;}
</style>
<title>アートボード 1</title>
<polygon class="st0" points="170.6,218.8 0.5,218.8 0.5,25.1 0.5,0.5 85.5,0.5 170.6,0.5 "/>
<line class="st1" x1="85.5" y1="218.8" x2="85.5" y2="0.5"/>
<line class="st2" x1="170.6" y1="26.7" x2="0.5" y2="26.7"/>
<path class="st3" d="M23.8,39.8h39.9c6.6,0,12,5.4,12,12v0.6c0,6.6-5.4,12-12,12H23.8c-6.6,0-12-5.4-12-12v-0.6
	C11.8,45.2,17.2,39.8,23.8,39.8z"/>
<text transform="matrix(1 0 0 1 37.54 18.53)" class="st4 st5 st6">夫</text>
<text transform="matrix(1 0 0 1 119.93 18.53)" class="st4 st5 st6">妻</text>
<text transform="matrix(1 0 0 1 27.8 57.41)" class="st4 st5 st6">収入</text>
<ellipse class="st7" cx="105" cy="111.8" rx="39.7" ry="31.2"/>
<text transform="matrix(1 0 0 1 81.72 108.81)" class="st4 st5 st6">共通の</text>
<text transform="matrix(1 0 0 1 89.72 128.81)" class="st4 st5 st6">財布</text>
<circle class="st8" cx="44" cy="188" r="24.9"/>
<text transform="matrix(1 0 0 1 30.54 185.02)" class="st4 st5 st9">夫の</text>
<text transform="matrix(1 0 0 1 30.54 201.02)" class="st4 st5 st9">財布</text>
<circle class="st10" cx="138" cy="188" r="24.9"/>
<text transform="matrix(1 0 0 1 124.54 185.02)" class="st4 st5 st9">妻の</text>
<text transform="matrix(1 0 0 1 124.54 201.02)" class="st4 st5 st9">財布</text>
<line class="st11" x1="61.8" y1="64.4" x2="82.4" y2="79.9"/>
<path class="st4" d="M73.5,79.6c0-0.3,0.3-0.5,0.6-0.5l8.1,0.6l-2.9-7.6c-0.1-0.3,0-0.6,0.3-0.7c0.3-0.1,0.6,0,0.7,0.3l3.2,8.4
	c0.1,0.3,0,0.6-0.3,0.7c-0.1,0-0.1,0-0.2,0l-9-0.7c-0.1,0-0.2,0-0.3-0.1C73.5,79.9,73.5,79.8,73.5,79.6z"/>
<line class="st12" x1="80.9" y1="136.2" x2="55.7" y2="163.6"/>
<path class="st4" d="M56.8,155c0.3,0.1,0.5,0.3,0.4,0.6l-1.4,7.9l7.7-2.1c0.3-0.1,0.6,0.1,0.6,0.4c0,0,0,0,0,0
	c0.1,0.3-0.1,0.6-0.4,0.6l-8.5,2.3c-0.2,0-0.3,0-0.5-0.1c-0.1-0.1-0.2-0.3-0.2-0.5l1.5-8.7c0-0.1,0.1-0.2,0.1-0.3
	C56.5,155,56.7,155,56.8,155z"/>
<path class="st3" d="M109.1,39.8H149c6.6,0,12,5.4,12,12v0.6c0,6.6-5.4,12-12,12h-39.9c-6.6,0-12-5.4-12-12v-0.6
	C97.1,45.2,102.4,39.8,109.1,39.8z"/>
<text transform="matrix(1 0 0 1 113.03 58.41)" class="st4 st5 st6">収入</text>
<line class="st13" x1="113" y1="66.1" x2="113" y2="80.5"/>
<path class="st4" d="M108.4,73.9c0.2-0.1,0.5-0.1,0.7,0.2l4,6.2l4-6.3c0.2-0.2,0.5-0.2,0.7-0.1c0.2,0.1,0.2,0.4,0.1,0.6l-4.4,6.9
	c-0.1,0.2-0.4,0.3-0.6,0.2c-0.1,0-0.1-0.1-0.2-0.2l-4.4-6.9c-0.1-0.1-0.1-0.2-0.1-0.3C108.2,74.1,108.3,74,108.4,73.9z"/>
<line class="st14" x1="148" y1="64.8" x2="148" y2="160.3"/>
<path class="st4" d="M143.2,153.5c0.2-0.1,0.5-0.1,0.7,0.2c0,0,0,0,0,0l4.1,6.4l4.1-6.4c0.1-0.2,0.5-0.3,0.7-0.2c0,0,0,0,0,0
	c0.2,0.2,0.3,0.5,0.1,0.7l-4.5,7.1c-0.1,0.1-0.2,0.2-0.4,0.2c-0.2,0-0.3-0.1-0.4-0.2l-4.6-7.1c0-0.1-0.1-0.2-0.1-0.3
	C142.9,153.7,143,153.6,143.2,153.5z"/>
</svg>
