<?xml version="1.0" encoding="utf-8"?>
<!-- Generator: Adobe Illustrator 22.1.0, SVG Export Plug-In . SVG Version: 6.00 Build 0)  -->
<svg version="1.1" id="レイヤー_1" xmlns="http://www.w3.org/2000/svg" xmlns:xlink="http://www.w3.org/1999/xlink" x="0px"
	 y="0px" viewBox="0 0 171.1 219.3" style="enable-background:new 0 0 171.1 219.3;" xml:space="preserve">
<style type="text/css">
	.st0{fill:#FFFFFF;stroke:#231815;stroke-width:0.99;stroke-miterlimit:10;}
	.st1{fill:none;stroke:#231815;stroke-width:0.99;stroke-miterlimit:10;stroke-dasharray:4.15;}
	.st2{fill:none;stroke:#231815;stroke-width:0.99;stroke-miterlimit:10;}
	.st3{fill:#FFFFFF;stroke:#231815;stroke-miterlimit:10;}
	.st4{fill:#231815;}
	.st5{font-family:'KozGoPr6N-Regular-83pv-RKSJ-H';}
	.st6{font-size:16px;}
	.st7{fill:#FFFFFF;stroke:#231815;stroke-width:0.71;stroke-miterlimit:10;}
	.st8{fill:#FFFFFF;stroke:#231815;stroke-width:0.61;stroke-miterlimit:10;}
	.st9{font-size:14px;}
	.st10{fill:none;stroke:#231815;stroke-width:1.06;stroke-miterlimit:10;}
	.st11{fill:none;stroke:#231815;stroke-width:1.03;stroke-miterlimit:10;}
	.st12{fill:none;stroke:#231815;stroke-width:0.97;stroke-miterlimit:10;}
	.st13{fill:none;stroke:#231815;stroke-miterlimit:10;}
</style>
<title>アートボード 1</title>
<polygon class="st0" points="170.6,218.8 0.5,218.8 0.5,25.1 0.5,0.5 85.5,0.5 170.6,0.5 "/>
<line class="st1" x1="85.5" y1="218.8" x2="85.5" y2="0.5"/>
<line class="st2" x1="170.6" y1="26.7" x2="0.5" y2="26.7"/>
<path class="st3" d="M23.8,39.8h39.9c6.6,0,12,5.4,12,12v0.6c0,6.6-5.4,12-12,12H23.8c-6.6,0-12-5.4-12-12v-0.6
	C11.8,45.2,17.2,39.8,23.8,39.8z"/>
<text transform="matrix(1 0 0 1 36.54 18.53)" class="st4 st5 st6">夫</text>
<text transform="matrix(1 0 0 1 119.93 18.53)" class="st4 st5 st6">妻</text>
<text transform="matrix(1 0 0 1 27.8 57.41)" class="st4 st5 st6">収入</text>
<ellipse class="st7" cx="128" cy="111.8" rx="39.7" ry="31.2"/>
<text transform="matrix(1 0 0 1 104.72 108.81)" class="st4 st5 st6">共通の</text>
<text transform="matrix(1 0 0 1 112.72 128.81)" class="st4 st5 st6">財布</text>
<circle class="st8" cx="43" cy="188" r="24.9"/>
<text transform="matrix(1 0 0 1 29.54 185.02)" class="st4 st5 st9">夫の</text>
<text transform="matrix(1 0 0 1 29.54 201.02)" class="st4 st5 st9">財布</text>
<circle class="st8" cx="128" cy="188" r="24.9"/>
<text transform="matrix(1 0 0 1 114.54 185.02)" class="st4 st5 st9">妻の</text>
<text transform="matrix(1 0 0 1 114.54 201.02)" class="st4 st5 st9">財布</text>
<line class="st10" x1="61.8" y1="64.4" x2="93" y2="87.8"/>
<path class="st4" d="M84.1,87.5c0-0.3,0.3-0.5,0.6-0.5l8.1,0.6L89.9,80c-0.1-0.3,0-0.6,0.3-0.7l0,0c0.3-0.1,0.6,0,0.7,0.3l3.2,8.4
	c0.1,0.2,0,0.4-0.1,0.5s-0.3,0.2-0.5,0.2l-9-0.7c-0.1,0-0.2,0-0.3-0.1C84.1,87.8,84.1,87.7,84.1,87.5z"/>
<line class="st11" x1="26.8" y1="64.4" x2="26.8" y2="159.6"/>
<path class="st4" d="M21.9,152.5c0.2-0.1,0.6-0.1,0.7,0.2l4.2,6.6l4.2-6.7c0.2-0.2,0.5-0.3,0.7-0.2c0.2,0.2,0.3,0.5,0.2,0.7
	l-4.7,7.3c-0.2,0.2-0.5,0.3-0.7,0.2c-0.1,0-0.1-0.1-0.2-0.2l-4.7-7.3c-0.1-0.1-0.1-0.2-0.1-0.3C21.6,152.8,21.7,152.6,21.9,152.5z"
	/>
<path class="st3" d="M109.1,39.8H149c6.6,0,12,5.4,12,12v0.6c0,6.6-5.4,12-12,12h-39.9c-6.6,0-12-5.4-12-12v-0.6
	C97.1,45.2,102.4,39.8,109.1,39.8z"/>
<text transform="matrix(1 0 0 1 113.03 58.41)" class="st4 st5 st6">収入</text>
<line class="st12" x1="127.9" y1="64.3" x2="127.9" y2="78.7"/>
<path class="st4" d="M123.3,72.1c0.2-0.1,0.5-0.1,0.7,0.1l0,0l4,6.2l4-6.2c0.1-0.2,0.4-0.3,0.6-0.2l0,0c0.2,0.1,0.3,0.4,0.2,0.7l0,0
	l-4.4,6.9c-0.1,0.1-0.2,0.2-0.4,0.2s-0.3-0.1-0.4-0.2l-4.4-6.9c0-0.1-0.1-0.2-0.1-0.3C123.1,72.4,123.2,72.2,123.3,72.1z"/>
<line class="st13" x1="127.9" y1="142.8" x2="127.9" y2="159.8"/>
<path class="st4" d="M123.1,153c0.2-0.1,0.5-0.1,0.7,0.1l4.1,6.4l4.1-6.4c0.1-0.2,0.4-0.3,0.7-0.2c0.2,0.1,0.3,0.4,0.2,0.7l0,0
	l-4.5,7.1c-0.1,0.2-0.4,0.3-0.7,0.2c-0.1,0-0.1-0.1-0.2-0.2l-4.5-7.1c-0.1-0.1-0.1-0.2-0.1-0.3S123,153.1,123.1,153z"/>
</svg>
