<?xml version="1.0" encoding="utf-8"?>
<!-- Generator: Adobe Illustrator 22.1.0, SVG Export Plug-In . SVG Version: 6.00 Build 0)  -->
<svg version="1.1" id="レイヤー_1" xmlns="http://www.w3.org/2000/svg" xmlns:xlink="http://www.w3.org/1999/xlink" x="0px"
	 y="0px" viewBox="0 0 171.1 219.3" style="enable-background:new 0 0 171.1 219.3;" xml:space="preserve">
<style type="text/css">
	.st0{fill:#FFFFFF;stroke:#231815;stroke-width:0.99;stroke-miterlimit:10;}
	.st1{fill:none;stroke:#231815;stroke-width:0.99;stroke-miterlimit:10;stroke-dasharray:4.15;}
	.st2{fill:none;stroke:#231815;stroke-width:0.99;stroke-miterlimit:10;}
	.st3{fill:#FFFFFF;stroke:#231815;stroke-miterlimit:10;}
	.st4{fill:#231815;}
	.st5{font-family:'KozGoPr6N-Regular-83pv-RKSJ-H';}
	.st6{font-size:16px;}
	.st7{fill:#FFFFFF;stroke:#231815;stroke-width:0.71;stroke-miterlimit:10;}
	.st8{fill:#FFFFFF;stroke:#231815;stroke-width:0.61;stroke-miterlimit:10;}
	.st9{font-size:14px;}
	.st10{fill:none;stroke:#231815;stroke-width:0.96;stroke-miterlimit:10;}
	.st11{fill:none;stroke:#231815;stroke-width:1.01;stroke-miterlimit:10;}
</style>
<title>アートボード 1</title>
<polygon class="st0" points="170.6,218.8 0.5,218.8 0.5,25.1 0.5,0.5 85.5,0.5 170.6,0.5 "/>
<line class="st1" x1="85.5" y1="218.8" x2="85.5" y2="0.5"/>
<line class="st2" x1="170.6" y1="26.7" x2="0.5" y2="26.7"/>
<path class="st3" d="M23.8,39.8h39.9c6.6,0,12,5.4,12,12v0.6c0,6.6-5.4,12-12,12H23.8c-6.6,0-12-5.4-12-12v-0.6
	C11.8,45.2,17.2,39.8,23.8,39.8z"/>
<text transform="matrix(1 0 0 1 36.54 18.53)" class="st4 st5 st6">夫</text>
<text transform="matrix(1 0 0 1 119.93 18.53)" class="st4 st5 st6">妻</text>
<text transform="matrix(1 0 0 1 27.8 57.41)" class="st4 st5 st6">収入</text>
<path class="st3" d="M108.8,39.8h39.9c6.6,0,12,5.4,12,12v0.6c0,6.6-5.4,12-12,12h-39.9c-6.6,0-12-5.4-12-12v-0.6
	C96.8,45.2,102.2,39.8,108.8,39.8z"/>
<text transform="matrix(1 0 0 1 112.78 57.41)" class="st4 st5 st6">収入</text>
<ellipse class="st7" cx="103.1" cy="106.8" rx="39.7" ry="31.2"/>
<text transform="matrix(1 0 0 1 81.12 103.81)" class="st4 st5 st6">共通の</text>
<text transform="matrix(1 0 0 1 89.12 123.81)" class="st4 st5 st6">財布</text>
<circle class="st8" cx="43" cy="188" r="24.9"/>
<text transform="matrix(1 0 0 1 29.54 185.02)" class="st4 st5 st9">夫の</text>
<text transform="matrix(1 0 0 1 29.54 201.02)" class="st4 st5 st9">財布</text>
<circle class="st8" cx="138" cy="188" r="24.9"/>
<text transform="matrix(1 0 0 1 124.54 185.02)" class="st4 st5 st9">妻の</text>
<text transform="matrix(1 0 0 1 124.54 201.02)" class="st4 st5 st9">財布</text>
<line class="st10" x1="61.8" y1="64.4" x2="84.5" y2="77.5"/>
<path class="st4" d="M76.6,78.2c0-0.3,0.2-0.5,0.5-0.5c0,0,0,0,0,0l7.3-0.3l-3.4-6.5c-0.1-0.2,0-0.5,0.2-0.6c0.2-0.1,0.5,0,0.6,0.2
	l3.8,7.2c0.1,0.1,0.1,0.3,0,0.5c-0.1,0.1-0.2,0.2-0.4,0.2l-8.1,0.4c-0.1,0-0.2,0-0.3-0.1C76.7,78.5,76.6,78.4,76.6,78.2z"/>
<line class="st11" x1="145.8" y1="64.4" x2="145.8" y2="161"/>
<path class="st4" d="M140.9,154.1c0.2-0.2,0.6-0.1,0.7,0.1l4.2,6.6l4.2-6.6c0.2-0.2,0.5-0.2,0.7-0.1c0.2,0.2,0.2,0.4,0.1,0.6
	l-4.6,7.2c-0.2,0.2-0.5,0.3-0.7,0.1c-0.1,0-0.1-0.1-0.1-0.1l-4.6-7.2c-0.1-0.1-0.1-0.2-0.1-0.3C140.7,154.3,140.8,154.2,140.9,154.1
	z"/>
<line class="st11" x1="31.7" y1="64.4" x2="31.7" y2="161"/>
<path class="st4" d="M26.8,154.1c0.2-0.1,0.5-0.1,0.7,0.1l4.2,6.6l4.2-6.6c0.2-0.2,0.5-0.3,0.7-0.1c0.2,0.1,0.3,0.5,0.2,0.7
	c0,0,0,0,0,0l-4.6,7.2c-0.2,0.2-0.5,0.3-0.7,0.1c-0.1,0-0.1-0.1-0.1-0.1l-4.6-7.2c-0.1-0.1-0.1-0.2-0.1-0.3
	C26.6,154.3,26.7,154.2,26.8,154.1z"/>
</svg>
