<svg id="レイヤー_1" data-name="レイヤー 1" xmlns="http://www.w3.org/2000/svg" viewBox="0 0 171.07 219.26"><defs><style>.cls-1,.cls-2,.cls-3,.cls-5{fill:#fff;}.cls-1,.cls-2,.cls-3,.cls-5,.cls-7{stroke:#231815;stroke-miterlimit:10;}.cls-1,.cls-2{stroke-width:0.99px;}.cls-2{stroke-dasharray:4.15;}.cls-4{font-size:16px;}.cls-4,.cls-6,.cls-8{fill:#231815;}.cls-4,.cls-6{font-family:KozGoPr6N-Regular-83pv-RKSJ-H, Kozuka Gothic Pr6N;}.cls-5{stroke-width:0.61px;}.cls-6{font-size:14px;}.cls-7{fill:none;stroke-width:1.01px;}</style></defs><title>アートボード 1</title><polygon class="cls-1" points="170.57 218.76 0.5 218.76 0.5 25.11 0.5 0.5 85.54 0.5 170.57 0.5 170.57 218.76"/><line class="cls-2" x1="85.54" y1="218.76" x2="85.54" y2="0.5"/><line class="cls-1" x1="170.58" y1="26.75" x2="0.5" y2="26.75"/><rect class="cls-3" x="11.83" y="39.84" width="63.93" height="24.59" rx="12" ry="12"/><text class="cls-4" transform="translate(35.54 18.53)">夫</text><text class="cls-4" transform="translate(119.93 18.53)">妻</text><text class="cls-4" transform="translate(27.8 57.41)">収入</text><rect class="cls-3" x="96.81" y="39.84" width="63.93" height="24.59" rx="12" ry="12"/><text class="cls-4" transform="translate(112.78 57.41)">収入</text><circle class="cls-5" cx="45.03" cy="188.02" r="24.91"/><text class="cls-6" transform="translate(31.54 185.02)">夫の<tspan x="0" y="16">財布</tspan></text><circle class="cls-5" cx="130.03" cy="188.02" r="24.91"/><text class="cls-6" transform="translate(116.54 185.02)">妻の<tspan x="0" y="16">財布</tspan></text><line class="cls-7" x1="128.81" y1="64.43" x2="128.81" y2="161.03"/><path class="cls-8" d="M123.93,154.1a.52.52,0,0,1,.71.15l4.17,6.55,4.17-6.55a.51.51,0,0,1,.85.55l-4.6,7.22a.51.51,0,0,1-.85,0l-4.6-7.22a.57.57,0,0,1-.08-.28A.49.49,0,0,1,123.93,154.1Z"/><line class="cls-7" x1="44.66" y1="64.43" x2="44.66" y2="161.03"/><path class="cls-8" d="M39.79,154.1a.51.51,0,0,1,.7.15l4.17,6.55,4.17-6.55a.51.51,0,0,1,.7-.15.5.5,0,0,1,.16.7L45.09,162a.51.51,0,0,1-.85,0l-4.6-7.22a.48.48,0,0,1-.08-.28A.49.49,0,0,1,39.79,154.1Z"/></svg>