<?xml version="1.0" encoding="utf-8"?>
<!-- Generator: Adobe Illustrator 22.1.0, SVG Export Plug-In . SVG Version: 6.00 Build 0)  -->
<svg version="1.1" id="レイヤー_1" xmlns="http://www.w3.org/2000/svg" xmlns:xlink="http://www.w3.org/1999/xlink" x="0px"
	 y="0px" viewBox="0 0 171.1 219.3" style="enable-background:new 0 0 171.1 219.3;" xml:space="preserve">
<style type="text/css">
	.st0{fill:#FFFFFF;stroke:#231815;stroke-width:0.99;stroke-miterlimit:10;}
	.st1{fill:none;stroke:#231815;stroke-width:0.99;stroke-miterlimit:10;stroke-dasharray:4.15;}
	.st2{fill:none;stroke:#231815;stroke-width:0.99;stroke-miterlimit:10;}
	.st3{fill:#FFFFFF;stroke:#231815;stroke-miterlimit:10;}
	.st4{fill:#231815;}
	.st5{font-family:'KozGoPr6N-Regular-83pv-RKSJ-H';}
	.st6{font-size:16px;}
	.st7{fill:#FFFFFF;stroke:#231815;stroke-width:0.71;stroke-miterlimit:10;}
	.st8{fill:#FFFFFF;stroke:#231815;stroke-width:0.61;stroke-miterlimit:10;}
	.st9{font-size:14px;}
	.st10{fill:none;stroke:#231815;stroke-width:1.06;stroke-miterlimit:10;}
	.st11{fill:none;stroke:#231815;stroke-width:1.03;stroke-miterlimit:10;}
	.st12{fill:none;stroke:#231815;stroke-width:1.03;stroke-miterlimit:10;stroke-dasharray:2.12,5.3,2.12,2.12;}
	.st13{fill:none;stroke:#231815;stroke-width:1.03;stroke-miterlimit:10;stroke-dasharray:5.3,2.12,2.12,5.3,2.12,2.12;}
	.st14{fill:none;stroke:#231815;stroke-width:0.98;stroke-miterlimit:10;}
</style>
<title>アートボード 1</title>
<polygon class="st0" points="170.6,218.8 0.5,218.8 0.5,25.1 0.5,0.5 85.5,0.5 170.6,0.5 "/>
<line class="st1" x1="85.5" y1="218.8" x2="85.5" y2="0.5"/>
<line class="st2" x1="170.6" y1="26.7" x2="0.5" y2="26.7"/>
<path class="st3" d="M23.8,39.8h39.9c6.6,0,12,5.4,12,12v0.6c0,6.6-5.4,12-12,12H23.8c-6.6,0-12-5.4-12-12v-0.6
	C11.8,45.2,17.2,39.8,23.8,39.8z"/>
<text transform="matrix(1 0 0 1 36.54 18.53)" class="st4 st5 st6">夫</text>
<text transform="matrix(1 0 0 1 119.93 18.53)" class="st4 st5 st6">妻</text>
<text transform="matrix(1 0 0 1 27.8 57.41)" class="st4 st5 st6">収入</text>
<ellipse class="st7" cx="83.4" cy="112.6" rx="39.7" ry="31.2"/>
<text transform="matrix(1 0 0 1 60.1 109.62)" class="st4 st5 st6">共通の</text>
<text transform="matrix(1 0 0 1 68.1 129.62)" class="st4 st5 st6">財布</text>
<circle class="st8" cx="43" cy="188" r="24.9"/>
<text transform="matrix(1 0 0 1 29.54 185.02)" class="st4 st5 st9">夫の</text>
<text transform="matrix(1 0 0 1 29.54 201.02)" class="st4 st5 st9">財布</text>
<line class="st10" x1="61.8" y1="64.4" x2="66.8" y2="79.7"/>
<path class="st4" d="M59.7,74.4c0.2-0.2,0.5-0.3,0.7-0.1c0,0,0,0,0,0l6.3,5.1l2-7.9c0.1-0.3,0.3-0.5,0.6-0.4c0,0,0,0,0,0
	c0.3,0.1,0.4,0.4,0.4,0.6l-2.2,8.7c0,0.2-0.2,0.3-0.3,0.4c-0.2,0.1-0.4,0-0.5-0.1l-6.9-5.6c-0.1-0.1-0.1-0.2-0.2-0.2
	C59.6,74.7,59.6,74.5,59.7,74.4z"/>
<line class="st11" x1="31.3" y1="64.4" x2="31.3" y2="66.9"/>
<line class="st12" x1="31.3" y1="69" x2="31.3" y2="79.7"/>
<line class="st13" x1="31.3" y1="80.7" x2="31.3" y2="156"/>
<line class="st11" x1="31.3" y1="157.1" x2="31.3" y2="159.6"/>
<path class="st4" d="M26.4,152.5c0.2-0.1,0.6-0.1,0.7,0.2l4.2,6.6l4.2-6.6c0.2-0.2,0.5-0.3,0.7-0.2c0.2,0.2,0.3,0.5,0.2,0.7l0,0
	l-4.7,7.3c-0.2,0.2-0.5,0.3-0.7,0.2c-0.1,0-0.1-0.1-0.2-0.2l-4.7-7.3c-0.1-0.1-0.1-0.2-0.1-0.3C26.1,152.8,26.2,152.6,26.4,152.5z"
	/>
<line class="st14" x1="65.9" y1="140.8" x2="54.9" y2="160.9"/>
<path class="st4" d="M54,152.8c0.3,0,0.5,0.2,0.5,0.4c0,0,0,0,0,0l0.5,7.5l6.6-3.6c0.2-0.1,0.5-0.1,0.7,0.2c0,0,0,0,0,0
	c0.1,0.2,0.1,0.5-0.2,0.7c0,0,0,0-0.1,0l-7.2,4c-0.1,0.1-0.3,0.1-0.5,0c-0.1-0.1-0.2-0.2-0.2-0.4l-0.5-8.2
	C53.5,153.1,53.7,152.9,54,152.8C54,152.8,54,152.8,54,152.8L54,152.8z"/>
<path class="st3" d="M109.1,39.8H149c6.6,0,12,5.4,12,12v0.6c0,6.6-5.4,12-12,12h-39.9c-6.6,0-12-5.4-12-12v-0.6
	C97.1,45.2,102.4,39.8,109.1,39.8z"/>
<text transform="matrix(1 0 0 1 113.03 58.41)" class="st4 st5 st6">収入</text>
<line class="st11" x1="116.3" y1="64.4" x2="103.1" y2="81.6"/>
<path class="st4" d="M103.4,73c0.3,0,0.5,0.3,0.5,0.6l-0.7,7.9l7.4-2.7c0.3-0.1,0.6,0,0.7,0.3c0,0,0,0,0,0c0.1,0.3,0,0.6-0.3,0.7
	c0,0,0,0,0,0l-8.2,3c-0.2,0.1-0.4,0-0.5-0.1c-0.1-0.1-0.2-0.3-0.2-0.4l0.8-8.7C102.9,73.2,103.2,73,103.4,73L103.4,73z"/>
</svg>
