<?xml version="1.0" encoding="utf-8"?>
<!-- Generator: Adobe Illustrator 22.1.0, SVG Export Plug-In . SVG Version: 6.00 Build 0)  -->
<svg version="1.1" id="レイヤー_1" xmlns="http://www.w3.org/2000/svg" xmlns:xlink="http://www.w3.org/1999/xlink" x="0px"
	 y="0px" viewBox="0 0 171.1 219.3" style="enable-background:new 0 0 171.1 219.3;" xml:space="preserve">
<style type="text/css">
	.st0{fill:#FFFFFF;stroke:#231815;stroke-width:0.99;stroke-miterlimit:10;}
	.st1{fill:none;stroke:#231815;stroke-width:0.99;stroke-miterlimit:10;stroke-dasharray:4.15;}
	.st2{fill:none;stroke:#231815;stroke-width:0.99;stroke-miterlimit:10;}
	.st3{fill:#231815;}
	.st4{font-family:'KozGoPr6N-Regular-83pv-RKSJ-H';}
	.st5{font-size:16px;}
	.st6{fill:#FFFFFF;stroke:#231815;stroke-width:0.71;stroke-miterlimit:10;}
	.st7{fill:#FFFFFF;stroke:#231815;stroke-width:0.61;stroke-miterlimit:10;}
	.st8{font-size:14px;}
</style>
<title>アートボード 1</title>
<polygon class="st0" points="170.6,218.8 0.5,218.8 0.5,25.1 0.5,0.5 85.5,0.5 170.6,0.5 "/>
<line class="st1" x1="85.5" y1="218.8" x2="85.5" y2="0.5"/>
<line class="st2" x1="170.6" y1="26.7" x2="0.5" y2="26.7"/>
<text transform="matrix(1 0 0 1 36.54 18.53)" class="st3 st4 st5">夫</text>
<text transform="matrix(1 0 0 1 119.93 18.53)" class="st3 st4 st5">妻</text>
<ellipse class="st6" cx="87" cy="111.8" rx="39.7" ry="31.2"/>
<text transform="matrix(1 0 0 1 63.72 108.81)" class="st3 st4 st5">共通の</text>
<text transform="matrix(1 0 0 1 71.72 128.81)" class="st3 st4 st5">財布</text>
<circle class="st7" cx="43" cy="188" r="24.9"/>
<text transform="matrix(1 0 0 1 29.54 185.02)" class="st3 st4 st8">夫の</text>
<text transform="matrix(1 0 0 1 29.54 201.02)" class="st3 st4 st8">財布</text>
<circle class="st7" cx="128" cy="188" r="24.9"/>
<text transform="matrix(1 0 0 1 114.54 185.02)" class="st3 st4 st8">妻の</text>
<text transform="matrix(1 0 0 1 114.54 201.02)" class="st3 st4 st8">財布</text>
</svg>
