<?xml version="1.0" encoding="UTF-8" standalone="no"?>
<!DOCTYPE svg PUBLIC "-//W3C//DTD SVG 1.1//EN"
 "http://www.w3.org/Graphics/SVG/1.1/DTD/svg11.dtd">
<!-- Generated by graphviz version 2.40.1 (20161225.0304)
 -->
<!-- Title: risyokuhsyu Pages: 1 -->
<svg width="712pt" height="968pt"
 viewBox="0.00 0.00 712.00 968.00" xmlns="http://www.w3.org/2000/svg" xmlns:xlink="http://www.w3.org/1999/xlink">
<g id="graph0" class="graph" transform="scale(1 1) rotate(0) translate(4 964)">
<title>risyokuhsyu</title>
<polygon fill="#ffffff" stroke="transparent" points="-4,4 -4,-964 708,-964 708,4 -4,4"/>
<g id="clust1" class="cluster">
<title>cluster_0</title>
<polygon fill="#ccdfff" stroke="#ccdfff" points="8,-8 8,-952 208,-952 208,-8 8,-8"/>
<text text-anchor="middle" x="108" y="-935.2" font-family="Times,serif" font-size="16.00" fill="#000000">第2～第10回</text>
</g>
<g id="clust2" class="cluster">
<title>cluster_1</title>
<polygon fill="#edf4ff" stroke="#edf4ff" points="216,-8 216,-952 380,-952 380,-8 216,-8"/>
<text text-anchor="middle" x="298" y="-935.2" font-family="Times,serif" font-size="16.00" fill="#000000">第11回</text>
</g>
<g id="clust3" class="cluster">
<title>cluster_2</title>
<polygon fill="#ccdfff" stroke="#ccdfff" points="388,-8 388,-952 548,-952 548,-8 388,-8"/>
<text text-anchor="middle" x="468" y="-935.2" font-family="Times,serif" font-size="16.00" fill="#000000">第12～第20回</text>
</g>
<g id="clust4" class="cluster">
<title>cluster_3</title>
<polygon fill="#edf4ff" stroke="#edf4ff" points="556,-8 556,-952 696,-952 696,-8 556,-8"/>
<text text-anchor="middle" x="626" y="-935.2" font-family="Times,serif" font-size="16.00" fill="#000000">第21回～</text>
</g>
<!-- a1 -->
<g id="node1" class="node">
<title>a1</title>
<g id="a_node1"><a xlink:href="../../variable/Q247A.html" xlink:title="人員整理・会社解散・倒産のため \n Q247A" target="_blank">
<polygon fill="#ffffff" stroke="#ffffff" points="200,-918 16,-918 16,-882 200,-882 200,-918"/>
<text text-anchor="middle" x="108" y="-903.4" font-family="meiryo UI" font-size="12.00" fill="#000000">人員整理・会社解散・倒産のため </text>
<text text-anchor="middle" x="108" y="-890.4" font-family="meiryo UI" font-size="12.00" fill="#000000"> Q247A</text>
</a>
</g>
</g>
<!-- a2 -->
<g id="node2" class="node">
<title>a2</title>
<g id="a_node2"><a xlink:href="../../variable/Q247A.html" xlink:title="一時的・不安定な仕事 \n だったから \n Q247B" target="_blank">
<polygon fill="#ffffff" stroke="#ffffff" points="200,-874 56,-874 56,-835 200,-835 200,-874"/>
<text text-anchor="middle" x="128" y="-864.4" font-family="meiryo UI" font-size="12.00" fill="#000000">一時的・不安定な仕事 </text>
<text text-anchor="middle" x="128" y="-851.4" font-family="meiryo UI" font-size="12.00" fill="#000000"> だったから </text>
<text text-anchor="middle" x="128" y="-838.4" font-family="meiryo UI" font-size="12.00" fill="#000000"> Q247B</text>
</a>
</g>
</g>
<!-- a1&#45;&gt;a2 -->
<!-- b1 -->
<g id="node21" class="node">
<title>b1</title>
<polygon fill="transparent" stroke="transparent" points="334,-918 262,-918 262,-882 334,-882 334,-918"/>
<text text-anchor="middle" x="298" y="-896.9" font-family="meiryo UI" font-size="12.00" fill="#000000">変更なし</text>
</g>
<!-- a1&#45;&gt;b1 -->
<g id="edge77" class="edge">
<title>a1&#45;&gt;b1</title>
<path fill="none" stroke="#000000" d="M200.0313,-900C217.1995,-900 234.3678,-900 251.536,-900"/>
<polygon fill="#000000" stroke="#000000" points="251.6444,-903.5001 261.6444,-900 251.6444,-896.5001 251.6444,-903.5001"/>
</g>
<!-- a3 -->
<g id="node3" class="node">
<title>a3</title>
<g id="a_node3"><a xlink:href="../../variable/Q247C.html" xlink:title="収入が少なかったから \n Q247C" target="_blank">
<polygon fill="#ffffff" stroke="#ffffff" points="200,-825.5 56,-825.5 56,-789.5 200,-789.5 200,-825.5"/>
<text text-anchor="middle" x="128" y="-810.9" font-family="meiryo UI" font-size="12.00" fill="#000000">収入が少なかったから </text>
<text text-anchor="middle" x="128" y="-797.9" font-family="meiryo UI" font-size="12.00" fill="#000000"> Q247C</text>
</a>
</g>
</g>
<!-- a2&#45;&gt;a3 -->
<!-- b2 -->
<g id="node22" class="node">
<title>b2</title>
<polygon fill="transparent" stroke="transparent" points="334,-872.5 262,-872.5 262,-836.5 334,-836.5 334,-872.5"/>
<text text-anchor="middle" x="298" y="-851.4" font-family="meiryo UI" font-size="12.00" fill="#000000">変更なし</text>
</g>
<!-- a2&#45;&gt;b2 -->
<g id="edge80" class="edge">
<title>a2&#45;&gt;b2</title>
<path fill="none" stroke="#000000" d="M200.0508,-854.5C217.2156,-854.5 234.3804,-854.5 251.5453,-854.5"/>
<polygon fill="#000000" stroke="#000000" points="251.6517,-858.0001 261.6517,-854.5 251.6516,-851.0001 251.6517,-858.0001"/>
</g>
<!-- a4 -->
<g id="node4" class="node">
<title>a4</title>
<g id="a_node4"><a xlink:href="../../variable/Q247D.html" xlink:title="労働条件が悪かったから \n Q247D" target="_blank">
<polygon fill="#ffffff" stroke="#ffffff" points="200,-780 56,-780 56,-744 200,-744 200,-780"/>
<text text-anchor="middle" x="128" y="-765.4" font-family="meiryo UI" font-size="12.00" fill="#000000">労働条件が悪かったから </text>
<text text-anchor="middle" x="128" y="-752.4" font-family="meiryo UI" font-size="12.00" fill="#000000"> Q247D</text>
</a>
</g>
</g>
<!-- a3&#45;&gt;a4 -->
<!-- b3 -->
<g id="node23" class="node">
<title>b3</title>
<g id="a_node23"><a xlink:href="../../variable/Q247R.html" xlink:title="労働条件（時間、収入）が \n悪かったから \n Q247R" target="_blank">
<polygon fill="#ffffff" stroke="#ffffff" points="372,-827 224,-827 224,-788 372,-788 372,-827"/>
<text text-anchor="middle" x="298" y="-817.4" font-family="meiryo UI" font-size="12.00" fill="#000000">労働条件（時間、収入）が </text>
<text text-anchor="middle" x="298" y="-804.4" font-family="meiryo UI" font-size="12.00" fill="#000000">悪かったから </text>
<text text-anchor="middle" x="298" y="-791.4" font-family="meiryo UI" font-size="12.00" fill="#000000"> Q247R</text>
</a>
</g>
</g>
<!-- a3&#45;&gt;b3 -->
<g id="edge83" class="edge">
<title>a3&#45;&gt;b3</title>
<path fill="none" stroke="#000000" d="M200.0508,-807.5C204.6222,-807.5 209.1937,-807.5 213.7651,-807.5"/>
<polygon fill="#000000" stroke="#000000" points="213.7729,-811.0001 223.7729,-807.5 213.7728,-804.0001 213.7729,-811.0001"/>
</g>
<!-- a5 -->
<g id="node5" class="node">
<title>a5</title>
<g id="a_node5"><a xlink:href="../../variable/Q247E.html" xlink:title="自分に向かない仕事 \n だったから \n Q247E" target="_blank">
<polygon fill="#ffffff" stroke="#ffffff" points="200,-736 56,-736 56,-697 200,-697 200,-736"/>
<text text-anchor="middle" x="128" y="-726.4" font-family="meiryo UI" font-size="12.00" fill="#000000">自分に向かない仕事 </text>
<text text-anchor="middle" x="128" y="-713.4" font-family="meiryo UI" font-size="12.00" fill="#000000"> だったから </text>
<text text-anchor="middle" x="128" y="-700.4" font-family="meiryo UI" font-size="12.00" fill="#000000"> Q247E</text>
</a>
</g>
</g>
<!-- a4&#45;&gt;a5 -->
<!-- a4&#45;&gt;b3 -->
<g id="edge86" class="edge">
<title>a4&#45;&gt;b3</title>
<path fill="none" stroke="#000000" d="M195.3792,-780.0339C201.8995,-781.779 208.5645,-783.5629 215.2114,-785.3419"/>
<polygon fill="#000000" stroke="#000000" points="214.3532,-788.7353 224.9181,-787.9398 216.1631,-781.9733 214.3532,-788.7353"/>
</g>
<!-- a6 -->
<g id="node6" class="node">
<title>a6</title>
<g id="a_node6"><a xlink:href="../../variable/Q247N.html" xlink:title="単調な仕事で \n むなしいと思ったから \n Q247F" target="_blank">
<polygon fill="#ffffff" stroke="#ffffff" points="200,-689 56,-689 56,-650 200,-650 200,-689"/>
<text text-anchor="middle" x="128" y="-679.4" font-family="meiryo UI" font-size="12.00" fill="#000000">単調な仕事で </text>
<text text-anchor="middle" x="128" y="-666.4" font-family="meiryo UI" font-size="12.00" fill="#000000"> むなしいと思ったから </text>
<text text-anchor="middle" x="128" y="-653.4" font-family="meiryo UI" font-size="12.00" fill="#000000"> Q247F</text>
</a>
</g>
</g>
<!-- a5&#45;&gt;a6 -->
<!-- b5 -->
<g id="node25" class="node">
<title>b5</title>
<g id="a_node25"><a xlink:href="../../variable/Q247S.html" xlink:title="仕事の内容に \n 不満があったため \n Q247S" target="_blank">
<polygon fill="#ffffff" stroke="#ffffff" points="370,-736 226,-736 226,-697 370,-697 370,-736"/>
<text text-anchor="middle" x="298" y="-726.4" font-family="meiryo UI" font-size="12.00" fill="#000000">仕事の内容に </text>
<text text-anchor="middle" x="298" y="-713.4" font-family="meiryo UI" font-size="12.00" fill="#000000"> 不満があったため </text>
<text text-anchor="middle" x="298" y="-700.4" font-family="meiryo UI" font-size="12.00" fill="#000000"> Q247S</text>
</a>
</g>
</g>
<!-- a5&#45;&gt;b5 -->
<g id="edge87" class="edge">
<title>a5&#45;&gt;b5</title>
<path fill="none" stroke="#000000" d="M200.0508,-716.5C205.2579,-716.5 210.4651,-716.5 215.6722,-716.5"/>
<polygon fill="#000000" stroke="#000000" points="215.686,-720.0001 225.6859,-716.5 215.6859,-713.0001 215.686,-720.0001"/>
</g>
<!-- a7 -->
<g id="node7" class="node">
<title>a7</title>
<g id="a_node7"><a xlink:href="../../variable/Q247G.html" xlink:title="家族の就職・転職・転勤 \n 及び事業所の移転のため \n Q247G" target="_blank">
<polygon fill="#ffffff" stroke="#ffffff" points="200,-642 56,-642 56,-603 200,-603 200,-642"/>
<text text-anchor="middle" x="128" y="-632.4" font-family="meiryo UI" font-size="12.00" fill="#000000">家族の就職・転職・転勤 </text>
<text text-anchor="middle" x="128" y="-619.4" font-family="meiryo UI" font-size="12.00" fill="#000000"> 及び事業所の移転のため </text>
<text text-anchor="middle" x="128" y="-606.4" font-family="meiryo UI" font-size="12.00" fill="#000000"> Q247G</text>
</a>
</g>
</g>
<!-- a6&#45;&gt;a7 -->
<!-- a8 -->
<g id="node8" class="node">
<title>a8</title>
<g id="a_node8"><a xlink:href="../../variable/Q247H.html" xlink:title="結婚のため \n Q247H" target="_blank">
<polygon fill="#ffffff" stroke="#ffffff" points="200,-595 56,-595 56,-559 200,-559 200,-595"/>
<text text-anchor="middle" x="128" y="-580.4" font-family="meiryo UI" font-size="12.00" fill="#000000">結婚のため </text>
<text text-anchor="middle" x="128" y="-567.4" font-family="meiryo UI" font-size="12.00" fill="#000000"> Q247H</text>
</a>
</g>
</g>
<!-- a7&#45;&gt;a8 -->
<!-- b7 -->
<g id="node27" class="node">
<title>b7</title>
<polygon fill="transparent" stroke="transparent" points="334,-640.5 262,-640.5 262,-604.5 334,-604.5 334,-640.5"/>
<text text-anchor="middle" x="298" y="-619.4" font-family="meiryo UI" font-size="12.00" fill="#000000">変更なし</text>
</g>
<!-- a7&#45;&gt;b7 -->
<g id="edge90" class="edge">
<title>a7&#45;&gt;b7</title>
<path fill="none" stroke="#000000" d="M200.0508,-622.5C217.2156,-622.5 234.3804,-622.5 251.5453,-622.5"/>
<polygon fill="#000000" stroke="#000000" points="251.6517,-626.0001 261.6517,-622.5 251.6516,-619.0001 251.6517,-626.0001"/>
</g>
<!-- a9 -->
<!-- a8&#45;&gt;a9 -->
<!-- b8 -->
<g id="node28" class="node">
<title>b8</title>
<polygon fill="transparent" stroke="transparent" points="334,-595 262,-595 262,-559 334,-559 334,-595"/>
<text text-anchor="middle" x="298" y="-573.9" font-family="meiryo UI" font-size="12.00" fill="#000000">変更なし</text>
</g>
<!-- a8&#45;&gt;b8 -->
<g id="edge93" class="edge">
<title>a8&#45;&gt;b8</title>
<path fill="none" stroke="#000000" d="M200.0508,-577C217.2156,-577 234.3804,-577 251.5453,-577"/>
<polygon fill="#000000" stroke="#000000" points="251.6517,-580.5001 261.6517,-577 251.6516,-573.5001 251.6517,-580.5001"/>
</g>
<!-- a10 -->
<!-- a9&#45;&gt;a10 -->
<!-- a11 -->
<g id="node11" class="node">
<title>a11</title>
<g id="a_node11"><a xlink:href="../../variable/Q247I.html" xlink:title="自分が病気になったから \n Q247I" target="_blank">
<polygon fill="#ffffff" stroke="#ffffff" points="200,-463 56,-463 56,-427 200,-427 200,-463"/>
<text text-anchor="middle" x="128" y="-448.4" font-family="meiryo UI" font-size="12.00" fill="#000000">自分が病気になったから </text>
<text text-anchor="middle" x="128" y="-435.4" font-family="meiryo UI" font-size="12.00" fill="#000000"> Q247I</text>
</a>
</g>
</g>
<!-- a10&#45;&gt;a11 -->
<!-- a12 -->
<g id="node12" class="node">
<title>a12</title>
<g id="a_node12"><a xlink:href="../../variable/Q247J.html" xlink:title="家族の介護のため \n Q247J" target="_blank">
<polygon fill="#ffffff" stroke="#ffffff" points="200,-419 56,-419 56,-383 200,-383 200,-419"/>
<text text-anchor="middle" x="128" y="-404.4" font-family="meiryo UI" font-size="12.00" fill="#000000">家族の介護のため </text>
<text text-anchor="middle" x="128" y="-391.4" font-family="meiryo UI" font-size="12.00" fill="#000000"> Q247J</text>
</a>
</g>
</g>
<!-- a11&#45;&gt;a12 -->
<!-- b11 -->
<g id="node31" class="node">
<title>b11</title>
<polygon fill="transparent" stroke="transparent" points="333,-463 261,-463 261,-427 333,-427 333,-463"/>
<text text-anchor="middle" x="297" y="-441.9" font-family="meiryo UI" font-size="12.00" fill="#000000">変更なし</text>
</g>
<!-- a11&#45;&gt;b11 -->
<g id="edge99" class="edge">
<title>a11&#45;&gt;b11</title>
<path fill="none" stroke="#000000" d="M200.2871,-445C216.9726,-445 233.6581,-445 250.3436,-445"/>
<polygon fill="#000000" stroke="#000000" points="250.7327,-448.5001 260.7327,-445 250.7326,-441.5001 250.7327,-448.5001"/>
</g>
<!-- a13 -->
<g id="node13" class="node">
<title>a13</title>
<g id="a_node13"><a xlink:href="../../variable/Q247K.html" xlink:title="能力が生かせない仕事 \n だったから \n Q247K" target="_blank">
<polygon fill="#ffffff" stroke="#ffffff" points="196,-375 52,-375 52,-336 196,-336 196,-375"/>
<text text-anchor="middle" x="124" y="-365.4" font-family="meiryo UI" font-size="12.00" fill="#000000">能力が生かせない仕事 </text>
<text text-anchor="middle" x="124" y="-352.4" font-family="meiryo UI" font-size="12.00" fill="#000000"> だったから </text>
<text text-anchor="middle" x="124" y="-339.4" font-family="meiryo UI" font-size="12.00" fill="#000000"> Q247K</text>
</a>
</g>
</g>
<!-- a12&#45;&gt;a13 -->
<!-- b12 -->
<g id="node32" class="node">
<title>b12</title>
<polygon fill="transparent" stroke="transparent" points="333,-419 261,-419 261,-383 333,-383 333,-419"/>
<text text-anchor="middle" x="297" y="-397.9" font-family="meiryo UI" font-size="12.00" fill="#000000">変更なし</text>
</g>
<!-- a12&#45;&gt;b12 -->
<g id="edge102" class="edge">
<title>a12&#45;&gt;b12</title>
<path fill="none" stroke="#000000" d="M200.2871,-401C216.9726,-401 233.6581,-401 250.3436,-401"/>
<polygon fill="#000000" stroke="#000000" points="250.7327,-404.5001 260.7327,-401 250.7326,-397.5001 250.7327,-404.5001"/>
</g>
<!-- a14 -->
<g id="node14" class="node">
<title>a14</title>
<g id="a_node14"><a xlink:href="../../variable/Q247L.html" xlink:title="良い条件の仕事が見つかった \n から・独立したから \n Q247L" target="_blank">
<polygon fill="#ffffff" stroke="#ffffff" points="200,-328 40,-328 40,-289 200,-289 200,-328"/>
<text text-anchor="middle" x="120" y="-318.4" font-family="meiryo UI" font-size="12.00" fill="#000000">良い条件の仕事が見つかった </text>
<text text-anchor="middle" x="120" y="-305.4" font-family="meiryo UI" font-size="12.00" fill="#000000"> から・独立したから </text>
<text text-anchor="middle" x="120" y="-292.4" font-family="meiryo UI" font-size="12.00" fill="#000000"> Q247L</text>
</a>
</g>
</g>
<!-- a13&#45;&gt;a14 -->
<!-- a15 -->
<g id="node15" class="node">
<title>a15</title>
<g id="a_node15"><a xlink:href="../../variable/Q247M.html" xlink:title="職場の上司との関係が \n うまくいかなくて \n Q247M" target="_blank">
<polygon fill="#ffffff" stroke="#ffffff" points="200,-281 56,-281 56,-242 200,-242 200,-281"/>
<text text-anchor="middle" x="128" y="-271.4" font-family="meiryo UI" font-size="12.00" fill="#000000">職場の上司との関係が </text>
<text text-anchor="middle" x="128" y="-258.4" font-family="meiryo UI" font-size="12.00" fill="#000000"> うまくいかなくて </text>
<text text-anchor="middle" x="128" y="-245.4" font-family="meiryo UI" font-size="12.00" fill="#000000"> Q247M</text>
</a>
</g>
</g>
<!-- a14&#45;&gt;a15 -->
<!-- b14 -->
<g id="node34" class="node">
<title>b14</title>
<polygon fill="transparent" stroke="transparent" points="332,-326.5 260,-326.5 260,-290.5 332,-290.5 332,-326.5"/>
<text text-anchor="middle" x="296" y="-305.4" font-family="meiryo UI" font-size="12.00" fill="#000000">変更なし</text>
</g>
<!-- a14&#45;&gt;b14 -->
<g id="edge105" class="edge">
<title>a14&#45;&gt;b14</title>
<path fill="none" stroke="#000000" d="M200.0938,-308.5C216.5367,-308.5 232.9796,-308.5 249.4225,-308.5"/>
<polygon fill="#000000" stroke="#000000" points="249.6606,-312.0001 259.6605,-308.5 249.6605,-305.0001 249.6606,-312.0001"/>
</g>
<!-- a16 -->
<g id="node16" class="node">
<title>a16</title>
<g id="a_node16"><a xlink:href="../../variable/Q247N.html" xlink:title="職場の同僚との関係が \n うまくいかなくて \n Q247N" target="_blank">
<polygon fill="#ffffff" stroke="#ffffff" points="200,-234 56,-234 56,-195 200,-195 200,-234"/>
<text text-anchor="middle" x="128" y="-224.4" font-family="meiryo UI" font-size="12.00" fill="#000000">職場の同僚との関係が </text>
<text text-anchor="middle" x="128" y="-211.4" font-family="meiryo UI" font-size="12.00" fill="#000000"> うまくいかなくて </text>
<text text-anchor="middle" x="128" y="-198.4" font-family="meiryo UI" font-size="12.00" fill="#000000"> Q247N</text>
</a>
</g>
</g>
<!-- a15&#45;&gt;a16 -->
<!-- b15 -->
<g id="node35" class="node">
<title>b15</title>
<g id="a_node35"><a xlink:href="../../variable/Q247U.html" xlink:title="人間関係が \n 気まずくなったから \n Q247U" target="_blank">
<polygon fill="#ffffff" stroke="#ffffff" points="368,-281 224,-281 224,-242 368,-242 368,-281"/>
<text text-anchor="middle" x="296" y="-271.4" font-family="meiryo UI" font-size="12.00" fill="#000000">人間関係が </text>
<text text-anchor="middle" x="296" y="-258.4" font-family="meiryo UI" font-size="12.00" fill="#000000"> 気まずくなったから </text>
<text text-anchor="middle" x="296" y="-245.4" font-family="meiryo UI" font-size="12.00" fill="#000000"> Q247U</text>
</a>
</g>
</g>
<!-- a15&#45;&gt;b15 -->
<g id="edge108" class="edge">
<title>a15&#45;&gt;b15</title>
<path fill="none" stroke="#000000" d="M200.1875,-261.5C204.6085,-261.5 209.0296,-261.5 213.4506,-261.5"/>
<polygon fill="#000000" stroke="#000000" points="213.7664,-265.0001 223.7664,-261.5 213.7663,-258.0001 213.7664,-265.0001"/>
</g>
<!-- a17 -->
<g id="node17" class="node">
<title>a17</title>
<g id="a_node17"><a xlink:href="../../variable/Q247O.html" xlink:title="解雇された \n Q247O" target="_blank">
<polygon fill="#ffffff" stroke="#ffffff" points="200,-187 56,-187 56,-151 200,-151 200,-187"/>
<text text-anchor="middle" x="128" y="-172.4" font-family="meiryo UI" font-size="12.00" fill="#000000">解雇された </text>
<text text-anchor="middle" x="128" y="-159.4" font-family="meiryo UI" font-size="12.00" fill="#000000"> Q247O</text>
</a>
</g>
</g>
<!-- a16&#45;&gt;a17 -->
<!-- a16&#45;&gt;b15 -->
<g id="edge111" class="edge">
<title>a16&#45;&gt;b15</title>
<path fill="none" stroke="#000000" d="M197.8408,-234.0388C203.9942,-235.7603 210.2521,-237.511 216.4771,-239.2525"/>
<polygon fill="#000000" stroke="#000000" points="215.6392,-242.6524 226.2124,-241.9761 217.5251,-235.9113 215.6392,-242.6524"/>
</g>
<!-- a18 -->
<g id="node18" class="node">
<title>a18</title>
<g id="a_node18"><a xlink:href="../../variable/Q247P.html" xlink:title="大学や専門学校などでの \n 勉強や留学準備のため \n Q247P" target="_blank">
<polygon fill="#ffffff" stroke="#ffffff" points="200,-143 56,-143 56,-104 200,-104 200,-143"/>
<text text-anchor="middle" x="128" y="-133.4" font-family="meiryo UI" font-size="12.00" fill="#000000">大学や専門学校などでの </text>
<text text-anchor="middle" x="128" y="-120.4" font-family="meiryo UI" font-size="12.00" fill="#000000"> 勉強や留学準備のため </text>
<text text-anchor="middle" x="128" y="-107.4" font-family="meiryo UI" font-size="12.00" fill="#000000"> Q247P</text>
</a>
</g>
</g>
<!-- a17&#45;&gt;a18 -->
<!-- b17 -->
<g id="node37" class="node">
<title>b17</title>
<g id="a_node37"><a xlink:href="../../variable/Q247O.html" xlink:title="懲戒解雇された \n Q247O" target="_blank">
<polygon fill="#ffffff" stroke="#ffffff" points="368,-187 224,-187 224,-151 368,-151 368,-187"/>
<text text-anchor="middle" x="296" y="-172.4" font-family="meiryo UI" font-size="12.00" fill="#000000">懲戒解雇された </text>
<text text-anchor="middle" x="296" y="-159.4" font-family="meiryo UI" font-size="12.00" fill="#000000"> Q247O</text>
</a>
</g>
</g>
<!-- a17&#45;&gt;b17 -->
<g id="edge112" class="edge">
<title>a17&#45;&gt;b17</title>
<path fill="none" stroke="#000000" d="M200.1875,-169C204.6085,-169 209.0296,-169 213.4506,-169"/>
<polygon fill="#000000" stroke="#000000" points="213.7664,-172.5001 223.7664,-169 213.7663,-165.5001 213.7664,-172.5001"/>
</g>
<!-- a19 -->
<!-- a18&#45;&gt;a19 -->
<!-- b18 -->
<g id="node38" class="node">
<title>b18</title>
<polygon fill="transparent" stroke="transparent" points="332,-141.5 260,-141.5 260,-105.5 332,-105.5 332,-141.5"/>
<text text-anchor="middle" x="296" y="-120.4" font-family="meiryo UI" font-size="12.00" fill="#000000">変更なし</text>
</g>
<!-- a18&#45;&gt;b18 -->
<g id="edge115" class="edge">
<title>a18&#45;&gt;b18</title>
<path fill="none" stroke="#000000" d="M200.1875,-123.5C216.6143,-123.5 233.0412,-123.5 249.468,-123.5"/>
<polygon fill="#000000" stroke="#000000" points="249.6961,-127.0001 259.696,-123.5 249.696,-120.0001 249.6961,-127.0001"/>
</g>
<!-- a20 -->
<g id="node20" class="node">
<title>a20</title>
<g id="a_node20"><a xlink:href="../../variable/Q247Q.html" xlink:title="その他 \n Q247Q" target="_blank">
<polygon fill="#ffffff" stroke="#ffffff" points="200,-52 56,-52 56,-16 200,-16 200,-52"/>
<text text-anchor="middle" x="128" y="-37.4" font-family="meiryo UI" font-size="12.00" fill="#000000">その他 </text>
<text text-anchor="middle" x="128" y="-24.4" font-family="meiryo UI" font-size="12.00" fill="#000000"> Q247Q</text>
</a>
</g>
</g>
<!-- a19&#45;&gt;a20 -->
<!-- b20 -->
<g id="node40" class="node">
<title>b20</title>
<polygon fill="transparent" stroke="transparent" points="332,-52 260,-52 260,-16 332,-16 332,-52"/>
<text text-anchor="middle" x="296" y="-30.9" font-family="meiryo UI" font-size="12.00" fill="#000000">変更なし</text>
</g>
<!-- a20&#45;&gt;b20 -->
<g id="edge119" class="edge">
<title>a20&#45;&gt;b20</title>
<path fill="none" stroke="#000000" d="M200.1875,-34C216.6143,-34 233.0412,-34 249.468,-34"/>
<polygon fill="#000000" stroke="#000000" points="249.6961,-37.5001 259.696,-34 249.696,-30.5001 249.6961,-37.5001"/>
</g>
<!-- b1&#45;&gt;b2 -->
<!-- c1 -->
<g id="node41" class="node">
<title>c1</title>
<polygon fill="transparent" stroke="transparent" points="504,-918 432,-918 432,-882 504,-882 504,-918"/>
<text text-anchor="middle" x="468" y="-896.9" font-family="meiryo UI" font-size="12.00" fill="#000000">変更なし</text>
</g>
<!-- b1&#45;&gt;c1 -->
<g id="edge78" class="edge">
<title>b1&#45;&gt;c1</title>
<path fill="none" stroke="#000000" d="M334.1914,-900C363.3361,-900 392.4808,-900 421.6256,-900"/>
<polygon fill="#000000" stroke="#000000" points="421.9344,-903.5001 431.9344,-900 421.9344,-896.5001 421.9344,-903.5001"/>
</g>
<!-- b2&#45;&gt;b3 -->
<!-- c2 -->
<g id="node42" class="node">
<title>c2</title>
<polygon fill="transparent" stroke="transparent" points="504,-872.5 432,-872.5 432,-836.5 504,-836.5 504,-872.5"/>
<text text-anchor="middle" x="468" y="-851.4" font-family="meiryo UI" font-size="12.00" fill="#000000">変更なし</text>
</g>
<!-- b2&#45;&gt;c2 -->
<g id="edge81" class="edge">
<title>b2&#45;&gt;c2</title>
<path fill="none" stroke="#000000" d="M334.1914,-854.5C363.3361,-854.5 392.4808,-854.5 421.6256,-854.5"/>
<polygon fill="#000000" stroke="#000000" points="421.9344,-858.0001 431.9344,-854.5 421.9344,-851.0001 421.9344,-858.0001"/>
</g>
<!-- b4 -->
<!-- b3&#45;&gt;b4 -->
<!-- c3 -->
<g id="node43" class="node">
<title>c3</title>
<polygon fill="transparent" stroke="transparent" points="504,-825.5 432,-825.5 432,-789.5 504,-789.5 504,-825.5"/>
<text text-anchor="middle" x="468" y="-804.4" font-family="meiryo UI" font-size="12.00" fill="#000000">変更なし</text>
</g>
<!-- b3&#45;&gt;c3 -->
<g id="edge84" class="edge">
<title>b3&#45;&gt;c3</title>
<path fill="none" stroke="#000000" d="M372.043,-807.5C388.4946,-807.5 404.9462,-807.5 421.3978,-807.5"/>
<polygon fill="#000000" stroke="#000000" points="421.6413,-811.0001 431.6413,-807.5 421.6412,-804.0001 421.6413,-811.0001"/>
</g>
<!-- b4&#45;&gt;b5 -->
<!-- b6 -->
<!-- b5&#45;&gt;b6 -->
<!-- c5 -->
<g id="node45" class="node">
<title>c5</title>
<polygon fill="transparent" stroke="transparent" points="504,-734.5 432,-734.5 432,-698.5 504,-698.5 504,-734.5"/>
<text text-anchor="middle" x="468" y="-713.4" font-family="meiryo UI" font-size="12.00" fill="#000000">変更なし</text>
</g>
<!-- b5&#45;&gt;c5 -->
<g id="edge88" class="edge">
<title>b5&#45;&gt;c5</title>
<path fill="none" stroke="#000000" d="M370.0508,-716.5C387.2156,-716.5 404.3804,-716.5 421.5453,-716.5"/>
<polygon fill="#000000" stroke="#000000" points="421.6517,-720.0001 431.6517,-716.5 421.6516,-713.0001 421.6517,-720.0001"/>
</g>
<!-- b6&#45;&gt;b7 -->
<!-- b7&#45;&gt;b8 -->
<!-- c7 -->
<g id="node47" class="node">
<title>c7</title>
<polygon fill="transparent" stroke="transparent" points="504,-640.5 432,-640.5 432,-604.5 504,-604.5 504,-640.5"/>
<text text-anchor="middle" x="468" y="-619.4" font-family="meiryo UI" font-size="12.00" fill="#000000">変更なし</text>
</g>
<!-- b7&#45;&gt;c7 -->
<g id="edge91" class="edge">
<title>b7&#45;&gt;c7</title>
<path fill="none" stroke="#000000" d="M334.1914,-622.5C363.3361,-622.5 392.4808,-622.5 421.6256,-622.5"/>
<polygon fill="#000000" stroke="#000000" points="421.9344,-626.0001 431.9344,-622.5 421.9344,-619.0001 421.9344,-626.0001"/>
</g>
<!-- b9 -->
<g id="node29" class="node">
<title>b9</title>
<g id="a_node29"><a xlink:href="../../variable/Q247T.html" xlink:title="出産・育児のため \n Q247T" target="_blank">
<polygon fill="#ffffff" stroke="#ffffff" points="370,-551 226,-551 226,-515 370,-515 370,-551"/>
<text text-anchor="middle" x="298" y="-536.4" font-family="meiryo UI" font-size="12.00" fill="#000000">出産・育児のため </text>
<text text-anchor="middle" x="298" y="-523.4" font-family="meiryo UI" font-size="12.00" fill="#000000"> Q247T</text>
</a>
</g>
</g>
<!-- b8&#45;&gt;b9 -->
<!-- c8 -->
<g id="node48" class="node">
<title>c8</title>
<polygon fill="transparent" stroke="transparent" points="504,-595 432,-595 432,-559 504,-559 504,-595"/>
<text text-anchor="middle" x="468" y="-573.9" font-family="meiryo UI" font-size="12.00" fill="#000000">変更なし</text>
</g>
<!-- b8&#45;&gt;c8 -->
<g id="edge94" class="edge">
<title>b8&#45;&gt;c8</title>
<path fill="none" stroke="#000000" d="M334.1914,-577C363.3361,-577 392.4808,-577 421.6256,-577"/>
<polygon fill="#000000" stroke="#000000" points="421.9344,-580.5001 431.9344,-577 421.9344,-573.5001 421.9344,-580.5001"/>
</g>
<!-- b10 -->
<!-- b9&#45;&gt;b10 -->
<!-- c9 -->
<g id="node49" class="node">
<title>c9</title>
<polygon fill="transparent" stroke="transparent" points="504,-551 432,-551 432,-515 504,-515 504,-551"/>
<text text-anchor="middle" x="468" y="-529.9" font-family="meiryo UI" font-size="12.00" fill="#000000">変更なし</text>
</g>
<!-- b9&#45;&gt;c9 -->
<g id="edge96" class="edge">
<title>b9&#45;&gt;c9</title>
<path fill="none" stroke="#000000" d="M370.0508,-533C387.2156,-533 404.3804,-533 421.5453,-533"/>
<polygon fill="#000000" stroke="#000000" points="421.6517,-536.5001 431.6517,-533 421.6516,-529.5001 421.6517,-536.5001"/>
</g>
<!-- b10&#45;&gt;b11 -->
<!-- b11&#45;&gt;b12 -->
<!-- c11 -->
<g id="node51" class="node">
<title>c11</title>
<polygon fill="transparent" stroke="transparent" points="504,-463 432,-463 432,-427 504,-427 504,-463"/>
<text text-anchor="middle" x="468" y="-441.9" font-family="meiryo UI" font-size="12.00" fill="#000000">変更なし</text>
</g>
<!-- b11&#45;&gt;c11 -->
<g id="edge100" class="edge">
<title>b11&#45;&gt;c11</title>
<path fill="none" stroke="#000000" d="M333.0703,-445C362.6665,-445 392.2626,-445 421.8588,-445"/>
<polygon fill="#000000" stroke="#000000" points="421.8958,-448.5001 431.8958,-445 421.8957,-441.5001 421.8958,-448.5001"/>
</g>
<!-- b13 -->
<!-- b12&#45;&gt;b13 -->
<!-- c12 -->
<g id="node52" class="node">
<title>c12</title>
<polygon fill="transparent" stroke="transparent" points="504,-419 432,-419 432,-383 504,-383 504,-419"/>
<text text-anchor="middle" x="468" y="-397.9" font-family="meiryo UI" font-size="12.00" fill="#000000">変更なし</text>
</g>
<!-- b12&#45;&gt;c12 -->
<g id="edge103" class="edge">
<title>b12&#45;&gt;c12</title>
<path fill="none" stroke="#000000" d="M333.0703,-401C362.6665,-401 392.2626,-401 421.8588,-401"/>
<polygon fill="#000000" stroke="#000000" points="421.8958,-404.5001 431.8958,-401 421.8957,-397.5001 421.8958,-404.5001"/>
</g>
<!-- b13&#45;&gt;b14 -->
<!-- b14&#45;&gt;b15 -->
<!-- c14 -->
<g id="node54" class="node">
<title>c14</title>
<polygon fill="transparent" stroke="transparent" points="504,-326.5 432,-326.5 432,-290.5 504,-290.5 504,-326.5"/>
<text text-anchor="middle" x="468" y="-305.4" font-family="meiryo UI" font-size="12.00" fill="#000000">変更なし</text>
</g>
<!-- b14&#45;&gt;c14 -->
<g id="edge106" class="edge">
<title>b14&#45;&gt;c14</title>
<path fill="none" stroke="#000000" d="M332.2813,-308.5C362.1299,-308.5 391.9785,-308.5 421.8271,-308.5"/>
<polygon fill="#000000" stroke="#000000" points="421.9497,-312.0001 431.9497,-308.5 421.9497,-305.0001 421.9497,-312.0001"/>
</g>
<!-- b16 -->
<!-- b15&#45;&gt;b16 -->
<!-- c15 -->
<g id="node55" class="node">
<title>c15</title>
<polygon fill="transparent" stroke="transparent" points="504,-279.5 432,-279.5 432,-243.5 504,-243.5 504,-279.5"/>
<text text-anchor="middle" x="468" y="-258.4" font-family="meiryo UI" font-size="12.00" fill="#000000">変更なし</text>
</g>
<!-- b15&#45;&gt;c15 -->
<g id="edge109" class="edge">
<title>b15&#45;&gt;c15</title>
<path fill="none" stroke="#000000" d="M368.2266,-261.5C385.9283,-261.5 403.63,-261.5 421.3317,-261.5"/>
<polygon fill="#000000" stroke="#000000" points="421.7542,-265.0001 431.7542,-261.5 421.7541,-258.0001 421.7542,-265.0001"/>
</g>
<!-- b16&#45;&gt;b17 -->
<!-- b17&#45;&gt;b18 -->
<!-- c17 -->
<g id="node57" class="node">
<title>c17</title>
<g id="a_node57"><a xlink:href="../../variable/Q247O.html" xlink:title="解雇された \n Q247O" target="_blank">
<polygon fill="#ffffff" stroke="#ffffff" points="540,-187 396,-187 396,-151 540,-151 540,-187"/>
<text text-anchor="middle" x="468" y="-172.4" font-family="meiryo UI" font-size="12.00" fill="#000000">解雇された </text>
<text text-anchor="middle" x="468" y="-159.4" font-family="meiryo UI" font-size="12.00" fill="#000000"> Q247O</text>
</a>
</g>
</g>
<!-- b17&#45;&gt;c17 -->
<g id="edge113" class="edge">
<title>b17&#45;&gt;c17</title>
<path fill="none" stroke="#000000" d="M368.2266,-169C373.9915,-169 379.7564,-169 385.5213,-169"/>
<polygon fill="#000000" stroke="#000000" points="385.8981,-172.5001 395.8981,-169 385.8981,-165.5001 385.8981,-172.5001"/>
</g>
<!-- b19 -->
<!-- b18&#45;&gt;b19 -->
<!-- c18 -->
<g id="node58" class="node">
<title>c18</title>
<polygon fill="transparent" stroke="transparent" points="504,-141.5 432,-141.5 432,-105.5 504,-105.5 504,-141.5"/>
<text text-anchor="middle" x="468" y="-120.4" font-family="meiryo UI" font-size="12.00" fill="#000000">変更なし</text>
</g>
<!-- b18&#45;&gt;c18 -->
<g id="edge116" class="edge">
<title>b18&#45;&gt;c18</title>
<path fill="none" stroke="#000000" d="M332.2813,-123.5C362.1299,-123.5 391.9785,-123.5 421.8271,-123.5"/>
<polygon fill="#000000" stroke="#000000" points="421.9497,-127.0001 431.9497,-123.5 421.9497,-120.0001 421.9497,-127.0001"/>
</g>
<!-- b19&#45;&gt;b20 -->
<!-- c20 -->
<g id="node60" class="node">
<title>c20</title>
<polygon fill="transparent" stroke="transparent" points="504,-52 432,-52 432,-16 504,-16 504,-52"/>
<text text-anchor="middle" x="468" y="-30.9" font-family="meiryo UI" font-size="12.00" fill="#000000">変更なし</text>
</g>
<!-- b20&#45;&gt;c20 -->
<g id="edge120" class="edge">
<title>b20&#45;&gt;c20</title>
<path fill="none" stroke="#000000" d="M332.2813,-34C362.1299,-34 391.9785,-34 421.8271,-34"/>
<polygon fill="#000000" stroke="#000000" points="421.9497,-37.5001 431.9497,-34 421.9497,-30.5001 421.9497,-37.5001"/>
</g>
<!-- c1&#45;&gt;c2 -->
<!-- d1 -->
<g id="node61" class="node">
<title>d1</title>
<polygon fill="transparent" stroke="transparent" points="636,-918 564,-918 564,-882 636,-882 636,-918"/>
<text text-anchor="middle" x="600" y="-896.9" font-family="meiryo UI" font-size="12.00" fill="#000000">変更なし</text>
</g>
<!-- c1&#45;&gt;d1 -->
<g id="edge79" class="edge">
<title>c1&#45;&gt;d1</title>
<path fill="none" stroke="#000000" d="M504.0938,-900C520.5367,-900 536.9796,-900 553.4225,-900"/>
<polygon fill="#000000" stroke="#000000" points="553.6606,-903.5001 563.6605,-900 553.6605,-896.5001 553.6606,-903.5001"/>
</g>
<!-- c2&#45;&gt;c3 -->
<!-- d2 -->
<g id="node62" class="node">
<title>d2</title>
<polygon fill="transparent" stroke="transparent" points="636,-872.5 564,-872.5 564,-836.5 636,-836.5 636,-872.5"/>
<text text-anchor="middle" x="600" y="-851.4" font-family="meiryo UI" font-size="12.00" fill="#000000">変更なし</text>
</g>
<!-- c2&#45;&gt;d2 -->
<g id="edge82" class="edge">
<title>c2&#45;&gt;d2</title>
<path fill="none" stroke="#000000" d="M504.0938,-854.5C520.5367,-854.5 536.9796,-854.5 553.4225,-854.5"/>
<polygon fill="#000000" stroke="#000000" points="553.6606,-858.0001 563.6605,-854.5 553.6605,-851.0001 553.6606,-858.0001"/>
</g>
<!-- c4 -->
<!-- c3&#45;&gt;c4 -->
<!-- d3 -->
<g id="node63" class="node">
<title>d3</title>
<polygon fill="transparent" stroke="transparent" points="636,-825.5 564,-825.5 564,-789.5 636,-789.5 636,-825.5"/>
<text text-anchor="middle" x="600" y="-804.4" font-family="meiryo UI" font-size="12.00" fill="#000000">変更なし</text>
</g>
<!-- c3&#45;&gt;d3 -->
<g id="edge85" class="edge">
<title>c3&#45;&gt;d3</title>
<path fill="none" stroke="#000000" d="M504.0938,-807.5C520.5367,-807.5 536.9796,-807.5 553.4225,-807.5"/>
<polygon fill="#000000" stroke="#000000" points="553.6606,-811.0001 563.6605,-807.5 553.6605,-804.0001 553.6606,-811.0001"/>
</g>
<!-- c4&#45;&gt;c5 -->
<!-- c6 -->
<!-- c5&#45;&gt;c6 -->
<!-- d5 -->
<g id="node65" class="node">
<title>d5</title>
<polygon fill="transparent" stroke="transparent" points="636,-734.5 564,-734.5 564,-698.5 636,-698.5 636,-734.5"/>
<text text-anchor="middle" x="600" y="-713.4" font-family="meiryo UI" font-size="12.00" fill="#000000">変更なし</text>
</g>
<!-- c5&#45;&gt;d5 -->
<g id="edge89" class="edge">
<title>c5&#45;&gt;d5</title>
<path fill="none" stroke="#000000" d="M504.0938,-716.5C520.5367,-716.5 536.9796,-716.5 553.4225,-716.5"/>
<polygon fill="#000000" stroke="#000000" points="553.6606,-720.0001 563.6605,-716.5 553.6605,-713.0001 553.6606,-720.0001"/>
</g>
<!-- c6&#45;&gt;c7 -->
<!-- c7&#45;&gt;c8 -->
<!-- d7 -->
<g id="node67" class="node">
<title>d7</title>
<polygon fill="transparent" stroke="transparent" points="636,-640.5 564,-640.5 564,-604.5 636,-604.5 636,-640.5"/>
<text text-anchor="middle" x="600" y="-619.4" font-family="meiryo UI" font-size="12.00" fill="#000000">変更なし</text>
</g>
<!-- c7&#45;&gt;d7 -->
<g id="edge92" class="edge">
<title>c7&#45;&gt;d7</title>
<path fill="none" stroke="#000000" d="M504.0938,-622.5C520.5367,-622.5 536.9796,-622.5 553.4225,-622.5"/>
<polygon fill="#000000" stroke="#000000" points="553.6606,-626.0001 563.6605,-622.5 553.6605,-619.0001 553.6606,-626.0001"/>
</g>
<!-- c8&#45;&gt;c9 -->
<!-- d8 -->
<g id="node68" class="node">
<title>d8</title>
<polygon fill="transparent" stroke="transparent" points="636,-595 564,-595 564,-559 636,-559 636,-595"/>
<text text-anchor="middle" x="600" y="-573.9" font-family="meiryo UI" font-size="12.00" fill="#000000">変更なし</text>
</g>
<!-- c8&#45;&gt;d8 -->
<g id="edge95" class="edge">
<title>c8&#45;&gt;d8</title>
<path fill="none" stroke="#000000" d="M504.0938,-577C520.5367,-577 536.9796,-577 553.4225,-577"/>
<polygon fill="#000000" stroke="#000000" points="553.6606,-580.5001 563.6605,-577 553.6605,-573.5001 553.6606,-580.5001"/>
</g>
<!-- c10 -->
<!-- c9&#45;&gt;c10 -->
<!-- d9 -->
<g id="node69" class="node">
<title>d9</title>
<g id="a_node69"><a xlink:href="../../variable/Q247Z.html" xlink:title="妻の妊娠・出産のため \n Q247Z" target="_blank">
<polygon fill="#ffffff" stroke="#ffffff" points="688,-551 564,-551 564,-515 688,-515 688,-551"/>
<text text-anchor="middle" x="626" y="-536.4" font-family="meiryo UI" font-size="12.00" fill="#000000">妻の妊娠・出産のため </text>
<text text-anchor="middle" x="626" y="-523.4" font-family="meiryo UI" font-size="12.00" fill="#000000"> Q247Z</text>
</a>
</g>
</g>
<!-- c9&#45;&gt;d9 -->
<g id="edge97" class="edge">
<title>c9&#45;&gt;d9</title>
<path fill="none" stroke="#000000" d="M504.1055,-533C520.5351,-533 536.9648,-533 553.3945,-533"/>
<polygon fill="#000000" stroke="#000000" points="553.6243,-536.5001 563.6243,-533 553.6242,-529.5001 553.6243,-536.5001"/>
</g>
<!-- d10 -->
<g id="node70" class="node">
<title>d10</title>
<g id="a_node70"><a xlink:href="../../variable/Q247AA.html" xlink:title="育児・子育てのため \n Q247AA" target="_blank">
<polygon fill="#ffffff" stroke="#ffffff" points="676,-507 564,-507 564,-471 676,-471 676,-507"/>
<text text-anchor="middle" x="620" y="-492.4" font-family="meiryo UI" font-size="12.00" fill="#000000">育児・子育てのため </text>
<text text-anchor="middle" x="620" y="-479.4" font-family="meiryo UI" font-size="12.00" fill="#000000"> Q247AA</text>
</a>
</g>
</g>
<!-- c9&#45;&gt;d10 -->
<g id="edge98" class="edge">
<title>c9&#45;&gt;d10</title>
<path fill="none" stroke="#000000" d="M504.0219,-522.5726C518.9194,-518.2602 536.682,-513.1184 553.7739,-508.1707"/>
<polygon fill="#000000" stroke="#000000" points="555.1008,-511.4304 563.7332,-505.2878 553.1543,-504.7064 555.1008,-511.4304"/>
</g>
<!-- c10&#45;&gt;c11 -->
<!-- c11&#45;&gt;c12 -->
<!-- d11 -->
<g id="node71" class="node">
<title>d11</title>
<polygon fill="transparent" stroke="transparent" points="636,-463 564,-463 564,-427 636,-427 636,-463"/>
<text text-anchor="middle" x="600" y="-441.9" font-family="meiryo UI" font-size="12.00" fill="#000000">変更なし</text>
</g>
<!-- c11&#45;&gt;d11 -->
<g id="edge101" class="edge">
<title>c11&#45;&gt;d11</title>
<path fill="none" stroke="#000000" d="M504.0938,-445C520.5367,-445 536.9796,-445 553.4225,-445"/>
<polygon fill="#000000" stroke="#000000" points="553.6606,-448.5001 563.6605,-445 553.6605,-441.5001 553.6606,-448.5001"/>
</g>
<!-- c13 -->
<!-- c12&#45;&gt;c13 -->
<!-- d12 -->
<g id="node72" class="node">
<title>d12</title>
<polygon fill="transparent" stroke="transparent" points="636,-419 564,-419 564,-383 636,-383 636,-419"/>
<text text-anchor="middle" x="600" y="-397.9" font-family="meiryo UI" font-size="12.00" fill="#000000">変更なし</text>
</g>
<!-- c12&#45;&gt;d12 -->
<g id="edge104" class="edge">
<title>c12&#45;&gt;d12</title>
<path fill="none" stroke="#000000" d="M504.0938,-401C520.5367,-401 536.9796,-401 553.4225,-401"/>
<polygon fill="#000000" stroke="#000000" points="553.6606,-404.5001 563.6605,-401 553.6605,-397.5001 553.6606,-404.5001"/>
</g>
<!-- c13&#45;&gt;c14 -->
<!-- c14&#45;&gt;c15 -->
<!-- d14 -->
<g id="node74" class="node">
<title>d14</title>
<polygon fill="transparent" stroke="transparent" points="636,-326.5 564,-326.5 564,-290.5 636,-290.5 636,-326.5"/>
<text text-anchor="middle" x="600" y="-305.4" font-family="meiryo UI" font-size="12.00" fill="#000000">変更なし</text>
</g>
<!-- c14&#45;&gt;d14 -->
<g id="edge107" class="edge">
<title>c14&#45;&gt;d14</title>
<path fill="none" stroke="#000000" d="M504.0938,-308.5C520.5367,-308.5 536.9796,-308.5 553.4225,-308.5"/>
<polygon fill="#000000" stroke="#000000" points="553.6606,-312.0001 563.6605,-308.5 553.6605,-305.0001 553.6606,-312.0001"/>
</g>
<!-- c16 -->
<!-- c15&#45;&gt;c16 -->
<!-- d15 -->
<g id="node75" class="node">
<title>d15</title>
<polygon fill="transparent" stroke="transparent" points="636,-279.5 564,-279.5 564,-243.5 636,-243.5 636,-279.5"/>
<text text-anchor="middle" x="600" y="-258.4" font-family="meiryo UI" font-size="12.00" fill="#000000">変更なし</text>
</g>
<!-- c15&#45;&gt;d15 -->
<g id="edge110" class="edge">
<title>c15&#45;&gt;d15</title>
<path fill="none" stroke="#000000" d="M504.0938,-261.5C520.5367,-261.5 536.9796,-261.5 553.4225,-261.5"/>
<polygon fill="#000000" stroke="#000000" points="553.6606,-265.0001 563.6605,-261.5 553.6605,-258.0001 553.6606,-265.0001"/>
</g>
<!-- c16&#45;&gt;c17 -->
<!-- c17&#45;&gt;c18 -->
<!-- d17 -->
<g id="node77" class="node">
<title>d17</title>
<polygon fill="transparent" stroke="transparent" points="636,-187 564,-187 564,-151 636,-151 636,-187"/>
<text text-anchor="middle" x="600" y="-165.9" font-family="meiryo UI" font-size="12.00" fill="#000000">変更なし</text>
</g>
<!-- c17&#45;&gt;d17 -->
<g id="edge114" class="edge">
<title>c17&#45;&gt;d17</title>
<path fill="none" stroke="#000000" d="M540.1875,-169C544.5683,-169 548.9491,-169 553.3299,-169"/>
<polygon fill="#000000" stroke="#000000" points="553.5518,-172.5001 563.5518,-169 553.5517,-165.5001 553.5518,-172.5001"/>
</g>
<!-- c19 -->
<g id="node59" class="node">
<title>c19</title>
<g id="a_node59"><a xlink:href="../../variable/Q247Y.html" xlink:title="定年又は雇用契約の満了 \n Q247Y" target="_blank">
<polygon fill="#ffffff" stroke="#ffffff" points="540,-96 396,-96 396,-60 540,-60 540,-96"/>
<text text-anchor="middle" x="468" y="-81.4" font-family="meiryo UI" font-size="12.00" fill="#000000">定年又は雇用契約の満了 </text>
<text text-anchor="middle" x="468" y="-68.4" font-family="meiryo UI" font-size="12.00" fill="#000000"> Q247Y</text>
</a>
</g>
</g>
<!-- c18&#45;&gt;c19 -->
<!-- d18 -->
<g id="node78" class="node">
<title>d18</title>
<polygon fill="transparent" stroke="transparent" points="636,-141.5 564,-141.5 564,-105.5 636,-105.5 636,-141.5"/>
<text text-anchor="middle" x="600" y="-120.4" font-family="meiryo UI" font-size="12.00" fill="#000000">変更なし</text>
</g>
<!-- c18&#45;&gt;d18 -->
<g id="edge117" class="edge">
<title>c18&#45;&gt;d18</title>
<path fill="none" stroke="#000000" d="M504.0938,-123.5C520.5367,-123.5 536.9796,-123.5 553.4225,-123.5"/>
<polygon fill="#000000" stroke="#000000" points="553.6606,-127.0001 563.6605,-123.5 553.6605,-120.0001 553.6606,-127.0001"/>
</g>
<!-- c19&#45;&gt;c20 -->
<!-- d19 -->
<g id="node79" class="node">
<title>d19</title>
<polygon fill="transparent" stroke="transparent" points="636,-96 564,-96 564,-60 636,-60 636,-96"/>
<text text-anchor="middle" x="600" y="-74.9" font-family="meiryo UI" font-size="12.00" fill="#000000">変更なし</text>
</g>
<!-- c19&#45;&gt;d19 -->
<g id="edge118" class="edge">
<title>c19&#45;&gt;d19</title>
<path fill="none" stroke="#000000" d="M540.1875,-78C544.5683,-78 548.9491,-78 553.3299,-78"/>
<polygon fill="#000000" stroke="#000000" points="553.5518,-81.5001 563.5518,-78 553.5517,-74.5001 553.5518,-81.5001"/>
</g>
<!-- d20 -->
<g id="node80" class="node">
<title>d20</title>
<polygon fill="transparent" stroke="transparent" points="636,-52 564,-52 564,-16 636,-16 636,-52"/>
<text text-anchor="middle" x="600" y="-30.9" font-family="meiryo UI" font-size="12.00" fill="#000000">変更なし</text>
</g>
<!-- c20&#45;&gt;d20 -->
<g id="edge121" class="edge">
<title>c20&#45;&gt;d20</title>
<path fill="none" stroke="#000000" d="M504.0938,-34C520.5367,-34 536.9796,-34 553.4225,-34"/>
<polygon fill="#000000" stroke="#000000" points="553.6606,-37.5001 563.6605,-34 553.6605,-30.5001 553.6606,-37.5001"/>
</g>
<!-- d1&#45;&gt;d2 -->
<!-- d2&#45;&gt;d3 -->
<!-- d4 -->
<!-- d3&#45;&gt;d4 -->
<!-- d4&#45;&gt;d5 -->
<!-- d6 -->
<!-- d5&#45;&gt;d6 -->
<!-- d6&#45;&gt;d7 -->
<!-- d7&#45;&gt;d8 -->
<!-- d8&#45;&gt;d9 -->
<!-- d9&#45;&gt;d10 -->
<!-- d10&#45;&gt;d11 -->
<!-- d11&#45;&gt;d12 -->
<!-- d13 -->
<!-- d12&#45;&gt;d13 -->
<!-- d13&#45;&gt;d14 -->
<!-- d14&#45;&gt;d15 -->
<!-- d16 -->
<!-- d15&#45;&gt;d16 -->
<!-- d16&#45;&gt;d17 -->
<!-- d17&#45;&gt;d18 -->
<!-- d18&#45;&gt;d19 -->
<!-- d19&#45;&gt;d20 -->
</g>
</svg>
