<?xml version="1.0" encoding="UTF-8" standalone="no"?>
<!DOCTYPE svg PUBLIC "-//W3C//DTD SVG 1.1//EN"
 "http://www.w3.org/Graphics/SVG/1.1/DTD/svg11.dtd">
<!-- Generated by graphviz version 2.40.1 (20161225.0304)
 -->
<!-- Title: risyokumu Pages: 1 -->
<svg width="700pt" height="1015pt"
 viewBox="0.00 0.00 700.00 1015.00" xmlns="http://www.w3.org/2000/svg" xmlns:xlink="http://www.w3.org/1999/xlink">
<g id="graph0" class="graph" transform="scale(1 1) rotate(0) translate(4 1011)">
<title>risyokumu</title>
<polygon fill="#ffffff" stroke="transparent" points="-4,4 -4,-1011 696,-1011 696,4 -4,4"/>
<g id="clust1" class="cluster">
<title>cluster_0</title>
<polygon fill="#ccdfff" stroke="#ccdfff" points="8,-8 8,-999 208,-999 208,-8 8,-8"/>
<text text-anchor="middle" x="108" y="-982.2" font-family="Times,serif" font-size="16.00" fill="#000000">第2～第10回</text>
</g>
<g id="clust2" class="cluster">
<title>cluster_1</title>
<polygon fill="#edf4ff" stroke="#edf4ff" points="216,-8 216,-999 380,-999 380,-8 216,-8"/>
<text text-anchor="middle" x="298" y="-982.2" font-family="Times,serif" font-size="16.00" fill="#000000">第11回</text>
</g>
<g id="clust3" class="cluster">
<title>cluster_2</title>
<polygon fill="#ccdfff" stroke="#ccdfff" points="388,-8 388,-999 548,-999 548,-8 388,-8"/>
<text text-anchor="middle" x="468" y="-982.2" font-family="Times,serif" font-size="16.00" fill="#000000">第12～第20回</text>
</g>
<g id="clust4" class="cluster">
<title>cluster_3</title>
<polygon fill="#edf4ff" stroke="#edf4ff" points="556,-8 556,-999 684,-999 684,-8 556,-8"/>
<text text-anchor="middle" x="620" y="-982.2" font-family="Times,serif" font-size="16.00" fill="#000000">第21回～</text>
</g>
<!-- a1 -->
<g id="node1" class="node">
<title>a1</title>
<g id="a_node1"><a xlink:href="../../variable/Q198A.html" xlink:title="人員整理・会社解散・倒産のため \n Q198A" target="_blank">
<polygon fill="#ffffff" stroke="#ffffff" points="200,-965 16,-965 16,-929 200,-929 200,-965"/>
<text text-anchor="middle" x="108" y="-950.4" font-family="meiryo UI" font-size="12.00" fill="#000000">人員整理・会社解散・倒産のため </text>
<text text-anchor="middle" x="108" y="-937.4" font-family="meiryo UI" font-size="12.00" fill="#000000"> Q198A</text>
</a>
</g>
</g>
<!-- a2 -->
<g id="node2" class="node">
<title>a2</title>
<g id="a_node2"><a xlink:href="../../variable/Q198A.html" xlink:title="一時的・不安定な仕事 \n だったから \n Q198B" target="_blank">
<polygon fill="#ffffff" stroke="#ffffff" points="200,-921 56,-921 56,-882 200,-882 200,-921"/>
<text text-anchor="middle" x="128" y="-911.4" font-family="meiryo UI" font-size="12.00" fill="#000000">一時的・不安定な仕事 </text>
<text text-anchor="middle" x="128" y="-898.4" font-family="meiryo UI" font-size="12.00" fill="#000000"> だったから </text>
<text text-anchor="middle" x="128" y="-885.4" font-family="meiryo UI" font-size="12.00" fill="#000000"> Q198B</text>
</a>
</g>
</g>
<!-- a1&#45;&gt;a2 -->
<!-- b1 -->
<g id="node22" class="node">
<title>b1</title>
<polygon fill="transparent" stroke="transparent" points="334,-965 262,-965 262,-929 334,-929 334,-965"/>
<text text-anchor="middle" x="298" y="-943.9" font-family="meiryo UI" font-size="12.00" fill="#000000">変更なし</text>
</g>
<!-- a1&#45;&gt;b1 -->
<g id="edge81" class="edge">
<title>a1&#45;&gt;b1</title>
<path fill="none" stroke="#000000" d="M200.0313,-947C217.1995,-947 234.3678,-947 251.536,-947"/>
<polygon fill="#000000" stroke="#000000" points="251.6444,-950.5001 261.6444,-947 251.6444,-943.5001 251.6444,-950.5001"/>
</g>
<!-- a3 -->
<g id="node3" class="node">
<title>a3</title>
<g id="a_node3"><a xlink:href="../../variable/Q198C.html" xlink:title="収入が少なかったから \n Q198C" target="_blank">
<polygon fill="#ffffff" stroke="#ffffff" points="200,-872.5 56,-872.5 56,-836.5 200,-836.5 200,-872.5"/>
<text text-anchor="middle" x="128" y="-857.9" font-family="meiryo UI" font-size="12.00" fill="#000000">収入が少なかったから </text>
<text text-anchor="middle" x="128" y="-844.9" font-family="meiryo UI" font-size="12.00" fill="#000000"> Q198C</text>
</a>
</g>
</g>
<!-- a2&#45;&gt;a3 -->
<!-- b2 -->
<g id="node23" class="node">
<title>b2</title>
<polygon fill="transparent" stroke="transparent" points="334,-919.5 262,-919.5 262,-883.5 334,-883.5 334,-919.5"/>
<text text-anchor="middle" x="298" y="-898.4" font-family="meiryo UI" font-size="12.00" fill="#000000">変更なし</text>
</g>
<!-- a2&#45;&gt;b2 -->
<g id="edge84" class="edge">
<title>a2&#45;&gt;b2</title>
<path fill="none" stroke="#000000" d="M200.0508,-901.5C217.2156,-901.5 234.3804,-901.5 251.5453,-901.5"/>
<polygon fill="#000000" stroke="#000000" points="251.6517,-905.0001 261.6517,-901.5 251.6516,-898.0001 251.6517,-905.0001"/>
</g>
<!-- a4 -->
<g id="node4" class="node">
<title>a4</title>
<g id="a_node4"><a xlink:href="../../variable/Q198D.html" xlink:title="労働条件が悪かったから \n Q198D" target="_blank">
<polygon fill="#ffffff" stroke="#ffffff" points="200,-827 56,-827 56,-791 200,-791 200,-827"/>
<text text-anchor="middle" x="128" y="-812.4" font-family="meiryo UI" font-size="12.00" fill="#000000">労働条件が悪かったから </text>
<text text-anchor="middle" x="128" y="-799.4" font-family="meiryo UI" font-size="12.00" fill="#000000"> Q198D</text>
</a>
</g>
</g>
<!-- a3&#45;&gt;a4 -->
<!-- b3 -->
<g id="node24" class="node">
<title>b3</title>
<g id="a_node24"><a xlink:href="../../variable/Q198U.html" xlink:title="労働条件（時間、収入）が \n悪かったから \n Q198U" target="_blank">
<polygon fill="#ffffff" stroke="#ffffff" points="372,-874 224,-874 224,-835 372,-835 372,-874"/>
<text text-anchor="middle" x="298" y="-864.4" font-family="meiryo UI" font-size="12.00" fill="#000000">労働条件（時間、収入）が </text>
<text text-anchor="middle" x="298" y="-851.4" font-family="meiryo UI" font-size="12.00" fill="#000000">悪かったから </text>
<text text-anchor="middle" x="298" y="-838.4" font-family="meiryo UI" font-size="12.00" fill="#000000"> Q198U</text>
</a>
</g>
</g>
<!-- a3&#45;&gt;b3 -->
<g id="edge87" class="edge">
<title>a3&#45;&gt;b3</title>
<path fill="none" stroke="#000000" d="M200.0508,-854.5C204.6222,-854.5 209.1937,-854.5 213.7651,-854.5"/>
<polygon fill="#000000" stroke="#000000" points="213.7729,-858.0001 223.7729,-854.5 213.7728,-851.0001 213.7729,-858.0001"/>
</g>
<!-- a5 -->
<g id="node5" class="node">
<title>a5</title>
<g id="a_node5"><a xlink:href="../../variable/Q198E.html" xlink:title="自分に向かない仕事 \n だったから \n Q198E" target="_blank">
<polygon fill="#ffffff" stroke="#ffffff" points="200,-783 56,-783 56,-744 200,-744 200,-783"/>
<text text-anchor="middle" x="128" y="-773.4" font-family="meiryo UI" font-size="12.00" fill="#000000">自分に向かない仕事 </text>
<text text-anchor="middle" x="128" y="-760.4" font-family="meiryo UI" font-size="12.00" fill="#000000"> だったから </text>
<text text-anchor="middle" x="128" y="-747.4" font-family="meiryo UI" font-size="12.00" fill="#000000"> Q198E</text>
</a>
</g>
</g>
<!-- a4&#45;&gt;a5 -->
<!-- a4&#45;&gt;b3 -->
<g id="edge90" class="edge">
<title>a4&#45;&gt;b3</title>
<path fill="none" stroke="#000000" d="M195.3792,-827.0339C201.8995,-828.779 208.5645,-830.5629 215.2114,-832.3419"/>
<polygon fill="#000000" stroke="#000000" points="214.3532,-835.7353 224.9181,-834.9398 216.1631,-828.9733 214.3532,-835.7353"/>
</g>
<!-- a6 -->
<g id="node6" class="node">
<title>a6</title>
<g id="a_node6"><a xlink:href="../../variable/Q198N.html" xlink:title="単調な仕事で \n むなしいと思ったから \n Q198F" target="_blank">
<polygon fill="#ffffff" stroke="#ffffff" points="200,-736 56,-736 56,-697 200,-697 200,-736"/>
<text text-anchor="middle" x="128" y="-726.4" font-family="meiryo UI" font-size="12.00" fill="#000000">単調な仕事で </text>
<text text-anchor="middle" x="128" y="-713.4" font-family="meiryo UI" font-size="12.00" fill="#000000"> むなしいと思ったから </text>
<text text-anchor="middle" x="128" y="-700.4" font-family="meiryo UI" font-size="12.00" fill="#000000"> Q198F</text>
</a>
</g>
</g>
<!-- a5&#45;&gt;a6 -->
<!-- b5 -->
<g id="node26" class="node">
<title>b5</title>
<g id="a_node26"><a xlink:href="../../variable/Q198V.html" xlink:title="仕事の内容に \n 不満があったため \n Q198V" target="_blank">
<polygon fill="#ffffff" stroke="#ffffff" points="369,-783 225,-783 225,-744 369,-744 369,-783"/>
<text text-anchor="middle" x="297" y="-773.4" font-family="meiryo UI" font-size="12.00" fill="#000000">仕事の内容に </text>
<text text-anchor="middle" x="297" y="-760.4" font-family="meiryo UI" font-size="12.00" fill="#000000"> 不満があったため </text>
<text text-anchor="middle" x="297" y="-747.4" font-family="meiryo UI" font-size="12.00" fill="#000000"> Q198V</text>
</a>
</g>
</g>
<!-- a5&#45;&gt;b5 -->
<g id="edge91" class="edge">
<title>a5&#45;&gt;b5</title>
<path fill="none" stroke="#000000" d="M200.2871,-763.5C205.0193,-763.5 209.7514,-763.5 214.4836,-763.5"/>
<polygon fill="#000000" stroke="#000000" points="214.8432,-767.0001 224.8431,-763.5 214.8431,-760.0001 214.8432,-767.0001"/>
</g>
<!-- a7 -->
<g id="node7" class="node">
<title>a7</title>
<g id="a_node7"><a xlink:href="../../variable/Q198G.html" xlink:title="家族の就職・転職・転勤 \n 及び事業所の移転のため \n Q198G" target="_blank">
<polygon fill="#ffffff" stroke="#ffffff" points="200,-689 56,-689 56,-650 200,-650 200,-689"/>
<text text-anchor="middle" x="128" y="-679.4" font-family="meiryo UI" font-size="12.00" fill="#000000">家族の就職・転職・転勤 </text>
<text text-anchor="middle" x="128" y="-666.4" font-family="meiryo UI" font-size="12.00" fill="#000000"> 及び事業所の移転のため </text>
<text text-anchor="middle" x="128" y="-653.4" font-family="meiryo UI" font-size="12.00" fill="#000000"> Q198G</text>
</a>
</g>
</g>
<!-- a6&#45;&gt;a7 -->
<!-- a8 -->
<g id="node8" class="node">
<title>a8</title>
<g id="a_node8"><a xlink:href="../../variable/Q198H.html" xlink:title="結婚のため \n Q198H" target="_blank">
<polygon fill="#ffffff" stroke="#ffffff" points="200,-642 56,-642 56,-606 200,-606 200,-642"/>
<text text-anchor="middle" x="128" y="-627.4" font-family="meiryo UI" font-size="12.00" fill="#000000">結婚のため </text>
<text text-anchor="middle" x="128" y="-614.4" font-family="meiryo UI" font-size="12.00" fill="#000000"> Q198H</text>
</a>
</g>
</g>
<!-- a7&#45;&gt;a8 -->
<!-- b7 -->
<g id="node28" class="node">
<title>b7</title>
<polygon fill="transparent" stroke="transparent" points="332,-687.5 260,-687.5 260,-651.5 332,-651.5 332,-687.5"/>
<text text-anchor="middle" x="296" y="-666.4" font-family="meiryo UI" font-size="12.00" fill="#000000">変更なし</text>
</g>
<!-- a7&#45;&gt;b7 -->
<g id="edge94" class="edge">
<title>a7&#45;&gt;b7</title>
<path fill="none" stroke="#000000" d="M200.1875,-669.5C216.6143,-669.5 233.0412,-669.5 249.468,-669.5"/>
<polygon fill="#000000" stroke="#000000" points="249.6961,-673.0001 259.696,-669.5 249.696,-666.0001 249.6961,-673.0001"/>
</g>
<!-- a9 -->
<g id="node9" class="node">
<title>a9</title>
<g id="a_node9"><a xlink:href="../../variable/Q198I.html" xlink:title="子どもが欲しいので \n Q198I" target="_blank">
<polygon fill="#ffffff" stroke="#ffffff" points="200,-598 56,-598 56,-562 200,-562 200,-598"/>
<text text-anchor="middle" x="128" y="-583.4" font-family="meiryo UI" font-size="12.00" fill="#000000">子どもが欲しいので </text>
<text text-anchor="middle" x="128" y="-570.4" font-family="meiryo UI" font-size="12.00" fill="#000000"> Q198I</text>
</a>
</g>
</g>
<!-- a8&#45;&gt;a9 -->
<!-- b8 -->
<g id="node29" class="node">
<title>b8</title>
<polygon fill="transparent" stroke="transparent" points="332,-642 260,-642 260,-606 332,-606 332,-642"/>
<text text-anchor="middle" x="296" y="-620.9" font-family="meiryo UI" font-size="12.00" fill="#000000">変更なし</text>
</g>
<!-- a8&#45;&gt;b8 -->
<g id="edge97" class="edge">
<title>a8&#45;&gt;b8</title>
<path fill="none" stroke="#000000" d="M200.1875,-624C216.6143,-624 233.0412,-624 249.468,-624"/>
<polygon fill="#000000" stroke="#000000" points="249.6961,-627.5001 259.696,-624 249.696,-620.5001 249.6961,-627.5001"/>
</g>
<!-- a10 -->
<g id="node10" class="node">
<title>a10</title>
<g id="a_node10"><a xlink:href="../../variable/Q198J.html" xlink:title="妊娠のために \n 身体を気づかって \n Q198J" target="_blank">
<polygon fill="#ffffff" stroke="#ffffff" points="200,-554 56,-554 56,-515 200,-515 200,-554"/>
<text text-anchor="middle" x="128" y="-544.4" font-family="meiryo UI" font-size="12.00" fill="#000000">妊娠のために </text>
<text text-anchor="middle" x="128" y="-531.4" font-family="meiryo UI" font-size="12.00" fill="#000000"> 身体を気づかって </text>
<text text-anchor="middle" x="128" y="-518.4" font-family="meiryo UI" font-size="12.00" fill="#000000"> Q198J</text>
</a>
</g>
</g>
<!-- a9&#45;&gt;a10 -->
<!-- b10 -->
<g id="node31" class="node">
<title>b10</title>
<g id="a_node31"><a xlink:href="../../variable/Q198W.html" xlink:title="妊娠・出産・育児のため \n Q198W" target="_blank">
<polygon fill="#ffffff" stroke="#ffffff" points="368,-552.5 224,-552.5 224,-516.5 368,-516.5 368,-552.5"/>
<text text-anchor="middle" x="296" y="-537.9" font-family="meiryo UI" font-size="12.00" fill="#000000">妊娠・出産・育児のため </text>
<text text-anchor="middle" x="296" y="-524.9" font-family="meiryo UI" font-size="12.00" fill="#000000"> Q198W</text>
</a>
</g>
</g>
<!-- a9&#45;&gt;b10 -->
<g id="edge100" class="edge">
<title>a9&#45;&gt;b10</title>
<path fill="none" stroke="#000000" d="M194.8808,-561.8865C203.036,-559.6777 211.4161,-557.4081 219.6956,-555.1658"/>
<polygon fill="#000000" stroke="#000000" points="220.6121,-558.5437 229.3493,-552.5512 218.7821,-551.7872 220.6121,-558.5437"/>
</g>
<!-- a11 -->
<g id="node11" class="node">
<title>a11</title>
<g id="a_node11"><a xlink:href="../../variable/Q198K.html" xlink:title="出産・育児のため \n Q198K" target="_blank">
<polygon fill="#ffffff" stroke="#ffffff" points="200,-507 56,-507 56,-471 200,-471 200,-507"/>
<text text-anchor="middle" x="128" y="-492.4" font-family="meiryo UI" font-size="12.00" fill="#000000">出産・育児のため </text>
<text text-anchor="middle" x="128" y="-479.4" font-family="meiryo UI" font-size="12.00" fill="#000000"> Q198K</text>
</a>
</g>
</g>
<!-- a10&#45;&gt;a11 -->
<!-- a10&#45;&gt;b10 -->
<g id="edge104" class="edge">
<title>a10&#45;&gt;b10</title>
<path fill="none" stroke="#000000" d="M200.1875,-534.5C204.6085,-534.5 209.0296,-534.5 213.4506,-534.5"/>
<polygon fill="#000000" stroke="#000000" points="213.7664,-538.0001 223.7664,-534.5 213.7663,-531.0001 213.7664,-538.0001"/>
</g>
<!-- a12 -->
<g id="node12" class="node">
<title>a12</title>
<g id="a_node12"><a xlink:href="../../variable/Q198L.html" xlink:title="自分が病気になったから \n Q198L" target="_blank">
<polygon fill="#ffffff" stroke="#ffffff" points="200,-463 56,-463 56,-427 200,-427 200,-463"/>
<text text-anchor="middle" x="128" y="-448.4" font-family="meiryo UI" font-size="12.00" fill="#000000">自分が病気になったから </text>
<text text-anchor="middle" x="128" y="-435.4" font-family="meiryo UI" font-size="12.00" fill="#000000"> Q198L</text>
</a>
</g>
</g>
<!-- a11&#45;&gt;a12 -->
<!-- a11&#45;&gt;b10 -->
<g id="edge105" class="edge">
<title>a11&#45;&gt;b10</title>
<path fill="none" stroke="#000000" d="M194.6507,-507.0512C202.8016,-509.2588 211.1805,-511.5281 219.4619,-513.7709"/>
<polygon fill="#000000" stroke="#000000" points="218.552,-517.1505 229.1192,-516.3865 220.3819,-510.3939 218.552,-517.1505"/>
</g>
<!-- a13 -->
<g id="node13" class="node">
<title>a13</title>
<g id="a_node13"><a xlink:href="../../variable/Q198M.html" xlink:title="家族の介護のため \n Q198M" target="_blank">
<polygon fill="#ffffff" stroke="#ffffff" points="200,-419 56,-419 56,-383 200,-383 200,-419"/>
<text text-anchor="middle" x="128" y="-404.4" font-family="meiryo UI" font-size="12.00" fill="#000000">家族の介護のため </text>
<text text-anchor="middle" x="128" y="-391.4" font-family="meiryo UI" font-size="12.00" fill="#000000"> Q198M</text>
</a>
</g>
</g>
<!-- a12&#45;&gt;a13 -->
<!-- b12 -->
<g id="node33" class="node">
<title>b12</title>
<polygon fill="transparent" stroke="transparent" points="332,-463 260,-463 260,-427 332,-427 332,-463"/>
<text text-anchor="middle" x="296" y="-441.9" font-family="meiryo UI" font-size="12.00" fill="#000000">変更なし</text>
</g>
<!-- a12&#45;&gt;b12 -->
<g id="edge106" class="edge">
<title>a12&#45;&gt;b12</title>
<path fill="none" stroke="#000000" d="M200.1875,-445C216.6143,-445 233.0412,-445 249.468,-445"/>
<polygon fill="#000000" stroke="#000000" points="249.6961,-448.5001 259.696,-445 249.696,-441.5001 249.6961,-448.5001"/>
</g>
<!-- a14 -->
<g id="node14" class="node">
<title>a14</title>
<g id="a_node14"><a xlink:href="../../variable/Q198N.html" xlink:title="能力が生かせない仕事 \n だったから \n Q198N" target="_blank">
<polygon fill="#ffffff" stroke="#ffffff" points="196,-375 52,-375 52,-336 196,-336 196,-375"/>
<text text-anchor="middle" x="124" y="-365.4" font-family="meiryo UI" font-size="12.00" fill="#000000">能力が生かせない仕事 </text>
<text text-anchor="middle" x="124" y="-352.4" font-family="meiryo UI" font-size="12.00" fill="#000000"> だったから </text>
<text text-anchor="middle" x="124" y="-339.4" font-family="meiryo UI" font-size="12.00" fill="#000000"> Q198N</text>
</a>
</g>
</g>
<!-- a13&#45;&gt;a14 -->
<!-- b13 -->
<g id="node34" class="node">
<title>b13</title>
<polygon fill="transparent" stroke="transparent" points="332,-419 260,-419 260,-383 332,-383 332,-419"/>
<text text-anchor="middle" x="296" y="-397.9" font-family="meiryo UI" font-size="12.00" fill="#000000">変更なし</text>
</g>
<!-- a13&#45;&gt;b13 -->
<g id="edge109" class="edge">
<title>a13&#45;&gt;b13</title>
<path fill="none" stroke="#000000" d="M200.1875,-401C216.6143,-401 233.0412,-401 249.468,-401"/>
<polygon fill="#000000" stroke="#000000" points="249.6961,-404.5001 259.696,-401 249.696,-397.5001 249.6961,-404.5001"/>
</g>
<!-- a15 -->
<g id="node15" class="node">
<title>a15</title>
<g id="a_node15"><a xlink:href="../../variable/Q198O.html" xlink:title="良い条件の仕事が見つかった \n から・独立したから \n Q198O" target="_blank">
<polygon fill="#ffffff" stroke="#ffffff" points="200,-328 40,-328 40,-289 200,-289 200,-328"/>
<text text-anchor="middle" x="120" y="-318.4" font-family="meiryo UI" font-size="12.00" fill="#000000">良い条件の仕事が見つかった </text>
<text text-anchor="middle" x="120" y="-305.4" font-family="meiryo UI" font-size="12.00" fill="#000000"> から・独立したから </text>
<text text-anchor="middle" x="120" y="-292.4" font-family="meiryo UI" font-size="12.00" fill="#000000"> Q198O</text>
</a>
</g>
</g>
<!-- a14&#45;&gt;a15 -->
<!-- a16 -->
<g id="node16" class="node">
<title>a16</title>
<g id="a_node16"><a xlink:href="../../variable/Q198P.html" xlink:title="職場の上司との関係が \n うまくいかなくて \n Q198P" target="_blank">
<polygon fill="#ffffff" stroke="#ffffff" points="200,-281 56,-281 56,-242 200,-242 200,-281"/>
<text text-anchor="middle" x="128" y="-271.4" font-family="meiryo UI" font-size="12.00" fill="#000000">職場の上司との関係が </text>
<text text-anchor="middle" x="128" y="-258.4" font-family="meiryo UI" font-size="12.00" fill="#000000"> うまくいかなくて </text>
<text text-anchor="middle" x="128" y="-245.4" font-family="meiryo UI" font-size="12.00" fill="#000000"> Q198P</text>
</a>
</g>
</g>
<!-- a15&#45;&gt;a16 -->
<!-- b15 -->
<g id="node36" class="node">
<title>b15</title>
<polygon fill="transparent" stroke="transparent" points="332,-326.5 260,-326.5 260,-290.5 332,-290.5 332,-326.5"/>
<text text-anchor="middle" x="296" y="-305.4" font-family="meiryo UI" font-size="12.00" fill="#000000">変更なし</text>
</g>
<!-- a15&#45;&gt;b15 -->
<g id="edge112" class="edge">
<title>a15&#45;&gt;b15</title>
<path fill="none" stroke="#000000" d="M200.0938,-308.5C216.5367,-308.5 232.9796,-308.5 249.4225,-308.5"/>
<polygon fill="#000000" stroke="#000000" points="249.6606,-312.0001 259.6605,-308.5 249.6605,-305.0001 249.6606,-312.0001"/>
</g>
<!-- a17 -->
<g id="node17" class="node">
<title>a17</title>
<g id="a_node17"><a xlink:href="../../variable/Q198Q.html" xlink:title="職場の同僚との関係が \n うまくいかなくて \n Q198Q" target="_blank">
<polygon fill="#ffffff" stroke="#ffffff" points="200,-234 56,-234 56,-195 200,-195 200,-234"/>
<text text-anchor="middle" x="128" y="-224.4" font-family="meiryo UI" font-size="12.00" fill="#000000">職場の同僚との関係が </text>
<text text-anchor="middle" x="128" y="-211.4" font-family="meiryo UI" font-size="12.00" fill="#000000"> うまくいかなくて </text>
<text text-anchor="middle" x="128" y="-198.4" font-family="meiryo UI" font-size="12.00" fill="#000000"> Q198Q</text>
</a>
</g>
</g>
<!-- a16&#45;&gt;a17 -->
<!-- b16 -->
<g id="node37" class="node">
<title>b16</title>
<g id="a_node37"><a xlink:href="../../variable/Q198X.html" xlink:title="人間関係が \n 気まずくなったから \n Q198X" target="_blank">
<polygon fill="#ffffff" stroke="#ffffff" points="368,-281 224,-281 224,-242 368,-242 368,-281"/>
<text text-anchor="middle" x="296" y="-271.4" font-family="meiryo UI" font-size="12.00" fill="#000000">人間関係が </text>
<text text-anchor="middle" x="296" y="-258.4" font-family="meiryo UI" font-size="12.00" fill="#000000"> 気まずくなったから </text>
<text text-anchor="middle" x="296" y="-245.4" font-family="meiryo UI" font-size="12.00" fill="#000000"> Q198X</text>
</a>
</g>
</g>
<!-- a16&#45;&gt;b16 -->
<g id="edge115" class="edge">
<title>a16&#45;&gt;b16</title>
<path fill="none" stroke="#000000" d="M200.1875,-261.5C204.6085,-261.5 209.0296,-261.5 213.4506,-261.5"/>
<polygon fill="#000000" stroke="#000000" points="213.7664,-265.0001 223.7664,-261.5 213.7663,-258.0001 213.7664,-265.0001"/>
</g>
<!-- a18 -->
<g id="node18" class="node">
<title>a18</title>
<g id="a_node18"><a xlink:href="../../variable/Q198R.html" xlink:title="解雇された \n Q198R" target="_blank">
<polygon fill="#ffffff" stroke="#ffffff" points="200,-187 56,-187 56,-151 200,-151 200,-187"/>
<text text-anchor="middle" x="128" y="-172.4" font-family="meiryo UI" font-size="12.00" fill="#000000">解雇された </text>
<text text-anchor="middle" x="128" y="-159.4" font-family="meiryo UI" font-size="12.00" fill="#000000"> Q198R</text>
</a>
</g>
</g>
<!-- a17&#45;&gt;a18 -->
<!-- a17&#45;&gt;b16 -->
<g id="edge118" class="edge">
<title>a17&#45;&gt;b16</title>
<path fill="none" stroke="#000000" d="M197.8408,-234.0388C203.9942,-235.7603 210.2521,-237.511 216.4771,-239.2525"/>
<polygon fill="#000000" stroke="#000000" points="215.6392,-242.6524 226.2124,-241.9761 217.5251,-235.9113 215.6392,-242.6524"/>
</g>
<!-- a19 -->
<g id="node19" class="node">
<title>a19</title>
<g id="a_node19"><a xlink:href="../../variable/Q198S.html" xlink:title="大学や専門学校などでの \n 勉強や留学準備のため \n Q198S" target="_blank">
<polygon fill="#ffffff" stroke="#ffffff" points="200,-143 56,-143 56,-104 200,-104 200,-143"/>
<text text-anchor="middle" x="128" y="-133.4" font-family="meiryo UI" font-size="12.00" fill="#000000">大学や専門学校などでの </text>
<text text-anchor="middle" x="128" y="-120.4" font-family="meiryo UI" font-size="12.00" fill="#000000"> 勉強や留学準備のため </text>
<text text-anchor="middle" x="128" y="-107.4" font-family="meiryo UI" font-size="12.00" fill="#000000"> Q198S</text>
</a>
</g>
</g>
<!-- a18&#45;&gt;a19 -->
<!-- b18 -->
<g id="node39" class="node">
<title>b18</title>
<g id="a_node39"><a xlink:href="../../variable/Q198R.html" xlink:title="懲戒解雇された \n Q198R" target="_blank">
<polygon fill="#ffffff" stroke="#ffffff" points="368,-187 224,-187 224,-151 368,-151 368,-187"/>
<text text-anchor="middle" x="296" y="-172.4" font-family="meiryo UI" font-size="12.00" fill="#000000">懲戒解雇された </text>
<text text-anchor="middle" x="296" y="-159.4" font-family="meiryo UI" font-size="12.00" fill="#000000"> Q198R</text>
</a>
</g>
</g>
<!-- a18&#45;&gt;b18 -->
<g id="edge119" class="edge">
<title>a18&#45;&gt;b18</title>
<path fill="none" stroke="#000000" d="M200.1875,-169C204.6085,-169 209.0296,-169 213.4506,-169"/>
<polygon fill="#000000" stroke="#000000" points="213.7664,-172.5001 223.7664,-169 213.7663,-165.5001 213.7664,-172.5001"/>
</g>
<!-- a20 -->
<!-- a19&#45;&gt;a20 -->
<!-- b19 -->
<g id="node40" class="node">
<title>b19</title>
<polygon fill="transparent" stroke="transparent" points="332,-141.5 260,-141.5 260,-105.5 332,-105.5 332,-141.5"/>
<text text-anchor="middle" x="296" y="-120.4" font-family="meiryo UI" font-size="12.00" fill="#000000">変更なし</text>
</g>
<!-- a19&#45;&gt;b19 -->
<g id="edge122" class="edge">
<title>a19&#45;&gt;b19</title>
<path fill="none" stroke="#000000" d="M200.1875,-123.5C216.6143,-123.5 233.0412,-123.5 249.468,-123.5"/>
<polygon fill="#000000" stroke="#000000" points="249.6961,-127.0001 259.696,-123.5 249.696,-120.0001 249.6961,-127.0001"/>
</g>
<!-- a21 -->
<g id="node21" class="node">
<title>a21</title>
<g id="a_node21"><a xlink:href="../../variable/Q198T.html" xlink:title="その他 \n Q198T" target="_blank">
<polygon fill="#ffffff" stroke="#ffffff" points="200,-52 56,-52 56,-16 200,-16 200,-52"/>
<text text-anchor="middle" x="128" y="-37.4" font-family="meiryo UI" font-size="12.00" fill="#000000">その他 </text>
<text text-anchor="middle" x="128" y="-24.4" font-family="meiryo UI" font-size="12.00" fill="#000000"> Q198T</text>
</a>
</g>
</g>
<!-- a20&#45;&gt;a21 -->
<!-- b21 -->
<g id="node42" class="node">
<title>b21</title>
<polygon fill="transparent" stroke="transparent" points="332,-52 260,-52 260,-16 332,-16 332,-52"/>
<text text-anchor="middle" x="296" y="-30.9" font-family="meiryo UI" font-size="12.00" fill="#000000">変更なし</text>
</g>
<!-- a21&#45;&gt;b21 -->
<g id="edge126" class="edge">
<title>a21&#45;&gt;b21</title>
<path fill="none" stroke="#000000" d="M200.1875,-34C216.6143,-34 233.0412,-34 249.468,-34"/>
<polygon fill="#000000" stroke="#000000" points="249.6961,-37.5001 259.696,-34 249.696,-30.5001 249.6961,-37.5001"/>
</g>
<!-- b1&#45;&gt;b2 -->
<!-- c1 -->
<g id="node43" class="node">
<title>c1</title>
<polygon fill="transparent" stroke="transparent" points="504,-965 432,-965 432,-929 504,-929 504,-965"/>
<text text-anchor="middle" x="468" y="-943.9" font-family="meiryo UI" font-size="12.00" fill="#000000">変更なし</text>
</g>
<!-- b1&#45;&gt;c1 -->
<g id="edge82" class="edge">
<title>b1&#45;&gt;c1</title>
<path fill="none" stroke="#000000" d="M334.1914,-947C363.3361,-947 392.4808,-947 421.6256,-947"/>
<polygon fill="#000000" stroke="#000000" points="421.9344,-950.5001 431.9344,-947 421.9344,-943.5001 421.9344,-950.5001"/>
</g>
<!-- b2&#45;&gt;b3 -->
<!-- c2 -->
<g id="node44" class="node">
<title>c2</title>
<polygon fill="transparent" stroke="transparent" points="504,-919.5 432,-919.5 432,-883.5 504,-883.5 504,-919.5"/>
<text text-anchor="middle" x="468" y="-898.4" font-family="meiryo UI" font-size="12.00" fill="#000000">変更なし</text>
</g>
<!-- b2&#45;&gt;c2 -->
<g id="edge85" class="edge">
<title>b2&#45;&gt;c2</title>
<path fill="none" stroke="#000000" d="M334.1914,-901.5C363.3361,-901.5 392.4808,-901.5 421.6256,-901.5"/>
<polygon fill="#000000" stroke="#000000" points="421.9344,-905.0001 431.9344,-901.5 421.9344,-898.0001 421.9344,-905.0001"/>
</g>
<!-- b4 -->
<!-- b3&#45;&gt;b4 -->
<!-- c3 -->
<g id="node45" class="node">
<title>c3</title>
<polygon fill="transparent" stroke="transparent" points="504,-872.5 432,-872.5 432,-836.5 504,-836.5 504,-872.5"/>
<text text-anchor="middle" x="468" y="-851.4" font-family="meiryo UI" font-size="12.00" fill="#000000">変更なし</text>
</g>
<!-- b3&#45;&gt;c3 -->
<g id="edge88" class="edge">
<title>b3&#45;&gt;c3</title>
<path fill="none" stroke="#000000" d="M372.043,-854.5C388.4946,-854.5 404.9462,-854.5 421.3978,-854.5"/>
<polygon fill="#000000" stroke="#000000" points="421.6413,-858.0001 431.6413,-854.5 421.6412,-851.0001 421.6413,-858.0001"/>
</g>
<!-- b4&#45;&gt;b5 -->
<!-- b6 -->
<!-- b5&#45;&gt;b6 -->
<!-- c5 -->
<g id="node47" class="node">
<title>c5</title>
<polygon fill="transparent" stroke="transparent" points="504,-781.5 432,-781.5 432,-745.5 504,-745.5 504,-781.5"/>
<text text-anchor="middle" x="468" y="-760.4" font-family="meiryo UI" font-size="12.00" fill="#000000">変更なし</text>
</g>
<!-- b5&#45;&gt;c5 -->
<g id="edge92" class="edge">
<title>b5&#45;&gt;c5</title>
<path fill="none" stroke="#000000" d="M369.1406,-763.5C386.5726,-763.5 404.0045,-763.5 421.4364,-763.5"/>
<polygon fill="#000000" stroke="#000000" points="421.7001,-767.0001 431.7001,-763.5 421.7,-760.0001 421.7001,-767.0001"/>
</g>
<!-- b6&#45;&gt;b7 -->
<!-- b7&#45;&gt;b8 -->
<!-- c7 -->
<g id="node49" class="node">
<title>c7</title>
<polygon fill="transparent" stroke="transparent" points="504,-687.5 432,-687.5 432,-651.5 504,-651.5 504,-687.5"/>
<text text-anchor="middle" x="468" y="-666.4" font-family="meiryo UI" font-size="12.00" fill="#000000">変更なし</text>
</g>
<!-- b7&#45;&gt;c7 -->
<g id="edge95" class="edge">
<title>b7&#45;&gt;c7</title>
<path fill="none" stroke="#000000" d="M332.2813,-669.5C362.1299,-669.5 391.9785,-669.5 421.8271,-669.5"/>
<polygon fill="#000000" stroke="#000000" points="421.9497,-673.0001 431.9497,-669.5 421.9497,-666.0001 421.9497,-673.0001"/>
</g>
<!-- b9 -->
<!-- b8&#45;&gt;b9 -->
<!-- c8 -->
<g id="node50" class="node">
<title>c8</title>
<polygon fill="transparent" stroke="transparent" points="504,-642 432,-642 432,-606 504,-606 504,-642"/>
<text text-anchor="middle" x="468" y="-620.9" font-family="meiryo UI" font-size="12.00" fill="#000000">変更なし</text>
</g>
<!-- b8&#45;&gt;c8 -->
<g id="edge98" class="edge">
<title>b8&#45;&gt;c8</title>
<path fill="none" stroke="#000000" d="M332.2813,-624C362.1299,-624 391.9785,-624 421.8271,-624"/>
<polygon fill="#000000" stroke="#000000" points="421.9497,-627.5001 431.9497,-624 421.9497,-620.5001 421.9497,-627.5001"/>
</g>
<!-- b9&#45;&gt;b10 -->
<!-- b11 -->
<!-- b10&#45;&gt;b11 -->
<!-- c10 -->
<g id="node52" class="node">
<title>c10</title>
<polygon fill="transparent" stroke="transparent" points="504,-552.5 432,-552.5 432,-516.5 504,-516.5 504,-552.5"/>
<text text-anchor="middle" x="468" y="-531.4" font-family="meiryo UI" font-size="12.00" fill="#000000">変更なし</text>
</g>
<!-- b10&#45;&gt;c10 -->
<g id="edge101" class="edge">
<title>b10&#45;&gt;c10</title>
<path fill="none" stroke="#000000" d="M368.2266,-534.5C385.9283,-534.5 403.63,-534.5 421.3317,-534.5"/>
<polygon fill="#000000" stroke="#000000" points="421.7542,-538.0001 431.7542,-534.5 421.7541,-531.0001 421.7542,-538.0001"/>
</g>
<!-- b11&#45;&gt;b12 -->
<!-- b12&#45;&gt;b13 -->
<!-- c12 -->
<g id="node54" class="node">
<title>c12</title>
<polygon fill="transparent" stroke="transparent" points="504,-463 432,-463 432,-427 504,-427 504,-463"/>
<text text-anchor="middle" x="468" y="-441.9" font-family="meiryo UI" font-size="12.00" fill="#000000">変更なし</text>
</g>
<!-- b12&#45;&gt;c12 -->
<g id="edge107" class="edge">
<title>b12&#45;&gt;c12</title>
<path fill="none" stroke="#000000" d="M332.2813,-445C362.1299,-445 391.9785,-445 421.8271,-445"/>
<polygon fill="#000000" stroke="#000000" points="421.9497,-448.5001 431.9497,-445 421.9497,-441.5001 421.9497,-448.5001"/>
</g>
<!-- b14 -->
<!-- b13&#45;&gt;b14 -->
<!-- c13 -->
<g id="node55" class="node">
<title>c13</title>
<polygon fill="transparent" stroke="transparent" points="504,-419 432,-419 432,-383 504,-383 504,-419"/>
<text text-anchor="middle" x="468" y="-397.9" font-family="meiryo UI" font-size="12.00" fill="#000000">変更なし</text>
</g>
<!-- b13&#45;&gt;c13 -->
<g id="edge110" class="edge">
<title>b13&#45;&gt;c13</title>
<path fill="none" stroke="#000000" d="M332.2813,-401C362.1299,-401 391.9785,-401 421.8271,-401"/>
<polygon fill="#000000" stroke="#000000" points="421.9497,-404.5001 431.9497,-401 421.9497,-397.5001 421.9497,-404.5001"/>
</g>
<!-- b14&#45;&gt;b15 -->
<!-- b15&#45;&gt;b16 -->
<!-- c15 -->
<g id="node57" class="node">
<title>c15</title>
<polygon fill="transparent" stroke="transparent" points="504,-326.5 432,-326.5 432,-290.5 504,-290.5 504,-326.5"/>
<text text-anchor="middle" x="468" y="-305.4" font-family="meiryo UI" font-size="12.00" fill="#000000">変更なし</text>
</g>
<!-- b15&#45;&gt;c15 -->
<g id="edge113" class="edge">
<title>b15&#45;&gt;c15</title>
<path fill="none" stroke="#000000" d="M332.2813,-308.5C362.1299,-308.5 391.9785,-308.5 421.8271,-308.5"/>
<polygon fill="#000000" stroke="#000000" points="421.9497,-312.0001 431.9497,-308.5 421.9497,-305.0001 421.9497,-312.0001"/>
</g>
<!-- b17 -->
<!-- b16&#45;&gt;b17 -->
<!-- c16 -->
<g id="node58" class="node">
<title>c16</title>
<polygon fill="transparent" stroke="transparent" points="504,-279.5 432,-279.5 432,-243.5 504,-243.5 504,-279.5"/>
<text text-anchor="middle" x="468" y="-258.4" font-family="meiryo UI" font-size="12.00" fill="#000000">変更なし</text>
</g>
<!-- b16&#45;&gt;c16 -->
<g id="edge116" class="edge">
<title>b16&#45;&gt;c16</title>
<path fill="none" stroke="#000000" d="M368.2266,-261.5C385.9283,-261.5 403.63,-261.5 421.3317,-261.5"/>
<polygon fill="#000000" stroke="#000000" points="421.7542,-265.0001 431.7542,-261.5 421.7541,-258.0001 421.7542,-265.0001"/>
</g>
<!-- b17&#45;&gt;b18 -->
<!-- b18&#45;&gt;b19 -->
<!-- c18 -->
<g id="node60" class="node">
<title>c18</title>
<g id="a_node60"><a xlink:href="../../variable/Q198R.html" xlink:title="解雇された \n Q198R" target="_blank">
<polygon fill="#ffffff" stroke="#ffffff" points="540,-187 396,-187 396,-151 540,-151 540,-187"/>
<text text-anchor="middle" x="468" y="-172.4" font-family="meiryo UI" font-size="12.00" fill="#000000">解雇された </text>
<text text-anchor="middle" x="468" y="-159.4" font-family="meiryo UI" font-size="12.00" fill="#000000"> Q198R</text>
</a>
</g>
</g>
<!-- b18&#45;&gt;c18 -->
<g id="edge120" class="edge">
<title>b18&#45;&gt;c18</title>
<path fill="none" stroke="#000000" d="M368.2266,-169C373.9915,-169 379.7564,-169 385.5213,-169"/>
<polygon fill="#000000" stroke="#000000" points="385.8981,-172.5001 395.8981,-169 385.8981,-165.5001 385.8981,-172.5001"/>
</g>
<!-- b20 -->
<!-- b19&#45;&gt;b20 -->
<!-- c19 -->
<g id="node61" class="node">
<title>c19</title>
<polygon fill="transparent" stroke="transparent" points="504,-141.5 432,-141.5 432,-105.5 504,-105.5 504,-141.5"/>
<text text-anchor="middle" x="468" y="-120.4" font-family="meiryo UI" font-size="12.00" fill="#000000">変更なし</text>
</g>
<!-- b19&#45;&gt;c19 -->
<g id="edge123" class="edge">
<title>b19&#45;&gt;c19</title>
<path fill="none" stroke="#000000" d="M332.2813,-123.5C362.1299,-123.5 391.9785,-123.5 421.8271,-123.5"/>
<polygon fill="#000000" stroke="#000000" points="421.9497,-127.0001 431.9497,-123.5 421.9497,-120.0001 421.9497,-127.0001"/>
</g>
<!-- b20&#45;&gt;b21 -->
<!-- c21 -->
<g id="node63" class="node">
<title>c21</title>
<polygon fill="transparent" stroke="transparent" points="504,-52 432,-52 432,-16 504,-16 504,-52"/>
<text text-anchor="middle" x="468" y="-30.9" font-family="meiryo UI" font-size="12.00" fill="#000000">変更なし</text>
</g>
<!-- b21&#45;&gt;c21 -->
<g id="edge127" class="edge">
<title>b21&#45;&gt;c21</title>
<path fill="none" stroke="#000000" d="M332.2813,-34C362.1299,-34 391.9785,-34 421.8271,-34"/>
<polygon fill="#000000" stroke="#000000" points="421.9497,-37.5001 431.9497,-34 421.9497,-30.5001 421.9497,-37.5001"/>
</g>
<!-- c1&#45;&gt;c2 -->
<!-- d1 -->
<g id="node64" class="node">
<title>d1</title>
<polygon fill="transparent" stroke="transparent" points="636,-965 564,-965 564,-929 636,-929 636,-965"/>
<text text-anchor="middle" x="600" y="-943.9" font-family="meiryo UI" font-size="12.00" fill="#000000">変更なし</text>
</g>
<!-- c1&#45;&gt;d1 -->
<g id="edge83" class="edge">
<title>c1&#45;&gt;d1</title>
<path fill="none" stroke="#000000" d="M504.0938,-947C520.5367,-947 536.9796,-947 553.4225,-947"/>
<polygon fill="#000000" stroke="#000000" points="553.6606,-950.5001 563.6605,-947 553.6605,-943.5001 553.6606,-950.5001"/>
</g>
<!-- c2&#45;&gt;c3 -->
<!-- d2 -->
<g id="node65" class="node">
<title>d2</title>
<polygon fill="transparent" stroke="transparent" points="636,-919.5 564,-919.5 564,-883.5 636,-883.5 636,-919.5"/>
<text text-anchor="middle" x="600" y="-898.4" font-family="meiryo UI" font-size="12.00" fill="#000000">変更なし</text>
</g>
<!-- c2&#45;&gt;d2 -->
<g id="edge86" class="edge">
<title>c2&#45;&gt;d2</title>
<path fill="none" stroke="#000000" d="M504.0938,-901.5C520.5367,-901.5 536.9796,-901.5 553.4225,-901.5"/>
<polygon fill="#000000" stroke="#000000" points="553.6606,-905.0001 563.6605,-901.5 553.6605,-898.0001 553.6606,-905.0001"/>
</g>
<!-- c4 -->
<!-- c3&#45;&gt;c4 -->
<!-- d3 -->
<g id="node66" class="node">
<title>d3</title>
<polygon fill="transparent" stroke="transparent" points="636,-872.5 564,-872.5 564,-836.5 636,-836.5 636,-872.5"/>
<text text-anchor="middle" x="600" y="-851.4" font-family="meiryo UI" font-size="12.00" fill="#000000">変更なし</text>
</g>
<!-- c3&#45;&gt;d3 -->
<g id="edge89" class="edge">
<title>c3&#45;&gt;d3</title>
<path fill="none" stroke="#000000" d="M504.0938,-854.5C520.5367,-854.5 536.9796,-854.5 553.4225,-854.5"/>
<polygon fill="#000000" stroke="#000000" points="553.6606,-858.0001 563.6605,-854.5 553.6605,-851.0001 553.6606,-858.0001"/>
</g>
<!-- c4&#45;&gt;c5 -->
<!-- c6 -->
<!-- c5&#45;&gt;c6 -->
<!-- d5 -->
<g id="node68" class="node">
<title>d5</title>
<polygon fill="transparent" stroke="transparent" points="636,-781.5 564,-781.5 564,-745.5 636,-745.5 636,-781.5"/>
<text text-anchor="middle" x="600" y="-760.4" font-family="meiryo UI" font-size="12.00" fill="#000000">変更なし</text>
</g>
<!-- c5&#45;&gt;d5 -->
<g id="edge93" class="edge">
<title>c5&#45;&gt;d5</title>
<path fill="none" stroke="#000000" d="M504.0938,-763.5C520.5367,-763.5 536.9796,-763.5 553.4225,-763.5"/>
<polygon fill="#000000" stroke="#000000" points="553.6606,-767.0001 563.6605,-763.5 553.6605,-760.0001 553.6606,-767.0001"/>
</g>
<!-- c6&#45;&gt;c7 -->
<!-- c7&#45;&gt;c8 -->
<!-- d7 -->
<g id="node70" class="node">
<title>d7</title>
<polygon fill="transparent" stroke="transparent" points="636,-687.5 564,-687.5 564,-651.5 636,-651.5 636,-687.5"/>
<text text-anchor="middle" x="600" y="-666.4" font-family="meiryo UI" font-size="12.00" fill="#000000">変更なし</text>
</g>
<!-- c7&#45;&gt;d7 -->
<g id="edge96" class="edge">
<title>c7&#45;&gt;d7</title>
<path fill="none" stroke="#000000" d="M504.0938,-669.5C520.5367,-669.5 536.9796,-669.5 553.4225,-669.5"/>
<polygon fill="#000000" stroke="#000000" points="553.6606,-673.0001 563.6605,-669.5 553.6605,-666.0001 553.6606,-673.0001"/>
</g>
<!-- c9 -->
<!-- c8&#45;&gt;c9 -->
<!-- d8 -->
<g id="node71" class="node">
<title>d8</title>
<polygon fill="transparent" stroke="transparent" points="636,-642 564,-642 564,-606 636,-606 636,-642"/>
<text text-anchor="middle" x="600" y="-620.9" font-family="meiryo UI" font-size="12.00" fill="#000000">変更なし</text>
</g>
<!-- c8&#45;&gt;d8 -->
<g id="edge99" class="edge">
<title>c8&#45;&gt;d8</title>
<path fill="none" stroke="#000000" d="M504.0938,-624C520.5367,-624 536.9796,-624 553.4225,-624"/>
<polygon fill="#000000" stroke="#000000" points="553.6606,-627.5001 563.6605,-624 553.6605,-620.5001 553.6606,-627.5001"/>
</g>
<!-- c9&#45;&gt;c10 -->
<!-- c11 -->
<!-- c10&#45;&gt;c11 -->
<!-- d10 -->
<g id="node73" class="node">
<title>d10</title>
<g id="a_node73"><a xlink:href="../../variable/Q198Z.html" xlink:title="妊娠・出産のため \n Q198Z" target="_blank">
<polygon fill="#ffffff" stroke="#ffffff" points="664,-552.5 564,-552.5 564,-516.5 664,-516.5 664,-552.5"/>
<text text-anchor="middle" x="614" y="-537.9" font-family="meiryo UI" font-size="12.00" fill="#000000">妊娠・出産のため </text>
<text text-anchor="middle" x="614" y="-524.9" font-family="meiryo UI" font-size="12.00" fill="#000000"> Q198Z</text>
</a>
</g>
</g>
<!-- c10&#45;&gt;d10 -->
<g id="edge102" class="edge">
<title>c10&#45;&gt;d10</title>
<path fill="none" stroke="#000000" d="M504.2148,-534.5C520.6697,-534.5 537.1245,-534.5 553.5793,-534.5"/>
<polygon fill="#000000" stroke="#000000" points="553.8248,-538.0001 563.8248,-534.5 553.8247,-531.0001 553.8248,-538.0001"/>
</g>
<!-- d11 -->
<g id="node74" class="node">
<title>d11</title>
<g id="a_node74"><a xlink:href="../../variable/Q198AA.html" xlink:title="育児・子育てのため \n Q198AA" target="_blank">
<polygon fill="#ffffff" stroke="#ffffff" points="676,-507 564,-507 564,-471 676,-471 676,-507"/>
<text text-anchor="middle" x="620" y="-492.4" font-family="meiryo UI" font-size="12.00" fill="#000000">育児・子育てのため </text>
<text text-anchor="middle" x="620" y="-479.4" font-family="meiryo UI" font-size="12.00" fill="#000000"> Q198AA</text>
</a>
</g>
</g>
<!-- c10&#45;&gt;d11 -->
<g id="edge103" class="edge">
<title>c10&#45;&gt;d11</title>
<path fill="none" stroke="#000000" d="M504.0219,-523.7171C518.9194,-519.2577 536.682,-513.9406 553.7739,-508.8243"/>
<polygon fill="#000000" stroke="#000000" points="555.1569,-512.0638 563.7332,-505.843 553.1495,-505.3578 555.1569,-512.0638"/>
</g>
<!-- c11&#45;&gt;c12 -->
<!-- c12&#45;&gt;c13 -->
<!-- d12 -->
<g id="node75" class="node">
<title>d12</title>
<polygon fill="transparent" stroke="transparent" points="636,-463 564,-463 564,-427 636,-427 636,-463"/>
<text text-anchor="middle" x="600" y="-441.9" font-family="meiryo UI" font-size="12.00" fill="#000000">変更なし</text>
</g>
<!-- c12&#45;&gt;d12 -->
<g id="edge108" class="edge">
<title>c12&#45;&gt;d12</title>
<path fill="none" stroke="#000000" d="M504.0938,-445C520.5367,-445 536.9796,-445 553.4225,-445"/>
<polygon fill="#000000" stroke="#000000" points="553.6606,-448.5001 563.6605,-445 553.6605,-441.5001 553.6606,-448.5001"/>
</g>
<!-- c14 -->
<!-- c13&#45;&gt;c14 -->
<!-- d13 -->
<g id="node76" class="node">
<title>d13</title>
<polygon fill="transparent" stroke="transparent" points="636,-419 564,-419 564,-383 636,-383 636,-419"/>
<text text-anchor="middle" x="600" y="-397.9" font-family="meiryo UI" font-size="12.00" fill="#000000">変更なし</text>
</g>
<!-- c13&#45;&gt;d13 -->
<g id="edge111" class="edge">
<title>c13&#45;&gt;d13</title>
<path fill="none" stroke="#000000" d="M504.0938,-401C520.5367,-401 536.9796,-401 553.4225,-401"/>
<polygon fill="#000000" stroke="#000000" points="553.6606,-404.5001 563.6605,-401 553.6605,-397.5001 553.6606,-404.5001"/>
</g>
<!-- c14&#45;&gt;c15 -->
<!-- c15&#45;&gt;c16 -->
<!-- d15 -->
<g id="node78" class="node">
<title>d15</title>
<polygon fill="transparent" stroke="transparent" points="636,-326.5 564,-326.5 564,-290.5 636,-290.5 636,-326.5"/>
<text text-anchor="middle" x="600" y="-305.4" font-family="meiryo UI" font-size="12.00" fill="#000000">変更なし</text>
</g>
<!-- c15&#45;&gt;d15 -->
<g id="edge114" class="edge">
<title>c15&#45;&gt;d15</title>
<path fill="none" stroke="#000000" d="M504.0938,-308.5C520.5367,-308.5 536.9796,-308.5 553.4225,-308.5"/>
<polygon fill="#000000" stroke="#000000" points="553.6606,-312.0001 563.6605,-308.5 553.6605,-305.0001 553.6606,-312.0001"/>
</g>
<!-- c17 -->
<!-- c16&#45;&gt;c17 -->
<!-- d16 -->
<g id="node79" class="node">
<title>d16</title>
<polygon fill="transparent" stroke="transparent" points="636,-279.5 564,-279.5 564,-243.5 636,-243.5 636,-279.5"/>
<text text-anchor="middle" x="600" y="-258.4" font-family="meiryo UI" font-size="12.00" fill="#000000">変更なし</text>
</g>
<!-- c16&#45;&gt;d16 -->
<g id="edge117" class="edge">
<title>c16&#45;&gt;d16</title>
<path fill="none" stroke="#000000" d="M504.0938,-261.5C520.5367,-261.5 536.9796,-261.5 553.4225,-261.5"/>
<polygon fill="#000000" stroke="#000000" points="553.6606,-265.0001 563.6605,-261.5 553.6605,-258.0001 553.6606,-265.0001"/>
</g>
<!-- c17&#45;&gt;c18 -->
<!-- c18&#45;&gt;c19 -->
<!-- d18 -->
<g id="node81" class="node">
<title>d18</title>
<polygon fill="transparent" stroke="transparent" points="636,-187 564,-187 564,-151 636,-151 636,-187"/>
<text text-anchor="middle" x="600" y="-165.9" font-family="meiryo UI" font-size="12.00" fill="#000000">変更なし</text>
</g>
<!-- c18&#45;&gt;d18 -->
<g id="edge121" class="edge">
<title>c18&#45;&gt;d18</title>
<path fill="none" stroke="#000000" d="M540.1875,-169C544.5683,-169 548.9491,-169 553.3299,-169"/>
<polygon fill="#000000" stroke="#000000" points="553.5518,-172.5001 563.5518,-169 553.5517,-165.5001 553.5518,-172.5001"/>
</g>
<!-- c20 -->
<g id="node62" class="node">
<title>c20</title>
<g id="a_node62"><a xlink:href="../../variable/Q198Y.html" xlink:title="定年又は雇用契約の満了 \n Q198Y" target="_blank">
<polygon fill="#ffffff" stroke="#ffffff" points="540,-96 396,-96 396,-60 540,-60 540,-96"/>
<text text-anchor="middle" x="468" y="-81.4" font-family="meiryo UI" font-size="12.00" fill="#000000">定年又は雇用契約の満了 </text>
<text text-anchor="middle" x="468" y="-68.4" font-family="meiryo UI" font-size="12.00" fill="#000000"> Q198Y</text>
</a>
</g>
</g>
<!-- c19&#45;&gt;c20 -->
<!-- d19 -->
<g id="node82" class="node">
<title>d19</title>
<polygon fill="transparent" stroke="transparent" points="636,-141.5 564,-141.5 564,-105.5 636,-105.5 636,-141.5"/>
<text text-anchor="middle" x="600" y="-120.4" font-family="meiryo UI" font-size="12.00" fill="#000000">変更なし</text>
</g>
<!-- c19&#45;&gt;d19 -->
<g id="edge124" class="edge">
<title>c19&#45;&gt;d19</title>
<path fill="none" stroke="#000000" d="M504.0938,-123.5C520.5367,-123.5 536.9796,-123.5 553.4225,-123.5"/>
<polygon fill="#000000" stroke="#000000" points="553.6606,-127.0001 563.6605,-123.5 553.6605,-120.0001 553.6606,-127.0001"/>
</g>
<!-- c20&#45;&gt;c21 -->
<!-- d20 -->
<g id="node83" class="node">
<title>d20</title>
<polygon fill="transparent" stroke="transparent" points="636,-96 564,-96 564,-60 636,-60 636,-96"/>
<text text-anchor="middle" x="600" y="-74.9" font-family="meiryo UI" font-size="12.00" fill="#000000">変更なし</text>
</g>
<!-- c20&#45;&gt;d20 -->
<g id="edge125" class="edge">
<title>c20&#45;&gt;d20</title>
<path fill="none" stroke="#000000" d="M540.1875,-78C544.5683,-78 548.9491,-78 553.3299,-78"/>
<polygon fill="#000000" stroke="#000000" points="553.5518,-81.5001 563.5518,-78 553.5517,-74.5001 553.5518,-81.5001"/>
</g>
<!-- d21 -->
<g id="node84" class="node">
<title>d21</title>
<polygon fill="transparent" stroke="transparent" points="636,-52 564,-52 564,-16 636,-16 636,-52"/>
<text text-anchor="middle" x="600" y="-30.9" font-family="meiryo UI" font-size="12.00" fill="#000000">変更なし</text>
</g>
<!-- c21&#45;&gt;d21 -->
<g id="edge128" class="edge">
<title>c21&#45;&gt;d21</title>
<path fill="none" stroke="#000000" d="M504.0938,-34C520.5367,-34 536.9796,-34 553.4225,-34"/>
<polygon fill="#000000" stroke="#000000" points="553.6606,-37.5001 563.6605,-34 553.6605,-30.5001 553.6606,-37.5001"/>
</g>
<!-- d1&#45;&gt;d2 -->
<!-- d2&#45;&gt;d3 -->
<!-- d4 -->
<!-- d3&#45;&gt;d4 -->
<!-- d4&#45;&gt;d5 -->
<!-- d6 -->
<!-- d5&#45;&gt;d6 -->
<!-- d6&#45;&gt;d7 -->
<!-- d7&#45;&gt;d8 -->
<!-- d9 -->
<!-- d8&#45;&gt;d9 -->
<!-- d9&#45;&gt;d10 -->
<!-- d10&#45;&gt;d11 -->
<!-- d11&#45;&gt;d12 -->
<!-- d12&#45;&gt;d13 -->
<!-- d14 -->
<!-- d13&#45;&gt;d14 -->
<!-- d14&#45;&gt;d15 -->
<!-- d15&#45;&gt;d16 -->
<!-- d17 -->
<!-- d16&#45;&gt;d17 -->
<!-- d17&#45;&gt;d18 -->
<!-- d18&#45;&gt;d19 -->
<!-- d19&#45;&gt;d20 -->
<!-- d20&#45;&gt;d21 -->
</g>
</svg>
