<?xml version="1.0" encoding="UTF-8" standalone="no"?>
<!DOCTYPE svg PUBLIC "-//W3C//DTD SVG 1.1//EN"
 "http://www.w3.org/Graphics/SVG/1.1/DTD/svg11.dtd">
<!-- Generated by graphviz version 2.40.1 (20161225.0304)
 -->
<!-- Title: sentaku_kai Pages: 1 -->
<svg width="628pt" height="1084pt"
 viewBox="0.00 0.00 628.00 1084.00" xmlns="http://www.w3.org/2000/svg" xmlns:xlink="http://www.w3.org/1999/xlink">
<g id="graph0" class="graph" transform="scale(1 1) rotate(0) translate(4 1080)">
<title>sentaku_kai</title>
<polygon fill="#ffffff" stroke="transparent" points="-4,4 -4,-1080 624,-1080 624,4 -4,4"/>
<g id="clust1" class="cluster">
<title>cluster_0</title>
<polygon fill="#ccdfff" stroke="#ccdfff" points="8,-8 8,-1068 204,-1068 204,-8 8,-8"/>
<text text-anchor="middle" x="106" y="-1051.2" font-family="Times,serif" font-size="16.00" fill="#000000">第2～4回・第6～10回</text>
</g>
<g id="clust2" class="cluster">
<title>cluster_1</title>
<polygon fill="#edf4ff" stroke="#edf4ff" points="212,-8 212,-1068 408,-1068 408,-8 212,-8"/>
<text text-anchor="middle" x="310" y="-1051.2" font-family="Times,serif" font-size="16.00" fill="#000000">第11～第20回</text>
</g>
<g id="clust3" class="cluster">
<title>cluster_2</title>
<polygon fill="#ccdfff" stroke="#ccdfff" points="416,-8 416,-1068 612,-1068 612,-8 416,-8"/>
<text text-anchor="middle" x="514" y="-1051.2" font-family="Times,serif" font-size="16.00" fill="#000000">第21回~</text>
</g>
<!-- a1 -->
<g id="node1" class="node">
<title>a1</title>
<g id="a_node1"><a xlink:href="../../variable/Q191A.html" xlink:title="収入・給与がよい \n Q191A" target="_blank">
<polygon fill="#ffffff" stroke="#ffffff" points="196,-1034 16,-1034 16,-998 196,-998 196,-1034"/>
<text text-anchor="middle" x="106" y="-1019.2" font-family="meiryo UI" font-size="11.00" fill="#000000">収入・給与がよい </text>
<text text-anchor="middle" x="106" y="-1007.2" font-family="meiryo UI" font-size="11.00" fill="#000000"> Q191A</text>
</a>
</g>
</g>
<!-- a2 -->
<g id="node2" class="node">
<title>a2</title>
<g id="a_node2"><a xlink:href="../../variable/Q191A.html" xlink:title="休日、休暇が多い \n Q191B" target="_blank">
<polygon fill="#ffffff" stroke="#ffffff" points="196,-984 16,-984 16,-948 196,-948 196,-984"/>
<text text-anchor="middle" x="106" y="-969.2" font-family="meiryo UI" font-size="11.00" fill="#000000">休日、休暇が多い </text>
<text text-anchor="middle" x="106" y="-957.2" font-family="meiryo UI" font-size="11.00" fill="#000000"> Q191B</text>
</a>
</g>
</g>
<!-- a1&#45;&gt;a2 -->
<!-- b1 -->
<g id="node21" class="node">
<title>b1</title>
<polygon fill="transparent" stroke="transparent" points="346,-1034 274,-1034 274,-998 346,-998 346,-1034"/>
<text text-anchor="middle" x="310" y="-1013.2" font-family="meiryo UI" font-size="11.00" fill="#000000">変更なし</text>
</g>
<!-- a1&#45;&gt;b1 -->
<g id="edge58" class="edge">
<title>a1&#45;&gt;b1</title>
<path fill="none" stroke="#000000" d="M196.0469,-1016C218.6656,-1016 241.2843,-1016 263.903,-1016"/>
<polygon fill="#000000" stroke="#000000" points="263.9446,-1019.5001 273.9445,-1016 263.9445,-1012.5001 263.9446,-1019.5001"/>
</g>
<!-- a3 -->
<g id="node3" class="node">
<title>a3</title>
<g id="a_node3"><a xlink:href="../../variable/Q191C.html" xlink:title="拘束時間が少ない、\n 残業が少ない\n Q191C" target="_blank">
<polygon fill="#ffffff" stroke="#ffffff" points="196,-934 16,-934 16,-890 196,-890 196,-934"/>
<text text-anchor="middle" x="106" y="-921.2" font-family="meiryo UI" font-size="11.00" fill="#000000">拘束時間が少ない、</text>
<text text-anchor="middle" x="106" y="-909.2" font-family="meiryo UI" font-size="11.00" fill="#000000"> 残業が少ない</text>
<text text-anchor="middle" x="106" y="-897.2" font-family="meiryo UI" font-size="11.00" fill="#000000"> Q191C</text>
</a>
</g>
</g>
<!-- a2&#45;&gt;a3 -->
<!-- b2 -->
<g id="node22" class="node">
<title>b2</title>
<polygon fill="transparent" stroke="transparent" points="346,-984 274,-984 274,-948 346,-948 346,-984"/>
<text text-anchor="middle" x="310" y="-963.2" font-family="meiryo UI" font-size="11.00" fill="#000000">変更なし</text>
</g>
<!-- a2&#45;&gt;b2 -->
<g id="edge60" class="edge">
<title>a2&#45;&gt;b2</title>
<path fill="none" stroke="#000000" d="M196.0469,-966C218.6656,-966 241.2843,-966 263.903,-966"/>
<polygon fill="#000000" stroke="#000000" points="263.9446,-969.5001 273.9445,-966 263.9445,-962.5001 263.9446,-969.5001"/>
</g>
<!-- a4 -->
<g id="node4" class="node">
<title>a4</title>
<g id="a_node4"><a xlink:href="../../variable/Q191D.html" xlink:title="労働時聞が自由になる \n Q191D" target="_blank">
<polygon fill="#ffffff" stroke="#ffffff" points="196,-876 16,-876 16,-840 196,-840 196,-876"/>
<text text-anchor="middle" x="106" y="-861.2" font-family="meiryo UI" font-size="11.00" fill="#000000">労働時聞が自由になる </text>
<text text-anchor="middle" x="106" y="-849.2" font-family="meiryo UI" font-size="11.00" fill="#000000"> Q191D</text>
</a>
</g>
</g>
<!-- a3&#45;&gt;a4 -->
<!-- b3 -->
<g id="node23" class="node">
<title>b3</title>
<g id="a_node23"><a xlink:href="../../variable/Q191U.html" xlink:title="拘束時間が少ない、\n 労働時間が自由になる\n Q191U" target="_blank">
<polygon fill="#ffffff" stroke="#ffffff" points="400,-934 220,-934 220,-890 400,-890 400,-934"/>
<text text-anchor="middle" x="310" y="-921.2" font-family="meiryo UI" font-size="11.00" fill="#000000">拘束時間が少ない、</text>
<text text-anchor="middle" x="310" y="-909.2" font-family="meiryo UI" font-size="11.00" fill="#000000"> 労働時間が自由になる</text>
<text text-anchor="middle" x="310" y="-897.2" font-family="meiryo UI" font-size="11.00" fill="#000000"> Q191U</text>
</a>
</g>
</g>
<!-- a3&#45;&gt;b3 -->
<g id="edge62" class="edge">
<title>a3&#45;&gt;b3</title>
<path fill="none" stroke="#000000" d="M196.0469,-912C200.4703,-912 204.8938,-912 209.3173,-912"/>
<polygon fill="#000000" stroke="#000000" points="209.6388,-915.5001 219.6387,-912 209.6387,-908.5001 209.6388,-915.5001"/>
</g>
<!-- a5 -->
<g id="node5" class="node">
<title>a5</title>
<g id="a_node5"><a xlink:href="../../variable/Q191E.html" xlink:title="家に近い、\n 通勤距離が短い \n Q191E" target="_blank">
<polygon fill="#ffffff" stroke="#ffffff" points="196,-826 16,-826 16,-782 196,-782 196,-826"/>
<text text-anchor="middle" x="106" y="-813.2" font-family="meiryo UI" font-size="11.00" fill="#000000">家に近い、</text>
<text text-anchor="middle" x="106" y="-801.2" font-family="meiryo UI" font-size="11.00" fill="#000000"> 通勤距離が短い </text>
<text text-anchor="middle" x="106" y="-789.2" font-family="meiryo UI" font-size="11.00" fill="#000000"> Q191E</text>
</a>
</g>
</g>
<!-- a4&#45;&gt;a5 -->
<!-- a4&#45;&gt;b3 -->
<g id="edge63" class="edge">
<title>a4&#45;&gt;b3</title>
<path fill="none" stroke="#000000" d="M174.0525,-876.0139C187.768,-879.6445 202.4077,-883.5197 216.8114,-887.3324"/>
<polygon fill="#000000" stroke="#000000" points="216.1685,-890.7827 226.7312,-889.9582 217.9598,-884.0158 216.1685,-890.7827"/>
</g>
<!-- a6 -->
<g id="node6" class="node">
<title>a6</title>
<g id="a_node6"><a xlink:href="../../variable/Q191F.html" xlink:title="転勤がない、少ない \n Q191F" target="_blank">
<polygon fill="#ffffff" stroke="#ffffff" points="196,-768 16,-768 16,-732 196,-732 196,-768"/>
<text text-anchor="middle" x="106" y="-753.2" font-family="meiryo UI" font-size="11.00" fill="#000000">転勤がない、少ない </text>
<text text-anchor="middle" x="106" y="-741.2" font-family="meiryo UI" font-size="11.00" fill="#000000"> Q191F</text>
</a>
</g>
</g>
<!-- a5&#45;&gt;a6 -->
<!-- b5 -->
<g id="node25" class="node">
<title>b5</title>
<polygon fill="transparent" stroke="transparent" points="346,-822 274,-822 274,-786 346,-786 346,-822"/>
<text text-anchor="middle" x="310" y="-801.2" font-family="meiryo UI" font-size="11.00" fill="#000000">変更なし</text>
</g>
<!-- a5&#45;&gt;b5 -->
<g id="edge65" class="edge">
<title>a5&#45;&gt;b5</title>
<path fill="none" stroke="#000000" d="M196.0469,-804C218.6656,-804 241.2843,-804 263.903,-804"/>
<polygon fill="#000000" stroke="#000000" points="263.9446,-807.5001 273.9445,-804 263.9445,-800.5001 263.9446,-807.5001"/>
</g>
<!-- a7 -->
<g id="node7" class="node">
<title>a7</title>
<g id="a_node7"><a xlink:href="../../variable/Q191G.html" xlink:title="安定している、\n 失業のおそれがない \n Q191G" target="_blank">
<polygon fill="#ffffff" stroke="#ffffff" points="196,-718 16,-718 16,-674 196,-674 196,-718"/>
<text text-anchor="middle" x="106" y="-705.2" font-family="meiryo UI" font-size="11.00" fill="#000000">安定している、</text>
<text text-anchor="middle" x="106" y="-693.2" font-family="meiryo UI" font-size="11.00" fill="#000000"> 失業のおそれがない </text>
<text text-anchor="middle" x="106" y="-681.2" font-family="meiryo UI" font-size="11.00" fill="#000000"> Q191G</text>
</a>
</g>
</g>
<!-- a6&#45;&gt;a7 -->
<!-- b6 -->
<g id="node26" class="node">
<title>b6</title>
<polygon fill="transparent" stroke="transparent" points="346,-768 274,-768 274,-732 346,-732 346,-768"/>
<text text-anchor="middle" x="310" y="-747.2" font-family="meiryo UI" font-size="11.00" fill="#000000">変更なし</text>
</g>
<!-- a6&#45;&gt;b6 -->
<g id="edge67" class="edge">
<title>a6&#45;&gt;b6</title>
<path fill="none" stroke="#000000" d="M196.0469,-750C218.6656,-750 241.2843,-750 263.903,-750"/>
<polygon fill="#000000" stroke="#000000" points="263.9446,-753.5001 273.9445,-750 263.9445,-746.5001 263.9446,-753.5001"/>
</g>
<!-- a8 -->
<g id="node8" class="node">
<title>a8</title>
<g id="a_node8"><a xlink:href="../../variable/Q191H.html" xlink:title="将来発展する可能性がある \n Q191H" target="_blank">
<polygon fill="#ffffff" stroke="#ffffff" points="196,-660 16,-660 16,-624 196,-624 196,-660"/>
<text text-anchor="middle" x="106" y="-645.2" font-family="meiryo UI" font-size="11.00" fill="#000000">将来発展する可能性がある </text>
<text text-anchor="middle" x="106" y="-633.2" font-family="meiryo UI" font-size="11.00" fill="#000000"> Q191H</text>
</a>
</g>
</g>
<!-- a7&#45;&gt;a8 -->
<!-- b7 -->
<g id="node27" class="node">
<title>b7</title>
<polygon fill="transparent" stroke="transparent" points="346,-714 274,-714 274,-678 346,-678 346,-714"/>
<text text-anchor="middle" x="310" y="-693.2" font-family="meiryo UI" font-size="11.00" fill="#000000">変更なし</text>
</g>
<!-- a7&#45;&gt;b7 -->
<g id="edge69" class="edge">
<title>a7&#45;&gt;b7</title>
<path fill="none" stroke="#000000" d="M196.0469,-696C218.6656,-696 241.2843,-696 263.903,-696"/>
<polygon fill="#000000" stroke="#000000" points="263.9446,-699.5001 273.9445,-696 263.9445,-692.5001 263.9446,-699.5001"/>
</g>
<!-- a9 -->
<g id="node9" class="node">
<title>a9</title>
<g id="a_node9"><a xlink:href="../../variable/Q191I.html" xlink:title="世間一般に \n 知られている企業である \n Q191I" target="_blank">
<polygon fill="#ffffff" stroke="#ffffff" points="196,-610 16,-610 16,-566 196,-566 196,-610"/>
<text text-anchor="middle" x="106" y="-597.2" font-family="meiryo UI" font-size="11.00" fill="#000000">世間一般に </text>
<text text-anchor="middle" x="106" y="-585.2" font-family="meiryo UI" font-size="11.00" fill="#000000"> 知られている企業である </text>
<text text-anchor="middle" x="106" y="-573.2" font-family="meiryo UI" font-size="11.00" fill="#000000"> Q191I</text>
</a>
</g>
</g>
<!-- a8&#45;&gt;a9 -->
<!-- b8 -->
<g id="node28" class="node">
<title>b8</title>
<polygon fill="transparent" stroke="transparent" points="346,-660 274,-660 274,-624 346,-624 346,-660"/>
<text text-anchor="middle" x="310" y="-639.2" font-family="meiryo UI" font-size="11.00" fill="#000000">変更なし</text>
</g>
<!-- a8&#45;&gt;b8 -->
<g id="edge71" class="edge">
<title>a8&#45;&gt;b8</title>
<path fill="none" stroke="#000000" d="M196.0469,-642C218.6656,-642 241.2843,-642 263.903,-642"/>
<polygon fill="#000000" stroke="#000000" points="263.9446,-645.5001 273.9445,-642 263.9445,-638.5001 263.9446,-645.5001"/>
</g>
<!-- a10 -->
<g id="node10" class="node">
<title>a10</title>
<g id="a_node10"><a xlink:href="../../variable/Q191J.html" xlink:title="結婚後も続けやすい \n Q191J" target="_blank">
<polygon fill="#ffffff" stroke="#ffffff" points="196,-552 16,-552 16,-516 196,-516 196,-552"/>
<text text-anchor="middle" x="106" y="-537.2" font-family="meiryo UI" font-size="11.00" fill="#000000">結婚後も続けやすい </text>
<text text-anchor="middle" x="106" y="-525.2" font-family="meiryo UI" font-size="11.00" fill="#000000"> Q191J</text>
</a>
</g>
</g>
<!-- a9&#45;&gt;a10 -->
<!-- a11 -->
<g id="node11" class="node">
<title>a11</title>
<g id="a_node11"><a xlink:href="../../variable/Q191K.html" xlink:title="出産後も続けやすい \n Q191K" target="_blank">
<polygon fill="#ffffff" stroke="#ffffff" points="196,-502 16,-502 16,-466 196,-466 196,-502"/>
<text text-anchor="middle" x="106" y="-487.2" font-family="meiryo UI" font-size="11.00" fill="#000000">出産後も続けやすい </text>
<text text-anchor="middle" x="106" y="-475.2" font-family="meiryo UI" font-size="11.00" fill="#000000"> Q191K</text>
</a>
</g>
</g>
<!-- a10&#45;&gt;a11 -->
<!-- b10 -->
<g id="node30" class="node">
<title>b10</title>
<g id="a_node30"><a xlink:href="../../variable/Q191V.html" xlink:title="結婚・出産後も続けやすい \n Q191V" target="_blank">
<polygon fill="#ffffff" stroke="#ffffff" points="400,-552 220,-552 220,-516 400,-516 400,-552"/>
<text text-anchor="middle" x="310" y="-537.2" font-family="meiryo UI" font-size="11.00" fill="#000000">結婚・出産後も続けやすい </text>
<text text-anchor="middle" x="310" y="-525.2" font-family="meiryo UI" font-size="11.00" fill="#000000"> Q191V</text>
</a>
</g>
</g>
<!-- a10&#45;&gt;b10 -->
<g id="edge73" class="edge">
<title>a10&#45;&gt;b10</title>
<path fill="none" stroke="#000000" d="M196.0469,-534C200.4703,-534 204.8938,-534 209.3173,-534"/>
<polygon fill="#000000" stroke="#000000" points="209.6388,-537.5001 219.6387,-534 209.6387,-530.5001 209.6388,-537.5001"/>
</g>
<!-- a12 -->
<g id="node12" class="node">
<title>a12</title>
<g id="a_node12"><a xlink:href="../../variable/Q191L.html" xlink:title="技術が身につく \n Q191L" target="_blank">
<polygon fill="#ffffff" stroke="#ffffff" points="196,-452 16,-452 16,-416 196,-416 196,-452"/>
<text text-anchor="middle" x="106" y="-437.2" font-family="meiryo UI" font-size="11.00" fill="#000000">技術が身につく </text>
<text text-anchor="middle" x="106" y="-425.2" font-family="meiryo UI" font-size="11.00" fill="#000000"> Q191L</text>
</a>
</g>
</g>
<!-- a11&#45;&gt;a12 -->
<!-- a11&#45;&gt;b10 -->
<g id="edge75" class="edge">
<title>a11&#45;&gt;b10</title>
<path fill="none" stroke="#000000" d="M179.5406,-502.0247C194.7027,-505.7409 210.7769,-509.6806 226.2697,-513.4779"/>
<polygon fill="#000000" stroke="#000000" points="225.8056,-516.9676 236.3513,-515.9489 227.472,-510.1689 225.8056,-516.9676"/>
</g>
<!-- a13 -->
<g id="node13" class="node">
<title>a13</title>
<g id="a_node13"><a xlink:href="../../variable/Q191M.html" xlink:title="能力が生かせる \n Q191M" target="_blank">
<polygon fill="#ffffff" stroke="#ffffff" points="196,-402 16,-402 16,-366 196,-366 196,-402"/>
<text text-anchor="middle" x="106" y="-387.2" font-family="meiryo UI" font-size="11.00" fill="#000000">能力が生かせる </text>
<text text-anchor="middle" x="106" y="-375.2" font-family="meiryo UI" font-size="11.00" fill="#000000"> Q191M</text>
</a>
</g>
</g>
<!-- a12&#45;&gt;a13 -->
<!-- b12 -->
<g id="node32" class="node">
<title>b12</title>
<polygon fill="transparent" stroke="transparent" points="346,-452 274,-452 274,-416 346,-416 346,-452"/>
<text text-anchor="middle" x="310" y="-431.2" font-family="meiryo UI" font-size="11.00" fill="#000000">変更なし</text>
</g>
<!-- a12&#45;&gt;b12 -->
<g id="edge76" class="edge">
<title>a12&#45;&gt;b12</title>
<path fill="none" stroke="#000000" d="M196.0469,-434C218.6656,-434 241.2843,-434 263.903,-434"/>
<polygon fill="#000000" stroke="#000000" points="263.9446,-437.5001 273.9445,-434 263.9445,-430.5001 263.9446,-437.5001"/>
</g>
<!-- a14 -->
<g id="node14" class="node">
<title>a14</title>
<g id="a_node14"><a xlink:href="../../variable/Q191N.html" xlink:title="仕事内容に興味がある \n Q191N" target="_blank">
<polygon fill="#ffffff" stroke="#ffffff" points="196,-352 16,-352 16,-316 196,-316 196,-352"/>
<text text-anchor="middle" x="106" y="-337.2" font-family="meiryo UI" font-size="11.00" fill="#000000">仕事内容に興味がある </text>
<text text-anchor="middle" x="106" y="-325.2" font-family="meiryo UI" font-size="11.00" fill="#000000"> Q191N</text>
</a>
</g>
</g>
<!-- a13&#45;&gt;a14 -->
<!-- b13 -->
<g id="node33" class="node">
<title>b13</title>
<polygon fill="transparent" stroke="transparent" points="346,-402 274,-402 274,-366 346,-366 346,-402"/>
<text text-anchor="middle" x="310" y="-381.2" font-family="meiryo UI" font-size="11.00" fill="#000000">変更なし</text>
</g>
<!-- a13&#45;&gt;b13 -->
<g id="edge78" class="edge">
<title>a13&#45;&gt;b13</title>
<path fill="none" stroke="#000000" d="M196.0469,-384C218.6656,-384 241.2843,-384 263.903,-384"/>
<polygon fill="#000000" stroke="#000000" points="263.9446,-387.5001 273.9445,-384 263.9445,-380.5001 263.9446,-387.5001"/>
</g>
<!-- a15 -->
<g id="node15" class="node">
<title>a15</title>
<g id="a_node15"><a xlink:href="../../variable/Q191O.html" xlink:title="管理職になれる \n Q191O" target="_blank">
<polygon fill="#ffffff" stroke="#ffffff" points="196,-302 16,-302 16,-266 196,-266 196,-302"/>
<text text-anchor="middle" x="106" y="-287.2" font-family="meiryo UI" font-size="11.00" fill="#000000">管理職になれる </text>
<text text-anchor="middle" x="106" y="-275.2" font-family="meiryo UI" font-size="11.00" fill="#000000"> Q191O</text>
</a>
</g>
</g>
<!-- a14&#45;&gt;a15 -->
<!-- b14 -->
<g id="node34" class="node">
<title>b14</title>
<polygon fill="transparent" stroke="transparent" points="346,-352 274,-352 274,-316 346,-316 346,-352"/>
<text text-anchor="middle" x="310" y="-331.2" font-family="meiryo UI" font-size="11.00" fill="#000000">変更なし</text>
</g>
<!-- a14&#45;&gt;b14 -->
<g id="edge80" class="edge">
<title>a14&#45;&gt;b14</title>
<path fill="none" stroke="#000000" d="M196.0469,-334C218.6656,-334 241.2843,-334 263.903,-334"/>
<polygon fill="#000000" stroke="#000000" points="263.9446,-337.5001 273.9445,-334 263.9445,-330.5001 263.9446,-337.5001"/>
</g>
<!-- a16 -->
<g id="node16" class="node">
<title>a16</title>
<g id="a_node16"><a xlink:href="../../variable/Q191P.html" xlink:title="外国に行ける \n Q191P" target="_blank">
<polygon fill="#ffffff" stroke="#ffffff" points="196,-252 16,-252 16,-216 196,-216 196,-252"/>
<text text-anchor="middle" x="106" y="-237.2" font-family="meiryo UI" font-size="11.00" fill="#000000">外国に行ける </text>
<text text-anchor="middle" x="106" y="-225.2" font-family="meiryo UI" font-size="11.00" fill="#000000"> Q191P</text>
</a>
</g>
</g>
<!-- a15&#45;&gt;a16 -->
<!-- a17 -->
<g id="node17" class="node">
<title>a17</title>
<g id="a_node17"><a xlink:href="../../variable/Q191Q.html" xlink:title="結婚相手が見つかる \n Q191Q" target="_blank">
<polygon fill="#ffffff" stroke="#ffffff" points="196,-202 16,-202 16,-166 196,-166 196,-202"/>
<text text-anchor="middle" x="106" y="-187.2" font-family="meiryo UI" font-size="11.00" fill="#000000">結婚相手が見つかる </text>
<text text-anchor="middle" x="106" y="-175.2" font-family="meiryo UI" font-size="11.00" fill="#000000"> Q191Q</text>
</a>
</g>
</g>
<!-- a16&#45;&gt;a17 -->
<!-- a18 -->
<g id="node18" class="node">
<title>a18</title>
<g id="a_node18"><a xlink:href="../../variable/Q191R.html" xlink:title="学校がすすめるので \n Q191R" target="_blank">
<polygon fill="#ffffff" stroke="#ffffff" points="196,-152 16,-152 16,-116 196,-116 196,-152"/>
<text text-anchor="middle" x="106" y="-137.2" font-family="meiryo UI" font-size="11.00" fill="#000000">学校がすすめるので </text>
<text text-anchor="middle" x="106" y="-125.2" font-family="meiryo UI" font-size="11.00" fill="#000000"> Q191R</text>
</a>
</g>
</g>
<!-- a17&#45;&gt;a18 -->
<!-- a19 -->
<g id="node19" class="node">
<title>a19</title>
<g id="a_node19"><a xlink:href="../../variable/Q191S.html" xlink:title="家族がすすめるので \n Q191S" target="_blank">
<polygon fill="#ffffff" stroke="#ffffff" points="196,-102 16,-102 16,-66 196,-66 196,-102"/>
<text text-anchor="middle" x="106" y="-87.2" font-family="meiryo UI" font-size="11.00" fill="#000000">家族がすすめるので </text>
<text text-anchor="middle" x="106" y="-75.2" font-family="meiryo UI" font-size="11.00" fill="#000000"> Q191S</text>
</a>
</g>
</g>
<!-- a18&#45;&gt;a19 -->
<!-- a20 -->
<g id="node20" class="node">
<title>a20</title>
<g id="a_node20"><a xlink:href="../../variable/Q191T.html" xlink:title="その他 \n Q191T" target="_blank">
<polygon fill="#ffffff" stroke="#ffffff" points="196,-52 16,-52 16,-16 196,-16 196,-52"/>
<text text-anchor="middle" x="106" y="-37.2" font-family="meiryo UI" font-size="11.00" fill="#000000">その他 </text>
<text text-anchor="middle" x="106" y="-25.2" font-family="meiryo UI" font-size="11.00" fill="#000000"> Q191T</text>
</a>
</g>
</g>
<!-- a19&#45;&gt;a20 -->
<!-- b20 -->
<g id="node40" class="node">
<title>b20</title>
<polygon fill="transparent" stroke="transparent" points="346,-52 274,-52 274,-16 346,-16 346,-52"/>
<text text-anchor="middle" x="310" y="-31.2" font-family="meiryo UI" font-size="11.00" fill="#000000">変更なし</text>
</g>
<!-- a20&#45;&gt;b20 -->
<g id="edge82" class="edge">
<title>a20&#45;&gt;b20</title>
<path fill="none" stroke="#000000" d="M196.0469,-34C218.6656,-34 241.2843,-34 263.903,-34"/>
<polygon fill="#000000" stroke="#000000" points="263.9446,-37.5001 273.9445,-34 263.9445,-30.5001 263.9446,-37.5001"/>
</g>
<!-- b1&#45;&gt;b2 -->
<!-- c1 -->
<g id="node41" class="node">
<title>c1</title>
<polygon fill="transparent" stroke="transparent" points="496,-1034 424,-1034 424,-998 496,-998 496,-1034"/>
<text text-anchor="middle" x="460" y="-1013.2" font-family="meiryo UI" font-size="11.00" fill="#000000">変更なし</text>
</g>
<!-- b1&#45;&gt;c1 -->
<g id="edge59" class="edge">
<title>b1&#45;&gt;c1</title>
<path fill="none" stroke="#000000" d="M346.0352,-1016C368.6562,-1016 391.2772,-1016 413.8983,-1016"/>
<polygon fill="#000000" stroke="#000000" points="413.9408,-1019.5001 423.9408,-1016 413.9408,-1012.5001 413.9408,-1019.5001"/>
</g>
<!-- b2&#45;&gt;b3 -->
<!-- c2 -->
<g id="node42" class="node">
<title>c2</title>
<polygon fill="transparent" stroke="transparent" points="496,-984 424,-984 424,-948 496,-948 496,-984"/>
<text text-anchor="middle" x="460" y="-963.2" font-family="meiryo UI" font-size="11.00" fill="#000000">変更なし</text>
</g>
<!-- b2&#45;&gt;c2 -->
<g id="edge61" class="edge">
<title>b2&#45;&gt;c2</title>
<path fill="none" stroke="#000000" d="M346.0352,-966C368.6562,-966 391.2772,-966 413.8983,-966"/>
<polygon fill="#000000" stroke="#000000" points="413.9408,-969.5001 423.9408,-966 413.9408,-962.5001 413.9408,-969.5001"/>
</g>
<!-- b4 -->
<!-- b3&#45;&gt;b4 -->
<!-- c3 -->
<g id="node43" class="node">
<title>c3</title>
<polygon fill="transparent" stroke="transparent" points="496,-930 424,-930 424,-894 496,-894 496,-930"/>
<text text-anchor="middle" x="460" y="-909.2" font-family="meiryo UI" font-size="11.00" fill="#000000">変更なし</text>
</g>
<!-- b3&#45;&gt;c3 -->
<g id="edge64" class="edge">
<title>b3&#45;&gt;c3</title>
<path fill="none" stroke="#000000" d="M400.2344,-912C404.6117,-912 408.9891,-912 413.3665,-912"/>
<polygon fill="#000000" stroke="#000000" points="413.5804,-915.5001 423.5803,-912 413.5803,-908.5001 413.5804,-915.5001"/>
</g>
<!-- b4&#45;&gt;b5 -->
<!-- b5&#45;&gt;b6 -->
<!-- c5 -->
<g id="node45" class="node">
<title>c5</title>
<polygon fill="transparent" stroke="transparent" points="496,-822 424,-822 424,-786 496,-786 496,-822"/>
<text text-anchor="middle" x="460" y="-801.2" font-family="meiryo UI" font-size="11.00" fill="#000000">変更なし</text>
</g>
<!-- b5&#45;&gt;c5 -->
<g id="edge66" class="edge">
<title>b5&#45;&gt;c5</title>
<path fill="none" stroke="#000000" d="M346.0352,-804C368.6562,-804 391.2772,-804 413.8983,-804"/>
<polygon fill="#000000" stroke="#000000" points="413.9408,-807.5001 423.9408,-804 413.9408,-800.5001 413.9408,-807.5001"/>
</g>
<!-- b6&#45;&gt;b7 -->
<!-- c6 -->
<g id="node46" class="node">
<title>c6</title>
<polygon fill="transparent" stroke="transparent" points="496,-768 424,-768 424,-732 496,-732 496,-768"/>
<text text-anchor="middle" x="460" y="-747.2" font-family="meiryo UI" font-size="11.00" fill="#000000">変更なし</text>
</g>
<!-- b6&#45;&gt;c6 -->
<g id="edge68" class="edge">
<title>b6&#45;&gt;c6</title>
<path fill="none" stroke="#000000" d="M346.0352,-750C368.6562,-750 391.2772,-750 413.8983,-750"/>
<polygon fill="#000000" stroke="#000000" points="413.9408,-753.5001 423.9408,-750 413.9408,-746.5001 413.9408,-753.5001"/>
</g>
<!-- b7&#45;&gt;b8 -->
<!-- c7 -->
<g id="node47" class="node">
<title>c7</title>
<polygon fill="transparent" stroke="transparent" points="496,-714 424,-714 424,-678 496,-678 496,-714"/>
<text text-anchor="middle" x="460" y="-693.2" font-family="meiryo UI" font-size="11.00" fill="#000000">変更なし</text>
</g>
<!-- b7&#45;&gt;c7 -->
<g id="edge70" class="edge">
<title>b7&#45;&gt;c7</title>
<path fill="none" stroke="#000000" d="M346.0352,-696C368.6562,-696 391.2772,-696 413.8983,-696"/>
<polygon fill="#000000" stroke="#000000" points="413.9408,-699.5001 423.9408,-696 413.9408,-692.5001 413.9408,-699.5001"/>
</g>
<!-- b9 -->
<!-- b8&#45;&gt;b9 -->
<!-- c8 -->
<g id="node48" class="node">
<title>c8</title>
<polygon fill="transparent" stroke="transparent" points="496,-660 424,-660 424,-624 496,-624 496,-660"/>
<text text-anchor="middle" x="460" y="-639.2" font-family="meiryo UI" font-size="11.00" fill="#000000">変更なし</text>
</g>
<!-- b8&#45;&gt;c8 -->
<g id="edge72" class="edge">
<title>b8&#45;&gt;c8</title>
<path fill="none" stroke="#000000" d="M346.0352,-642C368.6562,-642 391.2772,-642 413.8983,-642"/>
<polygon fill="#000000" stroke="#000000" points="413.9408,-645.5001 423.9408,-642 413.9408,-638.5001 413.9408,-645.5001"/>
</g>
<!-- b9&#45;&gt;b10 -->
<!-- b11 -->
<!-- b10&#45;&gt;b11 -->
<!-- c10 -->
<g id="node50" class="node">
<title>c10</title>
<polygon fill="transparent" stroke="transparent" points="550,-552 478,-552 478,-516 550,-516 550,-552"/>
<text text-anchor="middle" x="514" y="-531.2" font-family="meiryo UI" font-size="11.00" fill="#000000">変更なし</text>
</g>
<!-- b10&#45;&gt;c10 -->
<g id="edge74" class="edge">
<title>b10&#45;&gt;c10</title>
<path fill="none" stroke="#000000" d="M400.0469,-534C422.6656,-534 445.2843,-534 467.903,-534"/>
<polygon fill="#000000" stroke="#000000" points="467.9446,-537.5001 477.9445,-534 467.9445,-530.5001 467.9446,-537.5001"/>
</g>
<!-- b11&#45;&gt;b12 -->
<!-- b12&#45;&gt;b13 -->
<!-- c12 -->
<g id="node52" class="node">
<title>c12</title>
<polygon fill="transparent" stroke="transparent" points="496,-452 424,-452 424,-416 496,-416 496,-452"/>
<text text-anchor="middle" x="460" y="-431.2" font-family="meiryo UI" font-size="11.00" fill="#000000">変更なし</text>
</g>
<!-- b12&#45;&gt;c12 -->
<g id="edge77" class="edge">
<title>b12&#45;&gt;c12</title>
<path fill="none" stroke="#000000" d="M346.0352,-434C368.6562,-434 391.2772,-434 413.8983,-434"/>
<polygon fill="#000000" stroke="#000000" points="413.9408,-437.5001 423.9408,-434 413.9408,-430.5001 413.9408,-437.5001"/>
</g>
<!-- b13&#45;&gt;b14 -->
<!-- c13 -->
<g id="node53" class="node">
<title>c13</title>
<polygon fill="transparent" stroke="transparent" points="496,-402 424,-402 424,-366 496,-366 496,-402"/>
<text text-anchor="middle" x="460" y="-381.2" font-family="meiryo UI" font-size="11.00" fill="#000000">変更なし</text>
</g>
<!-- b13&#45;&gt;c13 -->
<g id="edge79" class="edge">
<title>b13&#45;&gt;c13</title>
<path fill="none" stroke="#000000" d="M346.0352,-384C368.6562,-384 391.2772,-384 413.8983,-384"/>
<polygon fill="#000000" stroke="#000000" points="413.9408,-387.5001 423.9408,-384 413.9408,-380.5001 413.9408,-387.5001"/>
</g>
<!-- b15 -->
<!-- b14&#45;&gt;b15 -->
<!-- c14 -->
<g id="node54" class="node">
<title>c14</title>
<polygon fill="transparent" stroke="transparent" points="496,-352 424,-352 424,-316 496,-316 496,-352"/>
<text text-anchor="middle" x="460" y="-331.2" font-family="meiryo UI" font-size="11.00" fill="#000000">変更なし</text>
</g>
<!-- b14&#45;&gt;c14 -->
<g id="edge81" class="edge">
<title>b14&#45;&gt;c14</title>
<path fill="none" stroke="#000000" d="M346.0352,-334C368.6562,-334 391.2772,-334 413.8983,-334"/>
<polygon fill="#000000" stroke="#000000" points="413.9408,-337.5001 423.9408,-334 413.9408,-330.5001 413.9408,-337.5001"/>
</g>
<!-- b16 -->
<!-- b15&#45;&gt;b16 -->
<!-- b17 -->
<!-- b16&#45;&gt;b17 -->
<!-- b18 -->
<!-- b17&#45;&gt;b18 -->
<!-- b19 -->
<!-- b18&#45;&gt;b19 -->
<!-- b19&#45;&gt;b20 -->
<!-- c20 -->
<g id="node60" class="node">
<title>c20</title>
<polygon fill="transparent" stroke="transparent" points="523,-52 451,-52 451,-16 523,-16 523,-52"/>
<text text-anchor="middle" x="487" y="-31.2" font-family="meiryo UI" font-size="11.00" fill="#000000">変更なし</text>
</g>
<!-- b20&#45;&gt;c20 -->
<g id="edge83" class="edge">
<title>b20&#45;&gt;c20</title>
<path fill="none" stroke="#000000" d="M346.2988,-34C377.7084,-34 409.118,-34 440.5276,-34"/>
<polygon fill="#000000" stroke="#000000" points="440.7255,-37.5001 450.7255,-34 440.7254,-30.5001 440.7255,-37.5001"/>
</g>
<!-- c1&#45;&gt;c2 -->
<!-- c2&#45;&gt;c3 -->
<!-- c4 -->
<!-- c3&#45;&gt;c4 -->
<!-- c4&#45;&gt;c5 -->
<!-- c5&#45;&gt;c6 -->
<!-- c6&#45;&gt;c7 -->
<!-- c7&#45;&gt;c8 -->
<!-- c9 -->
<!-- c8&#45;&gt;c9 -->
<!-- c9&#45;&gt;c10 -->
<!-- c11 -->
<!-- c10&#45;&gt;c11 -->
<!-- c11&#45;&gt;c12 -->
<!-- c12&#45;&gt;c13 -->
<!-- c13&#45;&gt;c14 -->
<!-- c15 -->
<!-- c14&#45;&gt;c15 -->
<!-- c16 -->
<!-- c15&#45;&gt;c16 -->
<!-- c17 -->
<!-- c16&#45;&gt;c17 -->
<!-- c18 -->
<!-- c17&#45;&gt;c18 -->
<!-- c19 -->
<!-- c18&#45;&gt;c19 -->
<!-- c19&#45;&gt;c20 -->
</g>
</svg>
