<?xml version="1.0" encoding="UTF-8" standalone="no"?>
<!DOCTYPE svg PUBLIC "-//W3C//DTD SVG 1.1//EN"
 "http://www.w3.org/Graphics/SVG/1.1/DTD/svg11.dtd">
<!-- Generated by graphviz version 2.40.1 (20161225.0304)
 -->
<!-- Title: sentaku_zen Pages: 1 -->
<svg width="766pt" height="1323pt"
 viewBox="0.00 0.00 766.00 1323.00" xmlns="http://www.w3.org/2000/svg" xmlns:xlink="http://www.w3.org/1999/xlink">
<g id="graph0" class="graph" transform="scale(1 1) rotate(0) translate(4 1319)">
<title>sentaku_zen</title>
<polygon fill="#ffffff" stroke="transparent" points="-4,4 -4,-1319 762,-1319 762,4 -4,4"/>
<g id="clust1" class="cluster">
<title>cluster_0</title>
<polygon fill="#ccdfff" stroke="#ccdfff" points="8,-8 8,-1307 232,-1307 232,-8 8,-8"/>
<text text-anchor="middle" x="120" y="-1290.2" font-family="Times,serif" font-size="16.00" fill="#000000">第1回</text>
</g>
<g id="clust2" class="cluster">
<title>cluster_1</title>
<polygon fill="#edf4ff" stroke="#edf4ff" points="240,-9 240,-1306 330,-1306 330,-9 240,-9"/>
<text text-anchor="middle" x="285" y="-1289.2" font-family="Times,serif" font-size="16.00" fill="#000000">第5回</text>
</g>
<g id="clust3" class="cluster">
<title>cluster_2</title>
<polygon fill="#ccdfff" stroke="#ccdfff" points="338,-9 338,-1306 546,-1306 546,-9 338,-9"/>
<text text-anchor="middle" x="442" y="-1289.2" font-family="Times,serif" font-size="16.00" fill="#000000">第11回</text>
</g>
<g id="clust4" class="cluster">
<title>cluster_3</title>
<polygon fill="#edf4ff" stroke="#edf4ff" points="554,-9 554,-1306 750,-1306 750,-9 554,-9"/>
<text text-anchor="middle" x="652" y="-1289.2" font-family="Times,serif" font-size="16.00" fill="#000000">第16回・第21回</text>
</g>
<!-- a1 -->
<g id="node1" class="node">
<title>a1</title>
<g id="a_node1"><a xlink:href="../../variable/P67A.html" xlink:title="収入・給与がよい \n P67A" target="_blank">
<polygon fill="#ffffff" stroke="#ffffff" points="224,-1273 44,-1273 44,-1235 224,-1235 224,-1273"/>
<text text-anchor="middle" x="134" y="-1257.8" font-family="meiryo UI" font-size="14.00" fill="#000000">収入・給与がよい </text>
<text text-anchor="middle" x="134" y="-1242.8" font-family="meiryo UI" font-size="14.00" fill="#000000"> P67A</text>
</a>
</g>
</g>
<!-- a2 -->
<g id="node2" class="node">
<title>a2</title>
<g id="a_node2"><a xlink:href="../../variable/P67A.html" xlink:title="休日、休暇が多い \n P67B" target="_blank">
<polygon fill="#ffffff" stroke="#ffffff" points="224,-1221 44,-1221 44,-1183 224,-1183 224,-1221"/>
<text text-anchor="middle" x="134" y="-1205.8" font-family="meiryo UI" font-size="14.00" fill="#000000">休日、休暇が多い </text>
<text text-anchor="middle" x="134" y="-1190.8" font-family="meiryo UI" font-size="14.00" fill="#000000"> P67B</text>
</a>
</g>
</g>
<!-- a1&#45;&gt;a2 -->
<!-- b1 -->
<g id="node24" class="node">
<title>b1</title>
<polygon fill="transparent" stroke="transparent" points="322,-1272 248,-1272 248,-1236 322,-1236 322,-1272"/>
<text text-anchor="middle" x="285" y="-1250.3" font-family="meiryo UI" font-size="14.00" fill="#000000">変更なし</text>
</g>
<!-- a1&#45;&gt;b1 -->
<g id="edge89" class="edge">
<title>a1&#45;&gt;b1</title>
<path fill="none" stroke="#000000" d="M224.2461,-1254C228.8194,-1254 233.3928,-1254 237.9662,-1254"/>
<polygon fill="#000000" stroke="#000000" points="237.9781,-1257.5001 247.9781,-1254 237.9781,-1250.5001 237.9781,-1257.5001"/>
</g>
<!-- a3 -->
<g id="node3" class="node">
<title>a3</title>
<g id="a_node3"><a xlink:href="../../variable/P67C.html" xlink:title="拘束時間が少ない、\n 残業が少ない\n P67C" target="_blank">
<polygon fill="#ffffff" stroke="#ffffff" points="224,-1169 44,-1169 44,-1116 224,-1116 224,-1169"/>
<text text-anchor="middle" x="134" y="-1153.8" font-family="meiryo UI" font-size="14.00" fill="#000000">拘束時間が少ない、</text>
<text text-anchor="middle" x="134" y="-1138.8" font-family="meiryo UI" font-size="14.00" fill="#000000"> 残業が少ない</text>
<text text-anchor="middle" x="134" y="-1123.8" font-family="meiryo UI" font-size="14.00" fill="#000000"> P67C</text>
</a>
</g>
</g>
<!-- a2&#45;&gt;a3 -->
<!-- b2 -->
<g id="node25" class="node">
<title>b2</title>
<polygon fill="transparent" stroke="transparent" points="322,-1220 248,-1220 248,-1184 322,-1184 322,-1220"/>
<text text-anchor="middle" x="285" y="-1198.3" font-family="meiryo UI" font-size="14.00" fill="#000000">変更なし</text>
</g>
<!-- a2&#45;&gt;b2 -->
<g id="edge92" class="edge">
<title>a2&#45;&gt;b2</title>
<path fill="none" stroke="#000000" d="M224.2461,-1202C228.8194,-1202 233.3928,-1202 237.9662,-1202"/>
<polygon fill="#000000" stroke="#000000" points="237.9781,-1205.5001 247.9781,-1202 237.9781,-1198.5001 237.9781,-1205.5001"/>
</g>
<!-- a4 -->
<g id="node4" class="node">
<title>a4</title>
<g id="a_node4"><a xlink:href="../../variable/P67D.html" xlink:title="労働時聞が自由になる \n P67D" target="_blank">
<polygon fill="#ffffff" stroke="#ffffff" points="224,-1102 44,-1102 44,-1064 224,-1064 224,-1102"/>
<text text-anchor="middle" x="134" y="-1086.8" font-family="meiryo UI" font-size="14.00" fill="#000000">労働時聞が自由になる </text>
<text text-anchor="middle" x="134" y="-1071.8" font-family="meiryo UI" font-size="14.00" fill="#000000"> P67D</text>
</a>
</g>
</g>
<!-- a3&#45;&gt;a4 -->
<!-- b3 -->
<g id="node26" class="node">
<title>b3</title>
<polygon fill="transparent" stroke="transparent" points="322,-1160.5 248,-1160.5 248,-1124.5 322,-1124.5 322,-1160.5"/>
<text text-anchor="middle" x="285" y="-1138.8" font-family="meiryo UI" font-size="14.00" fill="#000000">変更なし</text>
</g>
<!-- a3&#45;&gt;b3 -->
<g id="edge95" class="edge">
<title>a3&#45;&gt;b3</title>
<path fill="none" stroke="#000000" d="M224.2461,-1142.5C228.8194,-1142.5 233.3928,-1142.5 237.9662,-1142.5"/>
<polygon fill="#000000" stroke="#000000" points="237.9781,-1146.0001 247.9781,-1142.5 237.9781,-1139.0001 237.9781,-1146.0001"/>
</g>
<!-- a5 -->
<g id="node5" class="node">
<title>a5</title>
<g id="a_node5"><a xlink:href="../../variable/P67E.html" xlink:title="家に近い、\n 通勤距離が短い \n P67E" target="_blank">
<polygon fill="#ffffff" stroke="#ffffff" points="224,-1050 44,-1050 44,-997 224,-997 224,-1050"/>
<text text-anchor="middle" x="134" y="-1034.8" font-family="meiryo UI" font-size="14.00" fill="#000000">家に近い、</text>
<text text-anchor="middle" x="134" y="-1019.8" font-family="meiryo UI" font-size="14.00" fill="#000000"> 通勤距離が短い </text>
<text text-anchor="middle" x="134" y="-1004.8" font-family="meiryo UI" font-size="14.00" fill="#000000"> P67E</text>
</a>
</g>
</g>
<!-- a4&#45;&gt;a5 -->
<!-- b4 -->
<g id="node27" class="node">
<title>b4</title>
<polygon fill="transparent" stroke="transparent" points="322,-1101 248,-1101 248,-1065 322,-1065 322,-1101"/>
<text text-anchor="middle" x="285" y="-1079.3" font-family="meiryo UI" font-size="14.00" fill="#000000">変更なし</text>
</g>
<!-- a4&#45;&gt;b4 -->
<g id="edge98" class="edge">
<title>a4&#45;&gt;b4</title>
<path fill="none" stroke="#000000" d="M224.2461,-1083C228.8194,-1083 233.3928,-1083 237.9662,-1083"/>
<polygon fill="#000000" stroke="#000000" points="237.9781,-1086.5001 247.9781,-1083 237.9781,-1079.5001 237.9781,-1086.5001"/>
</g>
<!-- a6 -->
<g id="node6" class="node">
<title>a6</title>
<g id="a_node6"><a xlink:href="../../variable/P67F.html" xlink:title="転勤がない、少ない \n P67F" target="_blank">
<polygon fill="#ffffff" stroke="#ffffff" points="224,-983 44,-983 44,-945 224,-945 224,-983"/>
<text text-anchor="middle" x="134" y="-967.8" font-family="meiryo UI" font-size="14.00" fill="#000000">転勤がない、少ない </text>
<text text-anchor="middle" x="134" y="-952.8" font-family="meiryo UI" font-size="14.00" fill="#000000"> P67F</text>
</a>
</g>
</g>
<!-- a5&#45;&gt;a6 -->
<!-- b5 -->
<g id="node28" class="node">
<title>b5</title>
<polygon fill="transparent" stroke="transparent" points="322,-1041.5 248,-1041.5 248,-1005.5 322,-1005.5 322,-1041.5"/>
<text text-anchor="middle" x="285" y="-1019.8" font-family="meiryo UI" font-size="14.00" fill="#000000">変更なし</text>
</g>
<!-- a5&#45;&gt;b5 -->
<g id="edge100" class="edge">
<title>a5&#45;&gt;b5</title>
<path fill="none" stroke="#000000" d="M224.2461,-1023.5C228.8194,-1023.5 233.3928,-1023.5 237.9662,-1023.5"/>
<polygon fill="#000000" stroke="#000000" points="237.9781,-1027.0001 247.9781,-1023.5 237.9781,-1020.0001 237.9781,-1027.0001"/>
</g>
<!-- a7 -->
<g id="node7" class="node">
<title>a7</title>
<g id="a_node7"><a xlink:href="../../variable/P67G.html" xlink:title="安定している、\n 失業のおそれがない \n P67G" target="_blank">
<polygon fill="#ffffff" stroke="#ffffff" points="224,-931 44,-931 44,-878 224,-878 224,-931"/>
<text text-anchor="middle" x="134" y="-915.8" font-family="meiryo UI" font-size="14.00" fill="#000000">安定している、</text>
<text text-anchor="middle" x="134" y="-900.8" font-family="meiryo UI" font-size="14.00" fill="#000000"> 失業のおそれがない </text>
<text text-anchor="middle" x="134" y="-885.8" font-family="meiryo UI" font-size="14.00" fill="#000000"> P67G</text>
</a>
</g>
</g>
<!-- a6&#45;&gt;a7 -->
<!-- b6 -->
<g id="node29" class="node">
<title>b6</title>
<polygon fill="transparent" stroke="transparent" points="322,-982 248,-982 248,-946 322,-946 322,-982"/>
<text text-anchor="middle" x="285" y="-960.3" font-family="meiryo UI" font-size="14.00" fill="#000000">変更なし</text>
</g>
<!-- a6&#45;&gt;b6 -->
<g id="edge103" class="edge">
<title>a6&#45;&gt;b6</title>
<path fill="none" stroke="#000000" d="M224.2461,-964C228.8194,-964 233.3928,-964 237.9662,-964"/>
<polygon fill="#000000" stroke="#000000" points="237.9781,-967.5001 247.9781,-964 237.9781,-960.5001 237.9781,-967.5001"/>
</g>
<!-- a8 -->
<g id="node8" class="node">
<title>a8</title>
<g id="a_node8"><a xlink:href="../../variable/P67H.html" xlink:title="将来発展する可能性がある \n P67H" target="_blank">
<polygon fill="#ffffff" stroke="#ffffff" points="223.5,-864 32.5,-864 32.5,-826 223.5,-826 223.5,-864"/>
<text text-anchor="middle" x="128" y="-848.8" font-family="meiryo UI" font-size="14.00" fill="#000000">将来発展する可能性がある </text>
<text text-anchor="middle" x="128" y="-833.8" font-family="meiryo UI" font-size="14.00" fill="#000000"> P67H</text>
</a>
</g>
</g>
<!-- a7&#45;&gt;a8 -->
<!-- b7 -->
<g id="node30" class="node">
<title>b7</title>
<polygon fill="transparent" stroke="transparent" points="322,-922.5 248,-922.5 248,-886.5 322,-886.5 322,-922.5"/>
<text text-anchor="middle" x="285" y="-900.8" font-family="meiryo UI" font-size="14.00" fill="#000000">変更なし</text>
</g>
<!-- a7&#45;&gt;b7 -->
<g id="edge106" class="edge">
<title>a7&#45;&gt;b7</title>
<path fill="none" stroke="#000000" d="M224.2461,-904.5C228.8194,-904.5 233.3928,-904.5 237.9662,-904.5"/>
<polygon fill="#000000" stroke="#000000" points="237.9781,-908.0001 247.9781,-904.5 237.9781,-901.0001 237.9781,-908.0001"/>
</g>
<!-- a9 -->
<g id="node9" class="node">
<title>a9</title>
<g id="a_node9"><a xlink:href="../../variable/P67I.html" xlink:title="世間一般に \n 知られている企業である \n P67I" target="_blank">
<polygon fill="#ffffff" stroke="#ffffff" points="224,-812 44,-812 44,-759 224,-759 224,-812"/>
<text text-anchor="middle" x="134" y="-796.8" font-family="meiryo UI" font-size="14.00" fill="#000000">世間一般に </text>
<text text-anchor="middle" x="134" y="-781.8" font-family="meiryo UI" font-size="14.00" fill="#000000"> 知られている企業である </text>
<text text-anchor="middle" x="134" y="-766.8" font-family="meiryo UI" font-size="14.00" fill="#000000"> P67I</text>
</a>
</g>
</g>
<!-- a8&#45;&gt;a9 -->
<!-- b8 -->
<g id="node31" class="node">
<title>b8</title>
<polygon fill="transparent" stroke="transparent" points="322,-863 248,-863 248,-827 322,-827 322,-863"/>
<text text-anchor="middle" x="285" y="-841.3" font-family="meiryo UI" font-size="14.00" fill="#000000">変更なし</text>
</g>
<!-- a8&#45;&gt;b8 -->
<g id="edge109" class="edge">
<title>a8&#45;&gt;b8</title>
<path fill="none" stroke="#000000" d="M223.6719,-845C228.2885,-845 232.905,-845 237.5216,-845"/>
<polygon fill="#000000" stroke="#000000" points="237.6282,-848.5001 247.6282,-845 237.6281,-841.5001 237.6282,-848.5001"/>
</g>
<!-- a10 -->
<g id="node10" class="node">
<title>a10</title>
<g id="a_node10"><a xlink:href="../../variable/P67J.html" xlink:title="組織にしばられない \n P67J" target="_blank">
<polygon fill="#ffffff" stroke="#ffffff" points="224,-745 44,-745 44,-707 224,-707 224,-745"/>
<text text-anchor="middle" x="134" y="-729.8" font-family="meiryo UI" font-size="14.00" fill="#000000">組織にしばられない </text>
<text text-anchor="middle" x="134" y="-714.8" font-family="meiryo UI" font-size="14.00" fill="#000000"> P67J</text>
</a>
</g>
</g>
<!-- a9&#45;&gt;a10 -->
<!-- b9 -->
<g id="node32" class="node">
<title>b9</title>
<polygon fill="transparent" stroke="transparent" points="322,-803.5 248,-803.5 248,-767.5 322,-767.5 322,-803.5"/>
<text text-anchor="middle" x="285" y="-781.8" font-family="meiryo UI" font-size="14.00" fill="#000000">変更なし</text>
</g>
<!-- a9&#45;&gt;b9 -->
<g id="edge112" class="edge">
<title>a9&#45;&gt;b9</title>
<path fill="none" stroke="#000000" d="M224.2461,-785.5C228.8194,-785.5 233.3928,-785.5 237.9662,-785.5"/>
<polygon fill="#000000" stroke="#000000" points="237.9781,-789.0001 247.9781,-785.5 237.9781,-782.0001 237.9781,-789.0001"/>
</g>
<!-- a11 -->
<g id="node11" class="node">
<title>a11</title>
<g id="a_node11"><a xlink:href="../../variable/P67K.html" xlink:title="結婚後も続けやすい \n P67K" target="_blank">
<polygon fill="#ffffff" stroke="#ffffff" points="224,-693 44,-693 44,-655 224,-655 224,-693"/>
<text text-anchor="middle" x="134" y="-677.8" font-family="meiryo UI" font-size="14.00" fill="#000000">結婚後も続けやすい </text>
<text text-anchor="middle" x="134" y="-662.8" font-family="meiryo UI" font-size="14.00" fill="#000000"> P67K</text>
</a>
</g>
</g>
<!-- a10&#45;&gt;a11 -->
<!-- b10 -->
<g id="node33" class="node">
<title>b10</title>
<polygon fill="transparent" stroke="transparent" points="322,-744 248,-744 248,-708 322,-708 322,-744"/>
<text text-anchor="middle" x="285" y="-722.3" font-family="meiryo UI" font-size="14.00" fill="#000000">変更なし</text>
</g>
<!-- a10&#45;&gt;b10 -->
<g id="edge113" class="edge">
<title>a10&#45;&gt;b10</title>
<path fill="none" stroke="#000000" d="M224.2461,-726C228.8194,-726 233.3928,-726 237.9662,-726"/>
<polygon fill="#000000" stroke="#000000" points="237.9781,-729.5001 247.9781,-726 237.9781,-722.5001 237.9781,-729.5001"/>
</g>
<!-- a12 -->
<g id="node12" class="node">
<title>a12</title>
<g id="a_node12"><a xlink:href="../../variable/P67L.html" xlink:title="出産後も続けやすい \n P67L" target="_blank">
<polygon fill="#ffffff" stroke="#ffffff" points="224,-641 44,-641 44,-603 224,-603 224,-641"/>
<text text-anchor="middle" x="134" y="-625.8" font-family="meiryo UI" font-size="14.00" fill="#000000">出産後も続けやすい </text>
<text text-anchor="middle" x="134" y="-610.8" font-family="meiryo UI" font-size="14.00" fill="#000000"> P67L</text>
</a>
</g>
</g>
<!-- a11&#45;&gt;a12 -->
<!-- b11 -->
<g id="node34" class="node">
<title>b11</title>
<polygon fill="transparent" stroke="transparent" points="322,-692 248,-692 248,-656 322,-656 322,-692"/>
<text text-anchor="middle" x="285" y="-670.3" font-family="meiryo UI" font-size="14.00" fill="#000000">変更なし</text>
</g>
<!-- a11&#45;&gt;b11 -->
<g id="edge114" class="edge">
<title>a11&#45;&gt;b11</title>
<path fill="none" stroke="#000000" d="M224.2461,-674C228.8194,-674 233.3928,-674 237.9662,-674"/>
<polygon fill="#000000" stroke="#000000" points="237.9781,-677.5001 247.9781,-674 237.9781,-670.5001 237.9781,-677.5001"/>
</g>
<!-- a13 -->
<g id="node13" class="node">
<title>a13</title>
<g id="a_node13"><a xlink:href="../../variable/P67M.html" xlink:title="技術が身につく \n P67M" target="_blank">
<polygon fill="#ffffff" stroke="#ffffff" points="224,-589 44,-589 44,-551 224,-551 224,-589"/>
<text text-anchor="middle" x="134" y="-573.8" font-family="meiryo UI" font-size="14.00" fill="#000000">技術が身につく </text>
<text text-anchor="middle" x="134" y="-558.8" font-family="meiryo UI" font-size="14.00" fill="#000000"> P67M</text>
</a>
</g>
</g>
<!-- a12&#45;&gt;a13 -->
<!-- b12 -->
<g id="node35" class="node">
<title>b12</title>
<polygon fill="transparent" stroke="transparent" points="322,-640 248,-640 248,-604 322,-604 322,-640"/>
<text text-anchor="middle" x="285" y="-618.3" font-family="meiryo UI" font-size="14.00" fill="#000000">変更なし</text>
</g>
<!-- a12&#45;&gt;b12 -->
<g id="edge117" class="edge">
<title>a12&#45;&gt;b12</title>
<path fill="none" stroke="#000000" d="M224.2461,-622C228.8194,-622 233.3928,-622 237.9662,-622"/>
<polygon fill="#000000" stroke="#000000" points="237.9781,-625.5001 247.9781,-622 237.9781,-618.5001 237.9781,-625.5001"/>
</g>
<!-- a14 -->
<g id="node14" class="node">
<title>a14</title>
<g id="a_node14"><a xlink:href="../../variable/P67N.html" xlink:title="能力が生かせる \n P67N" target="_blank">
<polygon fill="#ffffff" stroke="#ffffff" points="224,-537 44,-537 44,-499 224,-499 224,-537"/>
<text text-anchor="middle" x="134" y="-521.8" font-family="meiryo UI" font-size="14.00" fill="#000000">能力が生かせる </text>
<text text-anchor="middle" x="134" y="-506.8" font-family="meiryo UI" font-size="14.00" fill="#000000"> P67N</text>
</a>
</g>
</g>
<!-- a13&#45;&gt;a14 -->
<!-- b13 -->
<g id="node36" class="node">
<title>b13</title>
<polygon fill="transparent" stroke="transparent" points="322,-588 248,-588 248,-552 322,-552 322,-588"/>
<text text-anchor="middle" x="285" y="-566.3" font-family="meiryo UI" font-size="14.00" fill="#000000">変更なし</text>
</g>
<!-- a13&#45;&gt;b13 -->
<g id="edge119" class="edge">
<title>a13&#45;&gt;b13</title>
<path fill="none" stroke="#000000" d="M224.2461,-570C228.8194,-570 233.3928,-570 237.9662,-570"/>
<polygon fill="#000000" stroke="#000000" points="237.9781,-573.5001 247.9781,-570 237.9781,-566.5001 237.9781,-573.5001"/>
</g>
<!-- a15 -->
<g id="node15" class="node">
<title>a15</title>
<g id="a_node15"><a xlink:href="../../variable/P67O.html" xlink:title="仕事内容に興味がある \n P67O" target="_blank">
<polygon fill="#ffffff" stroke="#ffffff" points="224,-485 44,-485 44,-447 224,-447 224,-485"/>
<text text-anchor="middle" x="134" y="-469.8" font-family="meiryo UI" font-size="14.00" fill="#000000">仕事内容に興味がある </text>
<text text-anchor="middle" x="134" y="-454.8" font-family="meiryo UI" font-size="14.00" fill="#000000"> P67O</text>
</a>
</g>
</g>
<!-- a14&#45;&gt;a15 -->
<!-- b14 -->
<g id="node37" class="node">
<title>b14</title>
<polygon fill="transparent" stroke="transparent" points="322,-536 248,-536 248,-500 322,-500 322,-536"/>
<text text-anchor="middle" x="285" y="-514.3" font-family="meiryo UI" font-size="14.00" fill="#000000">変更なし</text>
</g>
<!-- a14&#45;&gt;b14 -->
<g id="edge122" class="edge">
<title>a14&#45;&gt;b14</title>
<path fill="none" stroke="#000000" d="M224.2461,-518C228.8194,-518 233.3928,-518 237.9662,-518"/>
<polygon fill="#000000" stroke="#000000" points="237.9781,-521.5001 247.9781,-518 237.9781,-514.5001 237.9781,-521.5001"/>
</g>
<!-- a16 -->
<g id="node16" class="node">
<title>a16</title>
<g id="a_node16"><a xlink:href="../../variable/P67P.html" xlink:title="管理職になれる \n P67P" target="_blank">
<polygon fill="#ffffff" stroke="#ffffff" points="224,-433 44,-433 44,-395 224,-395 224,-433"/>
<text text-anchor="middle" x="134" y="-417.8" font-family="meiryo UI" font-size="14.00" fill="#000000">管理職になれる </text>
<text text-anchor="middle" x="134" y="-402.8" font-family="meiryo UI" font-size="14.00" fill="#000000"> P67P</text>
</a>
</g>
</g>
<!-- a15&#45;&gt;a16 -->
<!-- b15 -->
<g id="node38" class="node">
<title>b15</title>
<polygon fill="transparent" stroke="transparent" points="322,-484 248,-484 248,-448 322,-448 322,-484"/>
<text text-anchor="middle" x="285" y="-462.3" font-family="meiryo UI" font-size="14.00" fill="#000000">変更なし</text>
</g>
<!-- a15&#45;&gt;b15 -->
<g id="edge125" class="edge">
<title>a15&#45;&gt;b15</title>
<path fill="none" stroke="#000000" d="M224.2461,-466C228.8194,-466 233.3928,-466 237.9662,-466"/>
<polygon fill="#000000" stroke="#000000" points="237.9781,-469.5001 247.9781,-466 237.9781,-462.5001 237.9781,-469.5001"/>
</g>
<!-- a17 -->
<g id="node17" class="node">
<title>a17</title>
<g id="a_node17"><a xlink:href="../../variable/P67Q.html" xlink:title="外国に行ける \n P67Q" target="_blank">
<polygon fill="#ffffff" stroke="#ffffff" points="224,-381 44,-381 44,-343 224,-343 224,-381"/>
<text text-anchor="middle" x="134" y="-365.8" font-family="meiryo UI" font-size="14.00" fill="#000000">外国に行ける </text>
<text text-anchor="middle" x="134" y="-350.8" font-family="meiryo UI" font-size="14.00" fill="#000000"> P67Q</text>
</a>
</g>
</g>
<!-- a16&#45;&gt;a17 -->
<!-- b16 -->
<g id="node39" class="node">
<title>b16</title>
<polygon fill="transparent" stroke="transparent" points="322,-432 248,-432 248,-396 322,-396 322,-432"/>
<text text-anchor="middle" x="285" y="-410.3" font-family="meiryo UI" font-size="14.00" fill="#000000">変更なし</text>
</g>
<!-- a16&#45;&gt;b16 -->
<g id="edge128" class="edge">
<title>a16&#45;&gt;b16</title>
<path fill="none" stroke="#000000" d="M224.2461,-414C228.8194,-414 233.3928,-414 237.9662,-414"/>
<polygon fill="#000000" stroke="#000000" points="237.9781,-417.5001 247.9781,-414 237.9781,-410.5001 237.9781,-417.5001"/>
</g>
<!-- a18 -->
<g id="node18" class="node">
<title>a18</title>
<g id="a_node18"><a xlink:href="../../variable/P67R.html" xlink:title="結婚相手が見つかる \n P67R" target="_blank">
<polygon fill="#ffffff" stroke="#ffffff" points="224,-329 44,-329 44,-291 224,-291 224,-329"/>
<text text-anchor="middle" x="134" y="-313.8" font-family="meiryo UI" font-size="14.00" fill="#000000">結婚相手が見つかる </text>
<text text-anchor="middle" x="134" y="-298.8" font-family="meiryo UI" font-size="14.00" fill="#000000"> P67R</text>
</a>
</g>
</g>
<!-- a17&#45;&gt;a18 -->
<!-- b17 -->
<g id="node40" class="node">
<title>b17</title>
<polygon fill="transparent" stroke="transparent" points="322,-380 248,-380 248,-344 322,-344 322,-380"/>
<text text-anchor="middle" x="285" y="-358.3" font-family="meiryo UI" font-size="14.00" fill="#000000">変更なし</text>
</g>
<!-- a17&#45;&gt;b17 -->
<g id="edge129" class="edge">
<title>a17&#45;&gt;b17</title>
<path fill="none" stroke="#000000" d="M224.2461,-362C228.8194,-362 233.3928,-362 237.9662,-362"/>
<polygon fill="#000000" stroke="#000000" points="237.9781,-365.5001 247.9781,-362 237.9781,-358.5001 237.9781,-365.5001"/>
</g>
<!-- a19 -->
<g id="node19" class="node">
<title>a19</title>
<g id="a_node19"><a xlink:href="../../variable/P67S.html" xlink:title="学校がすすめるので \n P67S" target="_blank">
<polygon fill="#ffffff" stroke="#ffffff" points="224,-277 44,-277 44,-239 224,-239 224,-277"/>
<text text-anchor="middle" x="134" y="-261.8" font-family="meiryo UI" font-size="14.00" fill="#000000">学校がすすめるので </text>
<text text-anchor="middle" x="134" y="-246.8" font-family="meiryo UI" font-size="14.00" fill="#000000"> P67S</text>
</a>
</g>
</g>
<!-- a18&#45;&gt;a19 -->
<!-- b18 -->
<g id="node41" class="node">
<title>b18</title>
<polygon fill="transparent" stroke="transparent" points="322,-328 248,-328 248,-292 322,-292 322,-328"/>
<text text-anchor="middle" x="285" y="-306.3" font-family="meiryo UI" font-size="14.00" fill="#000000">変更なし</text>
</g>
<!-- a18&#45;&gt;b18 -->
<g id="edge130" class="edge">
<title>a18&#45;&gt;b18</title>
<path fill="none" stroke="#000000" d="M224.2461,-310C228.8194,-310 233.3928,-310 237.9662,-310"/>
<polygon fill="#000000" stroke="#000000" points="237.9781,-313.5001 247.9781,-310 237.9781,-306.5001 237.9781,-313.5001"/>
</g>
<!-- a20 -->
<g id="node20" class="node">
<title>a20</title>
<g id="a_node20"><a xlink:href="../../variable/P67T.html" xlink:title="家族がすすめるので \n P67T" target="_blank">
<polygon fill="#ffffff" stroke="#ffffff" points="224,-225 44,-225 44,-187 224,-187 224,-225"/>
<text text-anchor="middle" x="134" y="-209.8" font-family="meiryo UI" font-size="14.00" fill="#000000">家族がすすめるので </text>
<text text-anchor="middle" x="134" y="-194.8" font-family="meiryo UI" font-size="14.00" fill="#000000"> P67T</text>
</a>
</g>
</g>
<!-- a19&#45;&gt;a20 -->
<!-- b19 -->
<g id="node42" class="node">
<title>b19</title>
<polygon fill="transparent" stroke="transparent" points="322,-276 248,-276 248,-240 322,-240 322,-276"/>
<text text-anchor="middle" x="285" y="-254.3" font-family="meiryo UI" font-size="14.00" fill="#000000">変更なし</text>
</g>
<!-- a19&#45;&gt;b19 -->
<g id="edge131" class="edge">
<title>a19&#45;&gt;b19</title>
<path fill="none" stroke="#000000" d="M224.2461,-258C228.8194,-258 233.3928,-258 237.9662,-258"/>
<polygon fill="#000000" stroke="#000000" points="237.9781,-261.5001 247.9781,-258 237.9781,-254.5001 237.9781,-261.5001"/>
</g>
<!-- a21 -->
<g id="node21" class="node">
<title>a21</title>
<g id="a_node21"><a xlink:href="../../variable/P67U.html" xlink:title="会社で指定された \n （自分で選んだのではない） \n P67U" target="_blank">
<polygon fill="#ffffff" stroke="#ffffff" points="224,-173 16,-173 16,-120 224,-120 224,-173"/>
<text text-anchor="middle" x="120" y="-157.8" font-family="meiryo UI" font-size="14.00" fill="#000000">会社で指定された </text>
<text text-anchor="middle" x="120" y="-142.8" font-family="meiryo UI" font-size="14.00" fill="#000000"> （自分で選んだのではない） </text>
<text text-anchor="middle" x="120" y="-127.8" font-family="meiryo UI" font-size="14.00" fill="#000000"> P67U</text>
</a>
</g>
</g>
<!-- a20&#45;&gt;a21 -->
<!-- b20 -->
<g id="node43" class="node">
<title>b20</title>
<polygon fill="transparent" stroke="transparent" points="322,-224 248,-224 248,-188 322,-188 322,-224"/>
<text text-anchor="middle" x="285" y="-202.3" font-family="meiryo UI" font-size="14.00" fill="#000000">変更なし</text>
</g>
<!-- a20&#45;&gt;b20 -->
<g id="edge132" class="edge">
<title>a20&#45;&gt;b20</title>
<path fill="none" stroke="#000000" d="M224.2461,-206C228.8194,-206 233.3928,-206 237.9662,-206"/>
<polygon fill="#000000" stroke="#000000" points="237.9781,-209.5001 247.9781,-206 237.9781,-202.5001 237.9781,-209.5001"/>
</g>
<!-- a22 -->
<g id="node22" class="node">
<title>a22</title>
<g id="a_node22"><a xlink:href="../../variable/P67V.html" xlink:title="家業だから \n P67V" target="_blank">
<polygon fill="#ffffff" stroke="#ffffff" points="224,-106 44,-106 44,-68 224,-68 224,-106"/>
<text text-anchor="middle" x="134" y="-90.8" font-family="meiryo UI" font-size="14.00" fill="#000000">家業だから </text>
<text text-anchor="middle" x="134" y="-75.8" font-family="meiryo UI" font-size="14.00" fill="#000000"> P67V</text>
</a>
</g>
</g>
<!-- a21&#45;&gt;a22 -->
<!-- b21 -->
<g id="node44" class="node">
<title>b21</title>
<polygon fill="transparent" stroke="transparent" points="322,-164.5 248,-164.5 248,-128.5 322,-128.5 322,-164.5"/>
<text text-anchor="middle" x="285" y="-142.8" font-family="meiryo UI" font-size="14.00" fill="#000000">変更なし</text>
</g>
<!-- a21&#45;&gt;b21 -->
<g id="edge133" class="edge">
<title>a21&#45;&gt;b21</title>
<path fill="none" stroke="#000000" d="M224.0918,-146.5C228.6768,-146.5 233.2617,-146.5 237.8467,-146.5"/>
<polygon fill="#000000" stroke="#000000" points="237.8841,-150.0001 247.8841,-146.5 237.884,-143.0001 237.8841,-150.0001"/>
</g>
<!-- a23 -->
<g id="node23" class="node">
<title>a23</title>
<g id="a_node23"><a xlink:href="../../variable/P67W.html" xlink:title="その他 \n P67W" target="_blank">
<polygon fill="#ffffff" stroke="#ffffff" points="224,-54 44,-54 44,-16 224,-16 224,-54"/>
<text text-anchor="middle" x="134" y="-38.8" font-family="meiryo UI" font-size="14.00" fill="#000000">その他 </text>
<text text-anchor="middle" x="134" y="-23.8" font-family="meiryo UI" font-size="14.00" fill="#000000"> P67W</text>
</a>
</g>
</g>
<!-- a22&#45;&gt;a23 -->
<!-- b22 -->
<g id="node45" class="node">
<title>b22</title>
<polygon fill="transparent" stroke="transparent" points="322,-105 248,-105 248,-69 322,-69 322,-105"/>
<text text-anchor="middle" x="285" y="-83.3" font-family="meiryo UI" font-size="14.00" fill="#000000">変更なし</text>
</g>
<!-- a22&#45;&gt;b22 -->
<g id="edge134" class="edge">
<title>a22&#45;&gt;b22</title>
<path fill="none" stroke="#000000" d="M224.2461,-87C228.8194,-87 233.3928,-87 237.9662,-87"/>
<polygon fill="#000000" stroke="#000000" points="237.9781,-90.5001 247.9781,-87 237.9781,-83.5001 237.9781,-90.5001"/>
</g>
<!-- b23 -->
<g id="node46" class="node">
<title>b23</title>
<polygon fill="transparent" stroke="transparent" points="322,-53 248,-53 248,-17 322,-17 322,-53"/>
<text text-anchor="middle" x="285" y="-31.3" font-family="meiryo UI" font-size="14.00" fill="#000000">変更なし</text>
</g>
<!-- a23&#45;&gt;b23 -->
<g id="edge135" class="edge">
<title>a23&#45;&gt;b23</title>
<path fill="none" stroke="#000000" d="M224.2461,-35C228.8194,-35 233.3928,-35 237.9662,-35"/>
<polygon fill="#000000" stroke="#000000" points="237.9781,-38.5001 247.9781,-35 237.9781,-31.5001 237.9781,-38.5001"/>
</g>
<!-- b1&#45;&gt;b2 -->
<!-- c1 -->
<g id="node47" class="node">
<title>c1</title>
<polygon fill="transparent" stroke="transparent" points="473,-1272 399,-1272 399,-1236 473,-1236 473,-1272"/>
<text text-anchor="middle" x="436" y="-1250.3" font-family="meiryo UI" font-size="14.00" fill="#000000">変更なし</text>
</g>
<!-- b1&#45;&gt;c1 -->
<g id="edge90" class="edge">
<title>b1&#45;&gt;c1</title>
<path fill="none" stroke="#000000" d="M322.1602,-1254C344.2694,-1254 366.3787,-1254 388.488,-1254"/>
<polygon fill="#000000" stroke="#000000" points="388.6463,-1257.5001 398.6463,-1254 388.6463,-1250.5001 388.6463,-1257.5001"/>
</g>
<!-- b2&#45;&gt;b3 -->
<!-- c2 -->
<g id="node48" class="node">
<title>c2</title>
<polygon fill="transparent" stroke="transparent" points="473,-1220 399,-1220 399,-1184 473,-1184 473,-1220"/>
<text text-anchor="middle" x="436" y="-1198.3" font-family="meiryo UI" font-size="14.00" fill="#000000">変更なし</text>
</g>
<!-- b2&#45;&gt;c2 -->
<g id="edge93" class="edge">
<title>b2&#45;&gt;c2</title>
<path fill="none" stroke="#000000" d="M322.1602,-1202C344.2694,-1202 366.3787,-1202 388.488,-1202"/>
<polygon fill="#000000" stroke="#000000" points="388.6463,-1205.5001 398.6463,-1202 388.6463,-1198.5001 388.6463,-1205.5001"/>
</g>
<!-- b3&#45;&gt;b4 -->
<!-- c3 -->
<g id="node49" class="node">
<title>c3</title>
<g id="a_node49"><a xlink:href="../../variable/P67X.html" xlink:title="拘束時間が少ない、\n 労働時間が自由になる\n P67X" target="_blank">
<polygon fill="#ffffff" stroke="#ffffff" points="526,-1169 346,-1169 346,-1116 526,-1116 526,-1169"/>
<text text-anchor="middle" x="436" y="-1153.8" font-family="meiryo UI" font-size="14.00" fill="#000000">拘束時間が少ない、</text>
<text text-anchor="middle" x="436" y="-1138.8" font-family="meiryo UI" font-size="14.00" fill="#000000"> 労働時間が自由になる</text>
<text text-anchor="middle" x="436" y="-1123.8" font-family="meiryo UI" font-size="14.00" fill="#000000"> P67X</text>
</a>
</g>
</g>
<!-- b3&#45;&gt;c3 -->
<g id="edge96" class="edge">
<title>b3&#45;&gt;c3</title>
<path fill="none" stroke="#000000" d="M322.1602,-1142.5C326.5792,-1142.5 330.9983,-1142.5 335.4174,-1142.5"/>
<polygon fill="#000000" stroke="#000000" points="335.7286,-1146.0001 345.7286,-1142.5 335.7285,-1139.0001 335.7286,-1146.0001"/>
</g>
<!-- b4&#45;&gt;b5 -->
<!-- b4&#45;&gt;c3 -->
<g id="edge99" class="edge">
<title>b4&#45;&gt;c3</title>
<path fill="none" stroke="#000000" d="M322.2865,-1097.6924C333.5248,-1102.1207 346.2972,-1107.1535 359.1227,-1112.2073"/>
<polygon fill="#000000" stroke="#000000" points="357.8629,-1115.4727 368.4498,-1115.8825 360.4291,-1108.9601 357.8629,-1115.4727"/>
</g>
<!-- b5&#45;&gt;b6 -->
<!-- c5 -->
<g id="node51" class="node">
<title>c5</title>
<polygon fill="transparent" stroke="transparent" points="476,-1041.5 402,-1041.5 402,-1005.5 476,-1005.5 476,-1041.5"/>
<text text-anchor="middle" x="439" y="-1019.8" font-family="meiryo UI" font-size="14.00" fill="#000000">変更なし</text>
</g>
<!-- b5&#45;&gt;c5 -->
<g id="edge101" class="edge">
<title>b5&#45;&gt;c5</title>
<path fill="none" stroke="#000000" d="M322.2969,-1023.5C345.3291,-1023.5 368.3613,-1023.5 391.3935,-1023.5"/>
<polygon fill="#000000" stroke="#000000" points="391.6186,-1027.0001 401.6185,-1023.5 391.6185,-1020.0001 391.6186,-1027.0001"/>
</g>
<!-- b6&#45;&gt;b7 -->
<!-- c6 -->
<g id="node52" class="node">
<title>c6</title>
<polygon fill="transparent" stroke="transparent" points="477,-982 403,-982 403,-946 477,-946 477,-982"/>
<text text-anchor="middle" x="440" y="-960.3" font-family="meiryo UI" font-size="14.00" fill="#000000">変更なし</text>
</g>
<!-- b6&#45;&gt;c6 -->
<g id="edge104" class="edge">
<title>b6&#45;&gt;c6</title>
<path fill="none" stroke="#000000" d="M322.2363,-964C345.7162,-964 369.1961,-964 392.676,-964"/>
<polygon fill="#000000" stroke="#000000" points="392.7389,-967.5001 402.7388,-964 392.7388,-960.5001 392.7389,-967.5001"/>
</g>
<!-- b7&#45;&gt;b8 -->
<!-- c7 -->
<g id="node53" class="node">
<title>c7</title>
<polygon fill="transparent" stroke="transparent" points="478,-922.5 404,-922.5 404,-886.5 478,-886.5 478,-922.5"/>
<text text-anchor="middle" x="441" y="-900.8" font-family="meiryo UI" font-size="14.00" fill="#000000">変更なし</text>
</g>
<!-- b7&#45;&gt;c7 -->
<g id="edge107" class="edge">
<title>b7&#45;&gt;c7</title>
<path fill="none" stroke="#000000" d="M322.1719,-904.5C345.9994,-904.5 369.8269,-904.5 393.6544,-904.5"/>
<polygon fill="#000000" stroke="#000000" points="393.8662,-908.0001 403.8662,-904.5 393.8662,-901.0001 393.8662,-908.0001"/>
</g>
<!-- b8&#45;&gt;b9 -->
<!-- c8 -->
<g id="node54" class="node">
<title>c8</title>
<polygon fill="transparent" stroke="transparent" points="478,-863 404,-863 404,-827 478,-827 478,-863"/>
<text text-anchor="middle" x="441" y="-841.3" font-family="meiryo UI" font-size="14.00" fill="#000000">変更なし</text>
</g>
<!-- b8&#45;&gt;c8 -->
<g id="edge110" class="edge">
<title>b8&#45;&gt;c8</title>
<path fill="none" stroke="#000000" d="M322.1719,-845C345.9994,-845 369.8269,-845 393.6544,-845"/>
<polygon fill="#000000" stroke="#000000" points="393.8662,-848.5001 403.8662,-845 393.8662,-841.5001 393.8662,-848.5001"/>
</g>
<!-- b9&#45;&gt;b10 -->
<!-- b10&#45;&gt;b11 -->
<!-- b11&#45;&gt;b12 -->
<!-- c11 -->
<g id="node57" class="node">
<title>c11</title>
<g id="a_node57"><a xlink:href="../../variable/P67Y.html" xlink:title="結婚・出産後も続けやすい \n P67Y" target="_blank">
<polygon fill="#ffffff" stroke="#ffffff" points="537.5,-693 346.5,-693 346.5,-655 537.5,-655 537.5,-693"/>
<text text-anchor="middle" x="442" y="-677.8" font-family="meiryo UI" font-size="14.00" fill="#000000">結婚・出産後も続けやすい </text>
<text text-anchor="middle" x="442" y="-662.8" font-family="meiryo UI" font-size="14.00" fill="#000000"> P67Y</text>
</a>
</g>
</g>
<!-- b11&#45;&gt;c11 -->
<g id="edge115" class="edge">
<title>b11&#45;&gt;c11</title>
<path fill="none" stroke="#000000" d="M322.1035,-674C326.7967,-674 331.4899,-674 336.1832,-674"/>
<polygon fill="#000000" stroke="#000000" points="336.4575,-677.5001 346.4575,-674 336.4575,-670.5001 336.4575,-677.5001"/>
</g>
<!-- b12&#45;&gt;b13 -->
<!-- b12&#45;&gt;c11 -->
<g id="edge118" class="edge">
<title>b12&#45;&gt;c11</title>
<path fill="none" stroke="#000000" d="M322.0546,-634.2729C337.7465,-639.4702 356.5364,-645.6936 374.5364,-651.6554"/>
<polygon fill="#000000" stroke="#000000" points="373.8372,-655.1107 384.4305,-654.9324 376.0381,-648.4657 373.8372,-655.1107"/>
</g>
<!-- b13&#45;&gt;b14 -->
<!-- c13 -->
<g id="node59" class="node">
<title>c13</title>
<polygon fill="transparent" stroke="transparent" points="479,-588 405,-588 405,-552 479,-552 479,-588"/>
<text text-anchor="middle" x="442" y="-566.3" font-family="meiryo UI" font-size="14.00" fill="#000000">変更なし</text>
</g>
<!-- b13&#45;&gt;c13 -->
<g id="edge120" class="edge">
<title>b13&#45;&gt;c13</title>
<path fill="none" stroke="#000000" d="M322.1035,-570C346.1453,-570 370.187,-570 394.2287,-570"/>
<polygon fill="#000000" stroke="#000000" points="394.5324,-573.5001 404.5323,-570 394.5323,-566.5001 394.5324,-573.5001"/>
</g>
<!-- b14&#45;&gt;b15 -->
<!-- c14 -->
<g id="node60" class="node">
<title>c14</title>
<polygon fill="transparent" stroke="transparent" points="479,-536 405,-536 405,-500 479,-500 479,-536"/>
<text text-anchor="middle" x="442" y="-514.3" font-family="meiryo UI" font-size="14.00" fill="#000000">変更なし</text>
</g>
<!-- b14&#45;&gt;c14 -->
<g id="edge123" class="edge">
<title>b14&#45;&gt;c14</title>
<path fill="none" stroke="#000000" d="M322.1035,-518C346.1453,-518 370.187,-518 394.2287,-518"/>
<polygon fill="#000000" stroke="#000000" points="394.5324,-521.5001 404.5323,-518 394.5323,-514.5001 394.5324,-521.5001"/>
</g>
<!-- b15&#45;&gt;b16 -->
<!-- c15 -->
<g id="node61" class="node">
<title>c15</title>
<polygon fill="transparent" stroke="transparent" points="479,-484 405,-484 405,-448 479,-448 479,-484"/>
<text text-anchor="middle" x="442" y="-462.3" font-family="meiryo UI" font-size="14.00" fill="#000000">変更なし</text>
</g>
<!-- b15&#45;&gt;c15 -->
<g id="edge126" class="edge">
<title>b15&#45;&gt;c15</title>
<path fill="none" stroke="#000000" d="M322.1035,-466C346.1453,-466 370.187,-466 394.2287,-466"/>
<polygon fill="#000000" stroke="#000000" points="394.5324,-469.5001 404.5323,-466 394.5323,-462.5001 394.5324,-469.5001"/>
</g>
<!-- b16&#45;&gt;b17 -->
<!-- b17&#45;&gt;b18 -->
<!-- b18&#45;&gt;b19 -->
<!-- b19&#45;&gt;b20 -->
<!-- b20&#45;&gt;b21 -->
<!-- b21&#45;&gt;b22 -->
<!-- b22&#45;&gt;b23 -->
<!-- c23 -->
<g id="node69" class="node">
<title>c23</title>
<polygon fill="transparent" stroke="transparent" points="479,-53 405,-53 405,-17 479,-17 479,-53"/>
<text text-anchor="middle" x="442" y="-31.3" font-family="meiryo UI" font-size="14.00" fill="#000000">変更なし</text>
</g>
<!-- b23&#45;&gt;c23 -->
<g id="edge136" class="edge">
<title>b23&#45;&gt;c23</title>
<path fill="none" stroke="#000000" d="M322.1035,-35C346.1453,-35 370.187,-35 394.2287,-35"/>
<polygon fill="#000000" stroke="#000000" points="394.5324,-38.5001 404.5323,-35 394.5323,-31.5001 394.5324,-38.5001"/>
</g>
<!-- c1&#45;&gt;c2 -->
<!-- d1 -->
<g id="node70" class="node">
<title>d1</title>
<polygon fill="transparent" stroke="transparent" points="636,-1272 562,-1272 562,-1236 636,-1236 636,-1272"/>
<text text-anchor="middle" x="599" y="-1250.3" font-family="meiryo UI" font-size="14.00" fill="#000000">変更なし</text>
</g>
<!-- c1&#45;&gt;d1 -->
<g id="edge91" class="edge">
<title>c1&#45;&gt;d1</title>
<path fill="none" stroke="#000000" d="M473.248,-1254C499.3824,-1254 525.5168,-1254 551.6511,-1254"/>
<polygon fill="#000000" stroke="#000000" points="551.6674,-1257.5001 561.6674,-1254 551.6674,-1250.5001 551.6674,-1257.5001"/>
</g>
<!-- c2&#45;&gt;c3 -->
<!-- d2 -->
<g id="node71" class="node">
<title>d2</title>
<polygon fill="transparent" stroke="transparent" points="636,-1220 562,-1220 562,-1184 636,-1184 636,-1220"/>
<text text-anchor="middle" x="599" y="-1198.3" font-family="meiryo UI" font-size="14.00" fill="#000000">変更なし</text>
</g>
<!-- c2&#45;&gt;d2 -->
<g id="edge94" class="edge">
<title>c2&#45;&gt;d2</title>
<path fill="none" stroke="#000000" d="M473.248,-1202C499.3824,-1202 525.5168,-1202 551.6511,-1202"/>
<polygon fill="#000000" stroke="#000000" points="551.6674,-1205.5001 561.6674,-1202 551.6674,-1198.5001 551.6674,-1205.5001"/>
</g>
<!-- c4 -->
<!-- c3&#45;&gt;c4 -->
<!-- d3 -->
<g id="node72" class="node">
<title>d3</title>
<polygon fill="transparent" stroke="transparent" points="636,-1160.5 562,-1160.5 562,-1124.5 636,-1124.5 636,-1160.5"/>
<text text-anchor="middle" x="599" y="-1138.8" font-family="meiryo UI" font-size="14.00" fill="#000000">変更なし</text>
</g>
<!-- c3&#45;&gt;d3 -->
<g id="edge97" class="edge">
<title>c3&#45;&gt;d3</title>
<path fill="none" stroke="#000000" d="M526.0957,-1142.5C534.6926,-1142.5 543.2894,-1142.5 551.8863,-1142.5"/>
<polygon fill="#000000" stroke="#000000" points="551.9783,-1146.0001 561.9783,-1142.5 551.9783,-1139.0001 551.9783,-1146.0001"/>
</g>
<!-- c4&#45;&gt;c5 -->
<!-- c5&#45;&gt;c6 -->
<!-- d5 -->
<g id="node74" class="node">
<title>d5</title>
<polygon fill="transparent" stroke="transparent" points="636,-1041.5 562,-1041.5 562,-1005.5 636,-1005.5 636,-1041.5"/>
<text text-anchor="middle" x="599" y="-1019.8" font-family="meiryo UI" font-size="14.00" fill="#000000">変更なし</text>
</g>
<!-- c5&#45;&gt;d5 -->
<g id="edge102" class="edge">
<title>c5&#45;&gt;d5</title>
<path fill="none" stroke="#000000" d="M476.1875,-1023.5C501.3162,-1023.5 526.4449,-1023.5 551.5736,-1023.5"/>
<polygon fill="#000000" stroke="#000000" points="551.5806,-1027.0001 561.5806,-1023.5 551.5805,-1020.0001 551.5806,-1027.0001"/>
</g>
<!-- c6&#45;&gt;c7 -->
<!-- d6 -->
<g id="node75" class="node">
<title>d6</title>
<polygon fill="transparent" stroke="transparent" points="636,-982 562,-982 562,-946 636,-946 636,-982"/>
<text text-anchor="middle" x="599" y="-960.3" font-family="meiryo UI" font-size="14.00" fill="#000000">変更なし</text>
</g>
<!-- c6&#45;&gt;d6 -->
<g id="edge105" class="edge">
<title>c6&#45;&gt;d6</title>
<path fill="none" stroke="#000000" d="M477.2656,-964C502.0635,-964 526.8614,-964 551.6593,-964"/>
<polygon fill="#000000" stroke="#000000" points="551.9091,-967.5001 561.9091,-964 551.909,-960.5001 551.9091,-967.5001"/>
</g>
<!-- c7&#45;&gt;c8 -->
<!-- d7 -->
<g id="node76" class="node">
<title>d7</title>
<polygon fill="transparent" stroke="transparent" points="636,-922.5 562,-922.5 562,-886.5 636,-886.5 636,-922.5"/>
<text text-anchor="middle" x="599" y="-900.8" font-family="meiryo UI" font-size="14.00" fill="#000000">変更なし</text>
</g>
<!-- c7&#45;&gt;d7 -->
<g id="edge108" class="edge">
<title>c7&#45;&gt;d7</title>
<path fill="none" stroke="#000000" d="M478.0313,-904.5C502.5347,-904.5 527.0382,-904.5 551.5417,-904.5"/>
<polygon fill="#000000" stroke="#000000" points="551.6698,-908.0001 561.6698,-904.5 551.6698,-901.0001 551.6698,-908.0001"/>
</g>
<!-- c9 -->
<!-- c8&#45;&gt;c9 -->
<!-- d8 -->
<g id="node77" class="node">
<title>d8</title>
<polygon fill="transparent" stroke="transparent" points="636,-863 562,-863 562,-827 636,-827 636,-863"/>
<text text-anchor="middle" x="599" y="-841.3" font-family="meiryo UI" font-size="14.00" fill="#000000">変更なし</text>
</g>
<!-- c8&#45;&gt;d8 -->
<g id="edge111" class="edge">
<title>c8&#45;&gt;d8</title>
<path fill="none" stroke="#000000" d="M478.0313,-845C502.5347,-845 527.0382,-845 551.5417,-845"/>
<polygon fill="#000000" stroke="#000000" points="551.6698,-848.5001 561.6698,-845 551.6698,-841.5001 551.6698,-848.5001"/>
</g>
<!-- c10 -->
<!-- c9&#45;&gt;c10 -->
<!-- c10&#45;&gt;c11 -->
<!-- c12 -->
<!-- c11&#45;&gt;c12 -->
<!-- d11 -->
<g id="node80" class="node">
<title>d11</title>
<polygon fill="transparent" stroke="transparent" points="689,-692 615,-692 615,-656 689,-656 689,-692"/>
<text text-anchor="middle" x="652" y="-670.3" font-family="meiryo UI" font-size="14.00" fill="#000000">変更なし</text>
</g>
<!-- c11&#45;&gt;d11 -->
<g id="edge116" class="edge">
<title>c11&#45;&gt;d11</title>
<path fill="none" stroke="#000000" d="M537.5664,-674C559.9202,-674 582.274,-674 604.6278,-674"/>
<polygon fill="#000000" stroke="#000000" points="604.8985,-677.5001 614.8985,-674 604.8984,-670.5001 604.8985,-677.5001"/>
</g>
<!-- c12&#45;&gt;c13 -->
<!-- c13&#45;&gt;c14 -->
<!-- d13 -->
<g id="node82" class="node">
<title>d13</title>
<polygon fill="transparent" stroke="transparent" points="636,-588 562,-588 562,-552 636,-552 636,-588"/>
<text text-anchor="middle" x="599" y="-566.3" font-family="meiryo UI" font-size="14.00" fill="#000000">変更なし</text>
</g>
<!-- c13&#45;&gt;d13 -->
<g id="edge121" class="edge">
<title>c13&#45;&gt;d13</title>
<path fill="none" stroke="#000000" d="M479.1035,-570C503.1453,-570 527.187,-570 551.2287,-570"/>
<polygon fill="#000000" stroke="#000000" points="551.5324,-573.5001 561.5323,-570 551.5323,-566.5001 551.5324,-573.5001"/>
</g>
<!-- c14&#45;&gt;c15 -->
<!-- d14 -->
<g id="node83" class="node">
<title>d14</title>
<polygon fill="transparent" stroke="transparent" points="636,-536 562,-536 562,-500 636,-500 636,-536"/>
<text text-anchor="middle" x="599" y="-514.3" font-family="meiryo UI" font-size="14.00" fill="#000000">変更なし</text>
</g>
<!-- c14&#45;&gt;d14 -->
<g id="edge124" class="edge">
<title>c14&#45;&gt;d14</title>
<path fill="none" stroke="#000000" d="M479.1035,-518C503.1453,-518 527.187,-518 551.2287,-518"/>
<polygon fill="#000000" stroke="#000000" points="551.5324,-521.5001 561.5323,-518 551.5323,-514.5001 551.5324,-521.5001"/>
</g>
<!-- c16 -->
<g id="node62" class="node">
<title>c16</title>
<polygon fill="transparent" stroke="transparent" points="442.5,-432 441.5,-432 441.5,-396 442.5,-396 442.5,-432"/>
</g>
<!-- c15&#45;&gt;c16 -->
<!-- d15 -->
<g id="node84" class="node">
<title>d15</title>
<polygon fill="transparent" stroke="transparent" points="636,-484 562,-484 562,-448 636,-448 636,-484"/>
<text text-anchor="middle" x="599" y="-462.3" font-family="meiryo UI" font-size="14.00" fill="#000000">変更なし</text>
</g>
<!-- c15&#45;&gt;d15 -->
<g id="edge127" class="edge">
<title>c15&#45;&gt;d15</title>
<path fill="none" stroke="#000000" d="M479.1035,-466C503.1453,-466 527.187,-466 551.2287,-466"/>
<polygon fill="#000000" stroke="#000000" points="551.5324,-469.5001 561.5323,-466 551.5323,-462.5001 551.5324,-469.5001"/>
</g>
<!-- c17 -->
<!-- c16&#45;&gt;c17 -->
<!-- c18 -->
<!-- c17&#45;&gt;c18 -->
<!-- c19 -->
<!-- c18&#45;&gt;c19 -->
<!-- c20 -->
<!-- c19&#45;&gt;c20 -->
<!-- c21 -->
<!-- c20&#45;&gt;c21 -->
<!-- c22 -->
<!-- c21&#45;&gt;c22 -->
<!-- c22&#45;&gt;c23 -->
<!-- d23 -->
<g id="node92" class="node">
<title>d23</title>
<polygon fill="transparent" stroke="transparent" points="662,-53 588,-53 588,-17 662,-17 662,-53"/>
<text text-anchor="middle" x="625" y="-31.3" font-family="meiryo UI" font-size="14.00" fill="#000000">変更なし</text>
</g>
<!-- c23&#45;&gt;d23 -->
<g id="edge137" class="edge">
<title>c23&#45;&gt;d23</title>
<path fill="none" stroke="#000000" d="M479.1719,-35C512.039,-35 544.9061,-35 577.7732,-35"/>
<polygon fill="#000000" stroke="#000000" points="577.9734,-38.5001 587.9733,-35 577.9733,-31.5001 577.9734,-38.5001"/>
</g>
<!-- d1&#45;&gt;d2 -->
<!-- d2&#45;&gt;d3 -->
<!-- d4 -->
<!-- d3&#45;&gt;d4 -->
<!-- d4&#45;&gt;d5 -->
<!-- d5&#45;&gt;d6 -->
<!-- d6&#45;&gt;d7 -->
<!-- d7&#45;&gt;d8 -->
<!-- d9 -->
<!-- d8&#45;&gt;d9 -->
<!-- d10 -->
<!-- d9&#45;&gt;d10 -->
<!-- d10&#45;&gt;d11 -->
<!-- d12 -->
<!-- d11&#45;&gt;d12 -->
<!-- d12&#45;&gt;d13 -->
<!-- d13&#45;&gt;d14 -->
<!-- d14&#45;&gt;d15 -->
<!-- d16 -->
<!-- d15&#45;&gt;d16 -->
<!-- d17 -->
<!-- d16&#45;&gt;d17 -->
<!-- d18 -->
<!-- d17&#45;&gt;d18 -->
<!-- d19 -->
<!-- d18&#45;&gt;d19 -->
<!-- d20 -->
<!-- d19&#45;&gt;d20 -->
<!-- d21 -->
<!-- d20&#45;&gt;d21 -->
<!-- d22 -->
<!-- d21&#45;&gt;d22 -->
<!-- d22&#45;&gt;d23 -->
</g>
</svg>
