<?xml version="1.0" encoding="UTF-8" standalone="no"?>
<!DOCTYPE svg PUBLIC "-//W3C//DTD SVG 1.1//EN"
 "http://www.w3.org/Graphics/SVG/1.1/DTD/svg11.dtd">
<!-- Generated by graphviz version 2.40.1 (20161225.0304)
 -->
<!-- Title: sentaku_hskai Pages: 1 -->
<svg width="628pt" height="984pt"
 viewBox="0.00 0.00 628.00 984.00" xmlns="http://www.w3.org/2000/svg" xmlns:xlink="http://www.w3.org/1999/xlink">
<g id="graph0" class="graph" transform="scale(1 1) rotate(0) translate(4 980)">
<title>sentaku_hskai</title>
<polygon fill="#ffffff" stroke="transparent" points="-4,4 -4,-980 624,-980 624,4 -4,4"/>
<g id="clust1" class="cluster">
<title>cluster_0</title>
<polygon fill="#ccdfff" stroke="#ccdfff" points="8,-8 8,-968 204,-968 204,-8 8,-8"/>
<text text-anchor="middle" x="106" y="-951.2" font-family="Times,serif" font-size="16.00" fill="#000000">第2～第10回</text>
</g>
<g id="clust2" class="cluster">
<title>cluster_1</title>
<polygon fill="#edf4ff" stroke="#edf4ff" points="212,-8 212,-968 408,-968 408,-8 212,-8"/>
<text text-anchor="middle" x="310" y="-951.2" font-family="Times,serif" font-size="16.00" fill="#000000">第11～第20回</text>
</g>
<g id="clust3" class="cluster">
<title>cluster_2</title>
<polygon fill="#ccdfff" stroke="#ccdfff" points="416,-8 416,-968 612,-968 612,-8 416,-8"/>
<text text-anchor="middle" x="514" y="-951.2" font-family="Times,serif" font-size="16.00" fill="#000000">第21回~</text>
</g>
<!-- a1 -->
<g id="node1" class="node">
<title>a1</title>
<g id="a_node1"><a xlink:href="../../variable/Q253A.html" xlink:title="収入・給与がよい \n Q253A" target="_blank">
<polygon fill="#ffffff" stroke="#ffffff" points="196,-934 16,-934 16,-898 196,-898 196,-934"/>
<text text-anchor="middle" x="106" y="-919.2" font-family="meiryo UI" font-size="11.00" fill="#000000">収入・給与がよい </text>
<text text-anchor="middle" x="106" y="-907.2" font-family="meiryo UI" font-size="11.00" fill="#000000"> Q253A</text>
</a>
</g>
</g>
<!-- a2 -->
<g id="node2" class="node">
<title>a2</title>
<g id="a_node2"><a xlink:href="../../variable/Q253A.html" xlink:title="休日、休暇が多い \n Q253B" target="_blank">
<polygon fill="#ffffff" stroke="#ffffff" points="196,-884 16,-884 16,-848 196,-848 196,-884"/>
<text text-anchor="middle" x="106" y="-869.2" font-family="meiryo UI" font-size="11.00" fill="#000000">休日、休暇が多い </text>
<text text-anchor="middle" x="106" y="-857.2" font-family="meiryo UI" font-size="11.00" fill="#000000"> Q253B</text>
</a>
</g>
</g>
<!-- a1&#45;&gt;a2 -->
<!-- b1 -->
<g id="node19" class="node">
<title>b1</title>
<polygon fill="transparent" stroke="transparent" points="346,-934 274,-934 274,-898 346,-898 346,-934"/>
<text text-anchor="middle" x="310" y="-913.2" font-family="meiryo UI" font-size="11.00" fill="#000000">変更なし</text>
</g>
<!-- a1&#45;&gt;b1 -->
<g id="edge52" class="edge">
<title>a1&#45;&gt;b1</title>
<path fill="none" stroke="#000000" d="M196.0469,-916C218.6656,-916 241.2843,-916 263.903,-916"/>
<polygon fill="#000000" stroke="#000000" points="263.9446,-919.5001 273.9445,-916 263.9445,-912.5001 263.9446,-919.5001"/>
</g>
<!-- a3 -->
<g id="node3" class="node">
<title>a3</title>
<g id="a_node3"><a xlink:href="../../variable/Q253C.html" xlink:title="拘束時間が少ない、\n 残業が少ない\n Q253C" target="_blank">
<polygon fill="#ffffff" stroke="#ffffff" points="196,-834 16,-834 16,-790 196,-790 196,-834"/>
<text text-anchor="middle" x="106" y="-821.2" font-family="meiryo UI" font-size="11.00" fill="#000000">拘束時間が少ない、</text>
<text text-anchor="middle" x="106" y="-809.2" font-family="meiryo UI" font-size="11.00" fill="#000000"> 残業が少ない</text>
<text text-anchor="middle" x="106" y="-797.2" font-family="meiryo UI" font-size="11.00" fill="#000000"> Q253C</text>
</a>
</g>
</g>
<!-- a2&#45;&gt;a3 -->
<!-- b2 -->
<g id="node20" class="node">
<title>b2</title>
<polygon fill="transparent" stroke="transparent" points="346,-884 274,-884 274,-848 346,-848 346,-884"/>
<text text-anchor="middle" x="310" y="-863.2" font-family="meiryo UI" font-size="11.00" fill="#000000">変更なし</text>
</g>
<!-- a2&#45;&gt;b2 -->
<g id="edge54" class="edge">
<title>a2&#45;&gt;b2</title>
<path fill="none" stroke="#000000" d="M196.0469,-866C218.6656,-866 241.2843,-866 263.903,-866"/>
<polygon fill="#000000" stroke="#000000" points="263.9446,-869.5001 273.9445,-866 263.9445,-862.5001 263.9446,-869.5001"/>
</g>
<!-- a4 -->
<g id="node4" class="node">
<title>a4</title>
<g id="a_node4"><a xlink:href="../../variable/Q253D.html" xlink:title="労働時聞が自由になる \n Q253D" target="_blank">
<polygon fill="#ffffff" stroke="#ffffff" points="196,-776 16,-776 16,-740 196,-740 196,-776"/>
<text text-anchor="middle" x="106" y="-761.2" font-family="meiryo UI" font-size="11.00" fill="#000000">労働時聞が自由になる </text>
<text text-anchor="middle" x="106" y="-749.2" font-family="meiryo UI" font-size="11.00" fill="#000000"> Q253D</text>
</a>
</g>
</g>
<!-- a3&#45;&gt;a4 -->
<!-- b3 -->
<g id="node21" class="node">
<title>b3</title>
<g id="a_node21"><a xlink:href="../../variable/Q253S.html" xlink:title="拘束時間が少ない、\n 労働時間が自由になる\n Q253S" target="_blank">
<polygon fill="#ffffff" stroke="#ffffff" points="400,-834 220,-834 220,-790 400,-790 400,-834"/>
<text text-anchor="middle" x="310" y="-821.2" font-family="meiryo UI" font-size="11.00" fill="#000000">拘束時間が少ない、</text>
<text text-anchor="middle" x="310" y="-809.2" font-family="meiryo UI" font-size="11.00" fill="#000000"> 労働時間が自由になる</text>
<text text-anchor="middle" x="310" y="-797.2" font-family="meiryo UI" font-size="11.00" fill="#000000"> Q253S</text>
</a>
</g>
</g>
<!-- a3&#45;&gt;b3 -->
<g id="edge56" class="edge">
<title>a3&#45;&gt;b3</title>
<path fill="none" stroke="#000000" d="M196.0469,-812C200.4703,-812 204.8938,-812 209.3173,-812"/>
<polygon fill="#000000" stroke="#000000" points="209.6388,-815.5001 219.6387,-812 209.6387,-808.5001 209.6388,-815.5001"/>
</g>
<!-- a5 -->
<g id="node5" class="node">
<title>a5</title>
<g id="a_node5"><a xlink:href="../../variable/Q253E.html" xlink:title="家に近い、\n 通勤距離が短い \n Q253E" target="_blank">
<polygon fill="#ffffff" stroke="#ffffff" points="196,-726 16,-726 16,-682 196,-682 196,-726"/>
<text text-anchor="middle" x="106" y="-713.2" font-family="meiryo UI" font-size="11.00" fill="#000000">家に近い、</text>
<text text-anchor="middle" x="106" y="-701.2" font-family="meiryo UI" font-size="11.00" fill="#000000"> 通勤距離が短い </text>
<text text-anchor="middle" x="106" y="-689.2" font-family="meiryo UI" font-size="11.00" fill="#000000"> Q253E</text>
</a>
</g>
</g>
<!-- a4&#45;&gt;a5 -->
<!-- a4&#45;&gt;b3 -->
<g id="edge57" class="edge">
<title>a4&#45;&gt;b3</title>
<path fill="none" stroke="#000000" d="M174.0525,-776.0139C187.768,-779.6445 202.4077,-783.5197 216.8114,-787.3324"/>
<polygon fill="#000000" stroke="#000000" points="216.1685,-790.7827 226.7312,-789.9582 217.9598,-784.0158 216.1685,-790.7827"/>
</g>
<!-- a6 -->
<g id="node6" class="node">
<title>a6</title>
<g id="a_node6"><a xlink:href="../../variable/Q253F.html" xlink:title="転勤がない、少ない \n Q253F" target="_blank">
<polygon fill="#ffffff" stroke="#ffffff" points="196,-668 16,-668 16,-632 196,-632 196,-668"/>
<text text-anchor="middle" x="106" y="-653.2" font-family="meiryo UI" font-size="11.00" fill="#000000">転勤がない、少ない </text>
<text text-anchor="middle" x="106" y="-641.2" font-family="meiryo UI" font-size="11.00" fill="#000000"> Q253F</text>
</a>
</g>
</g>
<!-- a5&#45;&gt;a6 -->
<!-- b5 -->
<g id="node23" class="node">
<title>b5</title>
<polygon fill="transparent" stroke="transparent" points="346,-722 274,-722 274,-686 346,-686 346,-722"/>
<text text-anchor="middle" x="310" y="-701.2" font-family="meiryo UI" font-size="11.00" fill="#000000">変更なし</text>
</g>
<!-- a5&#45;&gt;b5 -->
<g id="edge59" class="edge">
<title>a5&#45;&gt;b5</title>
<path fill="none" stroke="#000000" d="M196.0469,-704C218.6656,-704 241.2843,-704 263.903,-704"/>
<polygon fill="#000000" stroke="#000000" points="263.9446,-707.5001 273.9445,-704 263.9445,-700.5001 263.9446,-707.5001"/>
</g>
<!-- a7 -->
<g id="node7" class="node">
<title>a7</title>
<g id="a_node7"><a xlink:href="../../variable/Q253G.html" xlink:title="安定している、\n 失業のおそれがない \n Q253G" target="_blank">
<polygon fill="#ffffff" stroke="#ffffff" points="196,-618 16,-618 16,-574 196,-574 196,-618"/>
<text text-anchor="middle" x="106" y="-605.2" font-family="meiryo UI" font-size="11.00" fill="#000000">安定している、</text>
<text text-anchor="middle" x="106" y="-593.2" font-family="meiryo UI" font-size="11.00" fill="#000000"> 失業のおそれがない </text>
<text text-anchor="middle" x="106" y="-581.2" font-family="meiryo UI" font-size="11.00" fill="#000000"> Q253G</text>
</a>
</g>
</g>
<!-- a6&#45;&gt;a7 -->
<!-- b6 -->
<g id="node24" class="node">
<title>b6</title>
<polygon fill="transparent" stroke="transparent" points="346,-668 274,-668 274,-632 346,-632 346,-668"/>
<text text-anchor="middle" x="310" y="-647.2" font-family="meiryo UI" font-size="11.00" fill="#000000">変更なし</text>
</g>
<!-- a6&#45;&gt;b6 -->
<g id="edge61" class="edge">
<title>a6&#45;&gt;b6</title>
<path fill="none" stroke="#000000" d="M196.0469,-650C218.6656,-650 241.2843,-650 263.903,-650"/>
<polygon fill="#000000" stroke="#000000" points="263.9446,-653.5001 273.9445,-650 263.9445,-646.5001 263.9446,-653.5001"/>
</g>
<!-- a8 -->
<g id="node8" class="node">
<title>a8</title>
<g id="a_node8"><a xlink:href="../../variable/Q253H.html" xlink:title="将来発展する可能性がある \n Q253H" target="_blank">
<polygon fill="#ffffff" stroke="#ffffff" points="196,-560 16,-560 16,-524 196,-524 196,-560"/>
<text text-anchor="middle" x="106" y="-545.2" font-family="meiryo UI" font-size="11.00" fill="#000000">将来発展する可能性がある </text>
<text text-anchor="middle" x="106" y="-533.2" font-family="meiryo UI" font-size="11.00" fill="#000000"> Q253H</text>
</a>
</g>
</g>
<!-- a7&#45;&gt;a8 -->
<!-- b7 -->
<g id="node25" class="node">
<title>b7</title>
<polygon fill="transparent" stroke="transparent" points="346,-614 274,-614 274,-578 346,-578 346,-614"/>
<text text-anchor="middle" x="310" y="-593.2" font-family="meiryo UI" font-size="11.00" fill="#000000">変更なし</text>
</g>
<!-- a7&#45;&gt;b7 -->
<g id="edge63" class="edge">
<title>a7&#45;&gt;b7</title>
<path fill="none" stroke="#000000" d="M196.0469,-596C218.6656,-596 241.2843,-596 263.903,-596"/>
<polygon fill="#000000" stroke="#000000" points="263.9446,-599.5001 273.9445,-596 263.9445,-592.5001 263.9446,-599.5001"/>
</g>
<!-- a9 -->
<g id="node9" class="node">
<title>a9</title>
<g id="a_node9"><a xlink:href="../../variable/Q253I.html" xlink:title="世間一般に \n 知られている企業である \n Q253I" target="_blank">
<polygon fill="#ffffff" stroke="#ffffff" points="196,-510 16,-510 16,-466 196,-466 196,-510"/>
<text text-anchor="middle" x="106" y="-497.2" font-family="meiryo UI" font-size="11.00" fill="#000000">世間一般に </text>
<text text-anchor="middle" x="106" y="-485.2" font-family="meiryo UI" font-size="11.00" fill="#000000"> 知られている企業である </text>
<text text-anchor="middle" x="106" y="-473.2" font-family="meiryo UI" font-size="11.00" fill="#000000"> Q253I</text>
</a>
</g>
</g>
<!-- a8&#45;&gt;a9 -->
<!-- b8 -->
<g id="node26" class="node">
<title>b8</title>
<polygon fill="transparent" stroke="transparent" points="346,-560 274,-560 274,-524 346,-524 346,-560"/>
<text text-anchor="middle" x="310" y="-539.2" font-family="meiryo UI" font-size="11.00" fill="#000000">変更なし</text>
</g>
<!-- a8&#45;&gt;b8 -->
<g id="edge65" class="edge">
<title>a8&#45;&gt;b8</title>
<path fill="none" stroke="#000000" d="M196.0469,-542C218.6656,-542 241.2843,-542 263.903,-542"/>
<polygon fill="#000000" stroke="#000000" points="263.9446,-545.5001 273.9445,-542 263.9445,-538.5001 263.9446,-545.5001"/>
</g>
<!-- a10 -->
<g id="node10" class="node">
<title>a10</title>
<g id="a_node10"><a xlink:href="../../variable/Q253J.html" xlink:title="技術が身につく \n Q253J" target="_blank">
<polygon fill="#ffffff" stroke="#ffffff" points="196,-452 16,-452 16,-416 196,-416 196,-452"/>
<text text-anchor="middle" x="106" y="-437.2" font-family="meiryo UI" font-size="11.00" fill="#000000">技術が身につく </text>
<text text-anchor="middle" x="106" y="-425.2" font-family="meiryo UI" font-size="11.00" fill="#000000"> Q253J</text>
</a>
</g>
</g>
<!-- a9&#45;&gt;a10 -->
<!-- a11 -->
<g id="node11" class="node">
<title>a11</title>
<g id="a_node11"><a xlink:href="../../variable/Q253K.html" xlink:title="能力が生かせる \n Q253K" target="_blank">
<polygon fill="#ffffff" stroke="#ffffff" points="196,-402 16,-402 16,-366 196,-366 196,-402"/>
<text text-anchor="middle" x="106" y="-387.2" font-family="meiryo UI" font-size="11.00" fill="#000000">能力が生かせる </text>
<text text-anchor="middle" x="106" y="-375.2" font-family="meiryo UI" font-size="11.00" fill="#000000"> Q253K</text>
</a>
</g>
</g>
<!-- a10&#45;&gt;a11 -->
<!-- b10 -->
<g id="node28" class="node">
<title>b10</title>
<polygon fill="transparent" stroke="transparent" points="346,-452 274,-452 274,-416 346,-416 346,-452"/>
<text text-anchor="middle" x="310" y="-431.2" font-family="meiryo UI" font-size="11.00" fill="#000000">変更なし</text>
</g>
<!-- a10&#45;&gt;b10 -->
<g id="edge67" class="edge">
<title>a10&#45;&gt;b10</title>
<path fill="none" stroke="#000000" d="M196.0469,-434C218.6656,-434 241.2843,-434 263.903,-434"/>
<polygon fill="#000000" stroke="#000000" points="263.9446,-437.5001 273.9445,-434 263.9445,-430.5001 263.9446,-437.5001"/>
</g>
<!-- a12 -->
<g id="node12" class="node">
<title>a12</title>
<g id="a_node12"><a xlink:href="../../variable/Q253L.html" xlink:title="仕事内容に興味がある \n Q253L" target="_blank">
<polygon fill="#ffffff" stroke="#ffffff" points="196,-352 16,-352 16,-316 196,-316 196,-352"/>
<text text-anchor="middle" x="106" y="-337.2" font-family="meiryo UI" font-size="11.00" fill="#000000">仕事内容に興味がある </text>
<text text-anchor="middle" x="106" y="-325.2" font-family="meiryo UI" font-size="11.00" fill="#000000"> Q253L</text>
</a>
</g>
</g>
<!-- a11&#45;&gt;a12 -->
<!-- b11 -->
<g id="node29" class="node">
<title>b11</title>
<polygon fill="transparent" stroke="transparent" points="346,-402 274,-402 274,-366 346,-366 346,-402"/>
<text text-anchor="middle" x="310" y="-381.2" font-family="meiryo UI" font-size="11.00" fill="#000000">変更なし</text>
</g>
<!-- a11&#45;&gt;b11 -->
<g id="edge69" class="edge">
<title>a11&#45;&gt;b11</title>
<path fill="none" stroke="#000000" d="M196.0469,-384C218.6656,-384 241.2843,-384 263.903,-384"/>
<polygon fill="#000000" stroke="#000000" points="263.9446,-387.5001 273.9445,-384 263.9445,-380.5001 263.9446,-387.5001"/>
</g>
<!-- a13 -->
<g id="node13" class="node">
<title>a13</title>
<g id="a_node13"><a xlink:href="../../variable/Q253M.html" xlink:title="管理職になれる \n Q253M" target="_blank">
<polygon fill="#ffffff" stroke="#ffffff" points="196,-302 16,-302 16,-266 196,-266 196,-302"/>
<text text-anchor="middle" x="106" y="-287.2" font-family="meiryo UI" font-size="11.00" fill="#000000">管理職になれる </text>
<text text-anchor="middle" x="106" y="-275.2" font-family="meiryo UI" font-size="11.00" fill="#000000"> Q253M</text>
</a>
</g>
</g>
<!-- a12&#45;&gt;a13 -->
<!-- b12 -->
<g id="node30" class="node">
<title>b12</title>
<polygon fill="transparent" stroke="transparent" points="346,-352 274,-352 274,-316 346,-316 346,-352"/>
<text text-anchor="middle" x="310" y="-331.2" font-family="meiryo UI" font-size="11.00" fill="#000000">変更なし</text>
</g>
<!-- a12&#45;&gt;b12 -->
<g id="edge71" class="edge">
<title>a12&#45;&gt;b12</title>
<path fill="none" stroke="#000000" d="M196.0469,-334C218.6656,-334 241.2843,-334 263.903,-334"/>
<polygon fill="#000000" stroke="#000000" points="263.9446,-337.5001 273.9445,-334 263.9445,-330.5001 263.9446,-337.5001"/>
</g>
<!-- a14 -->
<g id="node14" class="node">
<title>a14</title>
<g id="a_node14"><a xlink:href="../../variable/Q253N.html" xlink:title="外国に行ける \n Q253N" target="_blank">
<polygon fill="#ffffff" stroke="#ffffff" points="196,-252 16,-252 16,-216 196,-216 196,-252"/>
<text text-anchor="middle" x="106" y="-237.2" font-family="meiryo UI" font-size="11.00" fill="#000000">外国に行ける </text>
<text text-anchor="middle" x="106" y="-225.2" font-family="meiryo UI" font-size="11.00" fill="#000000"> Q253N</text>
</a>
</g>
</g>
<!-- a13&#45;&gt;a14 -->
<!-- a15 -->
<g id="node15" class="node">
<title>a15</title>
<g id="a_node15"><a xlink:href="../../variable/Q253O.html" xlink:title="結婚相手が見つかる \n Q253O" target="_blank">
<polygon fill="#ffffff" stroke="#ffffff" points="196,-202 16,-202 16,-166 196,-166 196,-202"/>
<text text-anchor="middle" x="106" y="-187.2" font-family="meiryo UI" font-size="11.00" fill="#000000">結婚相手が見つかる </text>
<text text-anchor="middle" x="106" y="-175.2" font-family="meiryo UI" font-size="11.00" fill="#000000"> Q253O</text>
</a>
</g>
</g>
<!-- a14&#45;&gt;a15 -->
<!-- a16 -->
<g id="node16" class="node">
<title>a16</title>
<g id="a_node16"><a xlink:href="../../variable/Q253P.html" xlink:title="学校がすすめるので \n Q253P" target="_blank">
<polygon fill="#ffffff" stroke="#ffffff" points="196,-152 16,-152 16,-116 196,-116 196,-152"/>
<text text-anchor="middle" x="106" y="-137.2" font-family="meiryo UI" font-size="11.00" fill="#000000">学校がすすめるので </text>
<text text-anchor="middle" x="106" y="-125.2" font-family="meiryo UI" font-size="11.00" fill="#000000"> Q253P</text>
</a>
</g>
</g>
<!-- a15&#45;&gt;a16 -->
<!-- a17 -->
<g id="node17" class="node">
<title>a17</title>
<g id="a_node17"><a xlink:href="../../variable/Q253Q.html" xlink:title="家族がすすめるので \n Q253Q" target="_blank">
<polygon fill="#ffffff" stroke="#ffffff" points="196,-102 16,-102 16,-66 196,-66 196,-102"/>
<text text-anchor="middle" x="106" y="-87.2" font-family="meiryo UI" font-size="11.00" fill="#000000">家族がすすめるので </text>
<text text-anchor="middle" x="106" y="-75.2" font-family="meiryo UI" font-size="11.00" fill="#000000"> Q253Q</text>
</a>
</g>
</g>
<!-- a16&#45;&gt;a17 -->
<!-- a18 -->
<g id="node18" class="node">
<title>a18</title>
<g id="a_node18"><a xlink:href="../../variable/Q253R.html" xlink:title="その他 \n Q253R" target="_blank">
<polygon fill="#ffffff" stroke="#ffffff" points="196,-52 16,-52 16,-16 196,-16 196,-52"/>
<text text-anchor="middle" x="106" y="-37.2" font-family="meiryo UI" font-size="11.00" fill="#000000">その他 </text>
<text text-anchor="middle" x="106" y="-25.2" font-family="meiryo UI" font-size="11.00" fill="#000000"> Q253R</text>
</a>
</g>
</g>
<!-- a17&#45;&gt;a18 -->
<!-- b18 -->
<g id="node36" class="node">
<title>b18</title>
<polygon fill="transparent" stroke="transparent" points="346,-52 274,-52 274,-16 346,-16 346,-52"/>
<text text-anchor="middle" x="310" y="-31.2" font-family="meiryo UI" font-size="11.00" fill="#000000">変更なし</text>
</g>
<!-- a18&#45;&gt;b18 -->
<g id="edge73" class="edge">
<title>a18&#45;&gt;b18</title>
<path fill="none" stroke="#000000" d="M196.0469,-34C218.6656,-34 241.2843,-34 263.903,-34"/>
<polygon fill="#000000" stroke="#000000" points="263.9446,-37.5001 273.9445,-34 263.9445,-30.5001 263.9446,-37.5001"/>
</g>
<!-- b1&#45;&gt;b2 -->
<!-- c1 -->
<g id="node37" class="node">
<title>c1</title>
<polygon fill="transparent" stroke="transparent" points="496,-934 424,-934 424,-898 496,-898 496,-934"/>
<text text-anchor="middle" x="460" y="-913.2" font-family="meiryo UI" font-size="11.00" fill="#000000">変更なし</text>
</g>
<!-- b1&#45;&gt;c1 -->
<g id="edge53" class="edge">
<title>b1&#45;&gt;c1</title>
<path fill="none" stroke="#000000" d="M346.0352,-916C368.6562,-916 391.2772,-916 413.8983,-916"/>
<polygon fill="#000000" stroke="#000000" points="413.9408,-919.5001 423.9408,-916 413.9408,-912.5001 413.9408,-919.5001"/>
</g>
<!-- b2&#45;&gt;b3 -->
<!-- c2 -->
<g id="node38" class="node">
<title>c2</title>
<polygon fill="transparent" stroke="transparent" points="496,-884 424,-884 424,-848 496,-848 496,-884"/>
<text text-anchor="middle" x="460" y="-863.2" font-family="meiryo UI" font-size="11.00" fill="#000000">変更なし</text>
</g>
<!-- b2&#45;&gt;c2 -->
<g id="edge55" class="edge">
<title>b2&#45;&gt;c2</title>
<path fill="none" stroke="#000000" d="M346.0352,-866C368.6562,-866 391.2772,-866 413.8983,-866"/>
<polygon fill="#000000" stroke="#000000" points="413.9408,-869.5001 423.9408,-866 413.9408,-862.5001 413.9408,-869.5001"/>
</g>
<!-- b4 -->
<!-- b3&#45;&gt;b4 -->
<!-- c3 -->
<g id="node39" class="node">
<title>c3</title>
<polygon fill="transparent" stroke="transparent" points="496,-830 424,-830 424,-794 496,-794 496,-830"/>
<text text-anchor="middle" x="460" y="-809.2" font-family="meiryo UI" font-size="11.00" fill="#000000">変更なし</text>
</g>
<!-- b3&#45;&gt;c3 -->
<g id="edge58" class="edge">
<title>b3&#45;&gt;c3</title>
<path fill="none" stroke="#000000" d="M400.2344,-812C404.6117,-812 408.9891,-812 413.3665,-812"/>
<polygon fill="#000000" stroke="#000000" points="413.5804,-815.5001 423.5803,-812 413.5803,-808.5001 413.5804,-815.5001"/>
</g>
<!-- b4&#45;&gt;b5 -->
<!-- b5&#45;&gt;b6 -->
<!-- c5 -->
<g id="node41" class="node">
<title>c5</title>
<polygon fill="transparent" stroke="transparent" points="496,-722 424,-722 424,-686 496,-686 496,-722"/>
<text text-anchor="middle" x="460" y="-701.2" font-family="meiryo UI" font-size="11.00" fill="#000000">変更なし</text>
</g>
<!-- b5&#45;&gt;c5 -->
<g id="edge60" class="edge">
<title>b5&#45;&gt;c5</title>
<path fill="none" stroke="#000000" d="M346.0352,-704C368.6562,-704 391.2772,-704 413.8983,-704"/>
<polygon fill="#000000" stroke="#000000" points="413.9408,-707.5001 423.9408,-704 413.9408,-700.5001 413.9408,-707.5001"/>
</g>
<!-- b6&#45;&gt;b7 -->
<!-- c6 -->
<g id="node42" class="node">
<title>c6</title>
<polygon fill="transparent" stroke="transparent" points="496,-668 424,-668 424,-632 496,-632 496,-668"/>
<text text-anchor="middle" x="460" y="-647.2" font-family="meiryo UI" font-size="11.00" fill="#000000">変更なし</text>
</g>
<!-- b6&#45;&gt;c6 -->
<g id="edge62" class="edge">
<title>b6&#45;&gt;c6</title>
<path fill="none" stroke="#000000" d="M346.0352,-650C368.6562,-650 391.2772,-650 413.8983,-650"/>
<polygon fill="#000000" stroke="#000000" points="413.9408,-653.5001 423.9408,-650 413.9408,-646.5001 413.9408,-653.5001"/>
</g>
<!-- b7&#45;&gt;b8 -->
<!-- c7 -->
<g id="node43" class="node">
<title>c7</title>
<polygon fill="transparent" stroke="transparent" points="496,-614 424,-614 424,-578 496,-578 496,-614"/>
<text text-anchor="middle" x="460" y="-593.2" font-family="meiryo UI" font-size="11.00" fill="#000000">変更なし</text>
</g>
<!-- b7&#45;&gt;c7 -->
<g id="edge64" class="edge">
<title>b7&#45;&gt;c7</title>
<path fill="none" stroke="#000000" d="M346.0352,-596C368.6562,-596 391.2772,-596 413.8983,-596"/>
<polygon fill="#000000" stroke="#000000" points="413.9408,-599.5001 423.9408,-596 413.9408,-592.5001 413.9408,-599.5001"/>
</g>
<!-- b9 -->
<!-- b8&#45;&gt;b9 -->
<!-- c8 -->
<g id="node44" class="node">
<title>c8</title>
<polygon fill="transparent" stroke="transparent" points="496,-560 424,-560 424,-524 496,-524 496,-560"/>
<text text-anchor="middle" x="460" y="-539.2" font-family="meiryo UI" font-size="11.00" fill="#000000">変更なし</text>
</g>
<!-- b8&#45;&gt;c8 -->
<g id="edge66" class="edge">
<title>b8&#45;&gt;c8</title>
<path fill="none" stroke="#000000" d="M346.0352,-542C368.6562,-542 391.2772,-542 413.8983,-542"/>
<polygon fill="#000000" stroke="#000000" points="413.9408,-545.5001 423.9408,-542 413.9408,-538.5001 413.9408,-545.5001"/>
</g>
<!-- b9&#45;&gt;b10 -->
<!-- b10&#45;&gt;b11 -->
<!-- c10 -->
<g id="node46" class="node">
<title>c10</title>
<polygon fill="transparent" stroke="transparent" points="496,-452 424,-452 424,-416 496,-416 496,-452"/>
<text text-anchor="middle" x="460" y="-431.2" font-family="meiryo UI" font-size="11.00" fill="#000000">変更なし</text>
</g>
<!-- b10&#45;&gt;c10 -->
<g id="edge68" class="edge">
<title>b10&#45;&gt;c10</title>
<path fill="none" stroke="#000000" d="M346.0352,-434C368.6562,-434 391.2772,-434 413.8983,-434"/>
<polygon fill="#000000" stroke="#000000" points="413.9408,-437.5001 423.9408,-434 413.9408,-430.5001 413.9408,-437.5001"/>
</g>
<!-- b11&#45;&gt;b12 -->
<!-- c11 -->
<g id="node47" class="node">
<title>c11</title>
<polygon fill="transparent" stroke="transparent" points="496,-402 424,-402 424,-366 496,-366 496,-402"/>
<text text-anchor="middle" x="460" y="-381.2" font-family="meiryo UI" font-size="11.00" fill="#000000">変更なし</text>
</g>
<!-- b11&#45;&gt;c11 -->
<g id="edge70" class="edge">
<title>b11&#45;&gt;c11</title>
<path fill="none" stroke="#000000" d="M346.0352,-384C368.6562,-384 391.2772,-384 413.8983,-384"/>
<polygon fill="#000000" stroke="#000000" points="413.9408,-387.5001 423.9408,-384 413.9408,-380.5001 413.9408,-387.5001"/>
</g>
<!-- b13 -->
<!-- b12&#45;&gt;b13 -->
<!-- c12 -->
<g id="node48" class="node">
<title>c12</title>
<polygon fill="transparent" stroke="transparent" points="496,-352 424,-352 424,-316 496,-316 496,-352"/>
<text text-anchor="middle" x="460" y="-331.2" font-family="meiryo UI" font-size="11.00" fill="#000000">変更なし</text>
</g>
<!-- b12&#45;&gt;c12 -->
<g id="edge72" class="edge">
<title>b12&#45;&gt;c12</title>
<path fill="none" stroke="#000000" d="M346.0352,-334C368.6562,-334 391.2772,-334 413.8983,-334"/>
<polygon fill="#000000" stroke="#000000" points="413.9408,-337.5001 423.9408,-334 413.9408,-330.5001 413.9408,-337.5001"/>
</g>
<!-- b14 -->
<!-- b13&#45;&gt;b14 -->
<!-- b15 -->
<!-- b14&#45;&gt;b15 -->
<!-- b16 -->
<!-- b15&#45;&gt;b16 -->
<!-- b17 -->
<!-- b16&#45;&gt;b17 -->
<!-- b17&#45;&gt;b18 -->
<!-- c18 -->
<g id="node54" class="node">
<title>c18</title>
<polygon fill="transparent" stroke="transparent" points="523,-52 451,-52 451,-16 523,-16 523,-52"/>
<text text-anchor="middle" x="487" y="-31.2" font-family="meiryo UI" font-size="11.00" fill="#000000">変更なし</text>
</g>
<!-- b18&#45;&gt;c18 -->
<g id="edge74" class="edge">
<title>b18&#45;&gt;c18</title>
<path fill="none" stroke="#000000" d="M346.2988,-34C377.7084,-34 409.118,-34 440.5276,-34"/>
<polygon fill="#000000" stroke="#000000" points="440.7255,-37.5001 450.7255,-34 440.7254,-30.5001 440.7255,-37.5001"/>
</g>
<!-- c1&#45;&gt;c2 -->
<!-- c2&#45;&gt;c3 -->
<!-- c4 -->
<!-- c3&#45;&gt;c4 -->
<!-- c4&#45;&gt;c5 -->
<!-- c5&#45;&gt;c6 -->
<!-- c6&#45;&gt;c7 -->
<!-- c7&#45;&gt;c8 -->
<!-- c9 -->
<!-- c8&#45;&gt;c9 -->
<!-- c9&#45;&gt;c10 -->
<!-- c10&#45;&gt;c11 -->
<!-- c11&#45;&gt;c12 -->
<!-- c13 -->
<!-- c12&#45;&gt;c13 -->
<!-- c14 -->
<!-- c13&#45;&gt;c14 -->
<!-- c15 -->
<!-- c14&#45;&gt;c15 -->
<!-- c16 -->
<!-- c15&#45;&gt;c16 -->
<!-- c17 -->
<!-- c16&#45;&gt;c17 -->
<!-- c17&#45;&gt;c18 -->
</g>
</svg>
